%TF.GenerationSoftware,KiCad,Pcbnew,(6.0.11)*%
%TF.CreationDate,2024-01-03T20:11:09+00:00*%
%TF.ProjectId,BBCWinchesterPro,42424357-696e-4636-9865-737465725072,rev?*%
%TF.SameCoordinates,Original*%
%TF.FileFunction,Legend,Top*%
%TF.FilePolarity,Positive*%
%FSLAX46Y46*%
G04 Gerber Fmt 4.6, Leading zero omitted, Abs format (unit mm)*
G04 Created by KiCad (PCBNEW (6.0.11)) date 2024-01-03 20:11:09*
%MOMM*%
%LPD*%
G01*
G04 APERTURE LIST*
%ADD10C,0.000000*%
%ADD11C,0.500000*%
%ADD12C,0.300000*%
%ADD13C,0.400000*%
%ADD14C,0.700000*%
%ADD15C,0.150000*%
%ADD16C,0.120000*%
G04 APERTURE END LIST*
D10*
G36*
X139286105Y-53167664D02*
G01*
X139324082Y-53232776D01*
X139325171Y-53635026D01*
X139326255Y-54037365D01*
X139287819Y-54109260D01*
X139249388Y-54181153D01*
X133106583Y-54181153D01*
X133062091Y-54136570D01*
X133017598Y-54091896D01*
X133017598Y-53191809D01*
X133062091Y-53147226D01*
X133106583Y-53102552D01*
X139248390Y-53102552D01*
X139286105Y-53167664D01*
G37*
D11*
X97280000Y-46760000D02*
X97280000Y-50850000D01*
D10*
G36*
X139286105Y-51456657D02*
G01*
X139286196Y-51456657D01*
X139324082Y-51521769D01*
X139325171Y-51937584D01*
X139326255Y-52353397D01*
X139267926Y-52411818D01*
X139209596Y-52470238D01*
X133106583Y-52470238D01*
X133062091Y-52425654D01*
X133017598Y-52380980D01*
X133017598Y-51509290D01*
X133040029Y-51450416D01*
X133062630Y-51391635D01*
X139248390Y-51391635D01*
X139286105Y-51456657D01*
G37*
G36*
X134167916Y-48892678D02*
G01*
X134923127Y-48897381D01*
X136867636Y-48909590D01*
X139567441Y-48926501D01*
X139789006Y-48990799D01*
X140010656Y-49055007D01*
X140123064Y-49112161D01*
X140235478Y-49169225D01*
X140394819Y-49298636D01*
X140425717Y-49323171D01*
X140456621Y-49347286D01*
X140487003Y-49371593D01*
X140501835Y-49384011D01*
X140516339Y-49396706D01*
X140530449Y-49409757D01*
X140544100Y-49423239D01*
X140557225Y-49437229D01*
X140569760Y-49451804D01*
X140581638Y-49467040D01*
X140592793Y-49483015D01*
X140603160Y-49499805D01*
X140608027Y-49508529D01*
X140612672Y-49517486D01*
X140671189Y-49607015D01*
X140720653Y-49746102D01*
X140770214Y-49885279D01*
X140771837Y-53275279D01*
X140773466Y-56665280D01*
X140714778Y-56687888D01*
X140656085Y-56710406D01*
X133106583Y-56710406D01*
X133062000Y-56665822D01*
X133017507Y-56621148D01*
X133018138Y-56172958D01*
X133018682Y-55724769D01*
X133047986Y-55678467D01*
X133077285Y-55632164D01*
X134006582Y-55629451D01*
X134865251Y-55627010D01*
X136378028Y-55622668D01*
X139678765Y-55613173D01*
X139678765Y-50108380D01*
X139660495Y-50093621D01*
X139643249Y-50080837D01*
X139626866Y-50069868D01*
X139611185Y-50060553D01*
X139596044Y-50052733D01*
X139581282Y-50046249D01*
X139566736Y-50040939D01*
X139552246Y-50036645D01*
X139537651Y-50033206D01*
X139522787Y-50030463D01*
X139507495Y-50028256D01*
X139491612Y-50026425D01*
X139418946Y-50019664D01*
X136299890Y-50017494D01*
X134913540Y-50016589D01*
X134068346Y-50016047D01*
X133180828Y-50015414D01*
X133136244Y-49970830D01*
X133091752Y-49926246D01*
X133117707Y-46058304D01*
X130875584Y-46058304D01*
X130875584Y-69360550D01*
X132768904Y-69360550D01*
X132789251Y-60222039D01*
X132815507Y-60209366D01*
X132842000Y-60198000D01*
X132895647Y-60178936D01*
X132950101Y-60164335D01*
X133005270Y-60153685D01*
X133061060Y-60146475D01*
X133117380Y-60142193D01*
X133174136Y-60140328D01*
X133231237Y-60140368D01*
X133346101Y-60144117D01*
X133461232Y-60149348D01*
X133575890Y-60151967D01*
X133632811Y-60151019D01*
X133689336Y-60147884D01*
X133956845Y-60149150D01*
X134826361Y-60153218D01*
X137114689Y-60163483D01*
X139402220Y-60181435D01*
X139604942Y-60219044D01*
X139806138Y-60264007D01*
X139906019Y-60289362D01*
X140005344Y-60316697D01*
X140104057Y-60346058D01*
X140202098Y-60377491D01*
X140299410Y-60411044D01*
X140395936Y-60446763D01*
X140491617Y-60484696D01*
X140586396Y-60524890D01*
X140680214Y-60567390D01*
X140773014Y-60612245D01*
X140864738Y-60659501D01*
X140955329Y-60709205D01*
X141046944Y-60770610D01*
X141138293Y-60833413D01*
X141228996Y-60897744D01*
X141318670Y-60963732D01*
X141406933Y-61031506D01*
X141493405Y-61101196D01*
X141577703Y-61172928D01*
X141659446Y-61246834D01*
X141850874Y-61466328D01*
X141945765Y-61576676D01*
X142038269Y-61688749D01*
X142083196Y-61745742D01*
X142127009Y-61803539D01*
X142169538Y-61862263D01*
X142210609Y-61922039D01*
X142250050Y-61982991D01*
X142287689Y-62045242D01*
X142323354Y-62108918D01*
X142356872Y-62174141D01*
X142388812Y-62228962D01*
X142419652Y-62284508D01*
X142478072Y-62397600D01*
X142532217Y-62513071D01*
X142582167Y-62630576D01*
X142628005Y-62749769D01*
X142669813Y-62870304D01*
X142707674Y-62991836D01*
X142741669Y-63114020D01*
X142770026Y-63239324D01*
X142795266Y-63367055D01*
X142817294Y-63496954D01*
X142836016Y-63628767D01*
X142851338Y-63762236D01*
X142863166Y-63897105D01*
X142871404Y-64033117D01*
X142875960Y-64170017D01*
X142876739Y-64307547D01*
X142873644Y-64445450D01*
X142866579Y-64583470D01*
X142855448Y-64721351D01*
X142840155Y-64858835D01*
X142820604Y-64995666D01*
X142796698Y-65131587D01*
X142768342Y-65266342D01*
X142752946Y-65338613D01*
X142735252Y-65410138D01*
X142715399Y-65480947D01*
X142693524Y-65551070D01*
X142669764Y-65620539D01*
X142644259Y-65689383D01*
X142617145Y-65757632D01*
X142588561Y-65825319D01*
X142527533Y-65959124D01*
X142462278Y-66091041D01*
X142393899Y-66221315D01*
X142323499Y-66350190D01*
X142292075Y-66401875D01*
X142259791Y-66452848D01*
X142226642Y-66503105D01*
X142192624Y-66552643D01*
X142157731Y-66601458D01*
X142121958Y-66649544D01*
X142085302Y-66696899D01*
X142047756Y-66743517D01*
X142009315Y-66789396D01*
X141969976Y-66834531D01*
X141929733Y-66878917D01*
X141888582Y-66922551D01*
X141846517Y-66965430D01*
X141803533Y-67007547D01*
X141759626Y-67048901D01*
X141714791Y-67089486D01*
X141647566Y-67158779D01*
X141577799Y-67225174D01*
X141505653Y-67288778D01*
X141431289Y-67349698D01*
X141354869Y-67408039D01*
X141276555Y-67463909D01*
X141196509Y-67517414D01*
X141114892Y-67568660D01*
X141031867Y-67617753D01*
X140947595Y-67664801D01*
X140862238Y-67709909D01*
X140775958Y-67753184D01*
X140601276Y-67834661D01*
X140424844Y-67910084D01*
X140296553Y-67954786D01*
X140166870Y-67996165D01*
X140035979Y-68034047D01*
X139904064Y-68068258D01*
X139771308Y-68098626D01*
X139637897Y-68124975D01*
X139504015Y-68147134D01*
X139369845Y-68164929D01*
X136444310Y-68164929D01*
X136425142Y-64119100D01*
X136433575Y-64103311D01*
X136442740Y-64089085D01*
X136452601Y-64076345D01*
X136463124Y-64065018D01*
X136474274Y-64055030D01*
X136486015Y-64046304D01*
X136498313Y-64038766D01*
X136511132Y-64032342D01*
X136524438Y-64026956D01*
X136538195Y-64022535D01*
X136552368Y-64019002D01*
X136566924Y-64016283D01*
X136597038Y-64012990D01*
X136628258Y-64012056D01*
X136660302Y-64012884D01*
X136692892Y-64014874D01*
X136758585Y-64019949D01*
X136791128Y-64021838D01*
X136823096Y-64022495D01*
X136854206Y-64021324D01*
X136884181Y-64017725D01*
X136918349Y-64019666D01*
X136953017Y-64020541D01*
X137023457Y-64019936D01*
X137166004Y-64015177D01*
X137236538Y-64014378D01*
X137271275Y-64015107D01*
X137305529Y-64016869D01*
X137339201Y-64019873D01*
X137372192Y-64024328D01*
X137404404Y-64030445D01*
X137435739Y-64038434D01*
X137447548Y-64051630D01*
X137458083Y-64065292D01*
X137467410Y-64079395D01*
X137475593Y-64093915D01*
X137482698Y-64108829D01*
X137488790Y-64124114D01*
X137493932Y-64139744D01*
X137498191Y-64155698D01*
X137504318Y-64188477D01*
X137507688Y-64222264D01*
X137508821Y-64256868D01*
X137508236Y-64292099D01*
X137499101Y-64435510D01*
X137497715Y-64471037D01*
X137497725Y-64506054D01*
X137499651Y-64540372D01*
X137504013Y-64573802D01*
X137520473Y-67086231D01*
X138466360Y-67103811D01*
X138702605Y-67102310D01*
X138938592Y-67094105D01*
X139174237Y-67077020D01*
X139291905Y-67064470D01*
X139409456Y-67048884D01*
X139463408Y-67044641D01*
X139517002Y-67038126D01*
X139570256Y-67029528D01*
X139623187Y-67019036D01*
X139675810Y-67006837D01*
X139728144Y-66993119D01*
X139780204Y-66978072D01*
X139832007Y-66961882D01*
X139934909Y-66926831D01*
X140036983Y-66889470D01*
X140239184Y-66813846D01*
X140312733Y-66776243D01*
X140385250Y-66736781D01*
X140456661Y-66695455D01*
X140526889Y-66652261D01*
X140595862Y-66607195D01*
X140663504Y-66560254D01*
X140729741Y-66511434D01*
X140794498Y-66460730D01*
X140857700Y-66408138D01*
X140919273Y-66353656D01*
X140979143Y-66297279D01*
X141037234Y-66239002D01*
X141093472Y-66178823D01*
X141147782Y-66116736D01*
X141200090Y-66052740D01*
X141250321Y-65986828D01*
X141278552Y-65948251D01*
X141305974Y-65908910D01*
X141332597Y-65868856D01*
X141358431Y-65828142D01*
X141407774Y-65744939D01*
X141454087Y-65659713D01*
X141497453Y-65572879D01*
X141537955Y-65484849D01*
X141575677Y-65396038D01*
X141610703Y-65306858D01*
X141671973Y-65078368D01*
X141699005Y-64961845D01*
X141723215Y-64843983D01*
X141744285Y-64724915D01*
X141761899Y-64604776D01*
X141775742Y-64483701D01*
X141785497Y-64361823D01*
X141790848Y-64239277D01*
X141791479Y-64116196D01*
X141787074Y-63992716D01*
X141777316Y-63868971D01*
X141761890Y-63745094D01*
X141740479Y-63621220D01*
X141712767Y-63497483D01*
X141678437Y-63374018D01*
X141657022Y-63288527D01*
X141632194Y-63204182D01*
X141604105Y-63121002D01*
X141572906Y-63039005D01*
X141538749Y-62958209D01*
X141501786Y-62878631D01*
X141462169Y-62800291D01*
X141420050Y-62723205D01*
X141375579Y-62647393D01*
X141328910Y-62572873D01*
X141280194Y-62499662D01*
X141229582Y-62427779D01*
X141177227Y-62357241D01*
X141123280Y-62288067D01*
X141067893Y-62220276D01*
X141011218Y-62153884D01*
X140925775Y-62070779D01*
X140838972Y-61989479D01*
X140750338Y-61910612D01*
X140705186Y-61872288D01*
X140659399Y-61834807D01*
X140612917Y-61798249D01*
X140565683Y-61762691D01*
X140517636Y-61728211D01*
X140468717Y-61694890D01*
X140418868Y-61662804D01*
X140368030Y-61632033D01*
X140316142Y-61602654D01*
X140263147Y-61574747D01*
X140195265Y-61541447D01*
X140126414Y-61510215D01*
X140056663Y-61480999D01*
X139986082Y-61453748D01*
X139914741Y-61428409D01*
X139842709Y-61404931D01*
X139770056Y-61383263D01*
X139696852Y-61363351D01*
X139623166Y-61345146D01*
X139549067Y-61328595D01*
X139399912Y-61300247D01*
X139249944Y-61277894D01*
X139099719Y-61261123D01*
X134816683Y-61279842D01*
X133944359Y-61283642D01*
X133883679Y-61283913D01*
X133845067Y-70309472D01*
X129865798Y-70309472D01*
X129865798Y-45109473D01*
X134122334Y-45109473D01*
X134167916Y-48892678D01*
G37*
G36*
X145783044Y-70309472D02*
G01*
X134739096Y-70309472D01*
X134749127Y-68744816D01*
X134767945Y-66951486D01*
X134797165Y-64285323D01*
X134811348Y-61990652D01*
X137069155Y-61980132D01*
X138197936Y-61975828D01*
X139325892Y-61978171D01*
X139554307Y-62035274D01*
X139668056Y-62065003D01*
X139780582Y-62097839D01*
X139836172Y-62115965D01*
X139891200Y-62135521D01*
X139945578Y-62156723D01*
X139999221Y-62179790D01*
X140052043Y-62204938D01*
X140103959Y-62232387D01*
X140154882Y-62262352D01*
X140204727Y-62295052D01*
X140379719Y-62428429D01*
X140466764Y-62496273D01*
X140509403Y-62531124D01*
X140551160Y-62566836D01*
X140591813Y-62603593D01*
X140631144Y-62641578D01*
X140668931Y-62680972D01*
X140704954Y-62721959D01*
X140738993Y-62764720D01*
X140770828Y-62809440D01*
X140800239Y-62856299D01*
X140813967Y-62880588D01*
X140827005Y-62905481D01*
X140873197Y-62972087D01*
X140916923Y-63043363D01*
X140996631Y-63198742D01*
X141065448Y-63369259D01*
X141122692Y-63552556D01*
X141167680Y-63746272D01*
X141199728Y-63948049D01*
X141218156Y-64155527D01*
X141222280Y-64366346D01*
X141211417Y-64578147D01*
X141184886Y-64788571D01*
X141142004Y-64995258D01*
X141114218Y-65096463D01*
X141082088Y-65195849D01*
X141045529Y-65293122D01*
X141004455Y-65387985D01*
X140958782Y-65480145D01*
X140908424Y-65569307D01*
X140853296Y-65655175D01*
X140793312Y-65737454D01*
X140728387Y-65815850D01*
X140658435Y-65890067D01*
X140628542Y-65928047D01*
X140596437Y-65963468D01*
X140562312Y-65996521D01*
X140526362Y-66027397D01*
X140488781Y-66056288D01*
X140449762Y-66083386D01*
X140409500Y-66108881D01*
X140368187Y-66132966D01*
X140326018Y-66155832D01*
X140283187Y-66177669D01*
X140196311Y-66219027D01*
X140023136Y-66297831D01*
X139975178Y-66313411D01*
X139927060Y-66327748D01*
X139878782Y-66340843D01*
X139830345Y-66352696D01*
X139781749Y-66363307D01*
X139732994Y-66372676D01*
X139684081Y-66380804D01*
X139635008Y-66387690D01*
X139585777Y-66393336D01*
X139536387Y-66397740D01*
X139486839Y-66400904D01*
X139437132Y-66402828D01*
X139387268Y-66403511D01*
X139337245Y-66402955D01*
X139287064Y-66401158D01*
X139236726Y-66398122D01*
X139113764Y-66396355D01*
X138990260Y-66396750D01*
X138742681Y-66399814D01*
X138619133Y-66400377D01*
X138496099Y-66398890D01*
X138373843Y-66394300D01*
X138252629Y-66385553D01*
X138235358Y-66381590D01*
X138219696Y-66376661D01*
X138205568Y-66370811D01*
X138192901Y-66364083D01*
X138181621Y-66356522D01*
X138171656Y-66348171D01*
X138162930Y-66339075D01*
X138155372Y-66329279D01*
X138148906Y-66318826D01*
X138143460Y-66307761D01*
X138138960Y-66296127D01*
X138135333Y-66283970D01*
X138132504Y-66271333D01*
X138130401Y-66258260D01*
X138128076Y-66230984D01*
X138127769Y-66202497D01*
X138128893Y-66173151D01*
X138133075Y-66113299D01*
X138134958Y-66083501D01*
X138135916Y-66054258D01*
X138135362Y-66025925D01*
X138132706Y-65998855D01*
X138132706Y-64144153D01*
X138143183Y-64129587D01*
X138154275Y-64116509D01*
X138165952Y-64104846D01*
X138178184Y-64094524D01*
X138190941Y-64085472D01*
X138204192Y-64077617D01*
X138217909Y-64070885D01*
X138232059Y-64065204D01*
X138246615Y-64060501D01*
X138261544Y-64056703D01*
X138276818Y-64053738D01*
X138292406Y-64051533D01*
X138324403Y-64049110D01*
X138357296Y-64048853D01*
X138390843Y-64050180D01*
X138424804Y-64052508D01*
X138493003Y-64057838D01*
X138526759Y-64059676D01*
X138559966Y-64060186D01*
X138592382Y-64058786D01*
X138623767Y-64054893D01*
X138660417Y-64057308D01*
X138697341Y-64058243D01*
X138734479Y-64058027D01*
X138771768Y-64056988D01*
X138921229Y-64051187D01*
X138958366Y-64050970D01*
X138995291Y-64051904D01*
X139031942Y-64054319D01*
X139068258Y-64058543D01*
X139104180Y-64064905D01*
X139139646Y-64073734D01*
X139174594Y-64085359D01*
X139191856Y-64092323D01*
X139208966Y-64100109D01*
X139208966Y-65282353D01*
X139248703Y-65279560D01*
X139289062Y-65278799D01*
X139329877Y-65279529D01*
X139370982Y-65281209D01*
X139453399Y-65285253D01*
X139494379Y-65286536D01*
X139534987Y-65286604D01*
X139575056Y-65284918D01*
X139614421Y-65280935D01*
X139652915Y-65274116D01*
X139671784Y-65269474D01*
X139690374Y-65263919D01*
X139708663Y-65257384D01*
X139726631Y-65249803D01*
X139744257Y-65241106D01*
X139761520Y-65231227D01*
X139778400Y-65220097D01*
X139794876Y-65207650D01*
X139810928Y-65193817D01*
X139826534Y-65178532D01*
X139854682Y-65160495D01*
X139881832Y-65139153D01*
X139907959Y-65114687D01*
X139933037Y-65087275D01*
X139957043Y-65057098D01*
X139979951Y-65024335D01*
X140022370Y-64951771D01*
X140060096Y-64871021D01*
X140092926Y-64783523D01*
X140120659Y-64690716D01*
X140143096Y-64594036D01*
X140160034Y-64494923D01*
X140171274Y-64394814D01*
X140176614Y-64295146D01*
X140175853Y-64197359D01*
X140168790Y-64102890D01*
X140155225Y-64013177D01*
X140134957Y-63929657D01*
X140122246Y-63890670D01*
X140107785Y-63853770D01*
X140101987Y-63829763D01*
X140095385Y-63806173D01*
X140088008Y-63782989D01*
X140079887Y-63760200D01*
X140071050Y-63737794D01*
X140061526Y-63715759D01*
X140040537Y-63672759D01*
X140017154Y-63631107D01*
X139991612Y-63590711D01*
X139964145Y-63551480D01*
X139934990Y-63513322D01*
X139904379Y-63476145D01*
X139872548Y-63439857D01*
X139839732Y-63404367D01*
X139806166Y-63369581D01*
X139737720Y-63301758D01*
X139669088Y-63235654D01*
X139595816Y-63201834D01*
X139522757Y-63167016D01*
X139449404Y-63133531D01*
X139412459Y-63118016D01*
X139375250Y-63103708D01*
X139337713Y-63090898D01*
X139299786Y-63079877D01*
X139261406Y-63070936D01*
X139222507Y-63064366D01*
X139183028Y-63060459D01*
X139142904Y-63059506D01*
X139122581Y-63060228D01*
X139102073Y-63061798D01*
X139081372Y-63064252D01*
X139060471Y-63067626D01*
X135868611Y-63046558D01*
X135850069Y-69360550D01*
X144773264Y-69360550D01*
X144773264Y-46058304D01*
X136076248Y-46058304D01*
X136079052Y-47058502D01*
X137953108Y-47079663D01*
X139827169Y-47100914D01*
X140142600Y-47162138D01*
X140458036Y-47223362D01*
X140699221Y-47302220D01*
X140940498Y-47380897D01*
X141169475Y-47493126D01*
X141229962Y-47522896D01*
X141289380Y-47553011D01*
X141347573Y-47584160D01*
X141376163Y-47600339D01*
X141404388Y-47617035D01*
X141432230Y-47634336D01*
X141459670Y-47652328D01*
X141486688Y-47671097D01*
X141513264Y-47690729D01*
X141539380Y-47711311D01*
X141565017Y-47732929D01*
X141590154Y-47755670D01*
X141614772Y-47779620D01*
X141668290Y-47824531D01*
X141721630Y-47872539D01*
X141774577Y-47923462D01*
X141826916Y-47977120D01*
X141878433Y-48033331D01*
X141928910Y-48091913D01*
X141978134Y-48152685D01*
X142025889Y-48215466D01*
X142071959Y-48280074D01*
X142116129Y-48346327D01*
X142158185Y-48414044D01*
X142197909Y-48483044D01*
X142235088Y-48553146D01*
X142269506Y-48624166D01*
X142300948Y-48695926D01*
X142329197Y-48768242D01*
X142446041Y-49049581D01*
X142526705Y-49337251D01*
X142607372Y-49624921D01*
X142619311Y-53971349D01*
X142631247Y-58317865D01*
X142588469Y-58369594D01*
X142545608Y-58421322D01*
X133106583Y-58421322D01*
X133062000Y-58376739D01*
X133017507Y-58332155D01*
X133017507Y-57431978D01*
X133062000Y-57387392D01*
X133106583Y-57342718D01*
X141515657Y-57342718D01*
X141515657Y-49804161D01*
X141442226Y-49516491D01*
X141368793Y-49228821D01*
X141267507Y-49042256D01*
X141166223Y-48855692D01*
X141021530Y-48710636D01*
X140876742Y-48565580D01*
X140648758Y-48453623D01*
X140420956Y-48341666D01*
X140086892Y-48261361D01*
X139752925Y-48181146D01*
X137380208Y-48159080D01*
X134945552Y-48137919D01*
X134946824Y-46623700D01*
X134955683Y-45109473D01*
X145783044Y-45109473D01*
X145783044Y-70309472D01*
G37*
D12*
X151256428Y-36021428D02*
X150256428Y-36021428D01*
X151827857Y-35664285D02*
X150756428Y-35307142D01*
X150756428Y-36235714D01*
X151756428Y-37092857D02*
X151756428Y-37235714D01*
X151685000Y-37378571D01*
X151613571Y-37450000D01*
X151470714Y-37521428D01*
X151185000Y-37592857D01*
X150827857Y-37592857D01*
X150542142Y-37521428D01*
X150399285Y-37450000D01*
X150327857Y-37378571D01*
X150256428Y-37235714D01*
X150256428Y-37092857D01*
X150327857Y-36950000D01*
X150399285Y-36878571D01*
X150542142Y-36807142D01*
X150827857Y-36735714D01*
X151185000Y-36735714D01*
X151470714Y-36807142D01*
X151613571Y-36878571D01*
X151685000Y-36950000D01*
X151756428Y-37092857D01*
D13*
X114321047Y-58156095D02*
X114321047Y-59584666D01*
X111821047Y-58870380D02*
X114321047Y-58870380D01*
X111821047Y-60418000D02*
X114321047Y-60418000D01*
X111821047Y-61489428D02*
X113130571Y-61489428D01*
X113368666Y-61370380D01*
X113487714Y-61132285D01*
X113487714Y-60775142D01*
X113368666Y-60537047D01*
X113249619Y-60418000D01*
X111821047Y-63751333D02*
X113130571Y-63751333D01*
X113368666Y-63632285D01*
X113487714Y-63394190D01*
X113487714Y-62918000D01*
X113368666Y-62679904D01*
X111940095Y-63751333D02*
X111821047Y-63513238D01*
X111821047Y-62918000D01*
X111940095Y-62679904D01*
X112178190Y-62560857D01*
X112416285Y-62560857D01*
X112654380Y-62679904D01*
X112773428Y-62918000D01*
X112773428Y-63513238D01*
X112892476Y-63751333D01*
X113487714Y-64941809D02*
X111821047Y-64941809D01*
X113249619Y-64941809D02*
X113368666Y-65060857D01*
X113487714Y-65298952D01*
X113487714Y-65656095D01*
X113368666Y-65894190D01*
X113130571Y-66013238D01*
X111821047Y-66013238D01*
X111821047Y-67203714D02*
X114321047Y-67203714D01*
X112773428Y-67441809D02*
X111821047Y-68156095D01*
X113487714Y-68156095D02*
X112535333Y-67203714D01*
X111940095Y-69108476D02*
X111821047Y-69346571D01*
X111821047Y-69822761D01*
X111940095Y-70060857D01*
X112178190Y-70179904D01*
X112297238Y-70179904D01*
X112535333Y-70060857D01*
X112654380Y-69822761D01*
X112654380Y-69465619D01*
X112773428Y-69227523D01*
X113011523Y-69108476D01*
X113130571Y-69108476D01*
X113368666Y-69227523D01*
X113487714Y-69465619D01*
X113487714Y-69822761D01*
X113368666Y-70060857D01*
X113487714Y-72798952D02*
X113487714Y-73751333D01*
X114321047Y-73156095D02*
X112178190Y-73156095D01*
X111940095Y-73275142D01*
X111821047Y-73513238D01*
X111821047Y-73751333D01*
X111821047Y-74941809D02*
X111940095Y-74703714D01*
X112059142Y-74584666D01*
X112297238Y-74465619D01*
X113011523Y-74465619D01*
X113249619Y-74584666D01*
X113368666Y-74703714D01*
X113487714Y-74941809D01*
X113487714Y-75298952D01*
X113368666Y-75537047D01*
X113249619Y-75656095D01*
X113011523Y-75775142D01*
X112297238Y-75775142D01*
X112059142Y-75656095D01*
X111940095Y-75537047D01*
X111821047Y-75298952D01*
X111821047Y-74941809D01*
X112059142Y-76846571D02*
X111940095Y-76965619D01*
X111821047Y-76846571D01*
X111940095Y-76727523D01*
X112059142Y-76846571D01*
X111821047Y-76846571D01*
X113368666Y-76846571D02*
X113249619Y-76965619D01*
X113130571Y-76846571D01*
X113249619Y-76727523D01*
X113368666Y-76846571D01*
X113130571Y-76846571D01*
X107796047Y-58513238D02*
X110296047Y-58513238D01*
X107796047Y-59584666D02*
X109105571Y-59584666D01*
X109343666Y-59465619D01*
X109462714Y-59227523D01*
X109462714Y-58870380D01*
X109343666Y-58632285D01*
X109224619Y-58513238D01*
X107796047Y-61132285D02*
X107915095Y-60894190D01*
X108034142Y-60775142D01*
X108272238Y-60656095D01*
X108986523Y-60656095D01*
X109224619Y-60775142D01*
X109343666Y-60894190D01*
X109462714Y-61132285D01*
X109462714Y-61489428D01*
X109343666Y-61727523D01*
X109224619Y-61846571D01*
X108986523Y-61965619D01*
X108272238Y-61965619D01*
X108034142Y-61846571D01*
X107915095Y-61727523D01*
X107796047Y-61489428D01*
X107796047Y-61132285D01*
X109462714Y-64108476D02*
X107438904Y-64108476D01*
X107200809Y-63989428D01*
X107081761Y-63870380D01*
X106962714Y-63632285D01*
X106962714Y-63275142D01*
X107081761Y-63037047D01*
X107915095Y-64108476D02*
X107796047Y-63870380D01*
X107796047Y-63394190D01*
X107915095Y-63156095D01*
X108034142Y-63037047D01*
X108272238Y-62918000D01*
X108986523Y-62918000D01*
X109224619Y-63037047D01*
X109343666Y-63156095D01*
X109462714Y-63394190D01*
X109462714Y-63870380D01*
X109343666Y-64108476D01*
X107796047Y-65656095D02*
X107915095Y-65418000D01*
X108153190Y-65298952D01*
X110296047Y-65298952D01*
X107915095Y-67560857D02*
X107796047Y-67322761D01*
X107796047Y-66846571D01*
X107915095Y-66608476D01*
X108153190Y-66489428D01*
X109105571Y-66489428D01*
X109343666Y-66608476D01*
X109462714Y-66846571D01*
X109462714Y-67322761D01*
X109343666Y-67560857D01*
X109105571Y-67679904D01*
X108867476Y-67679904D01*
X108629380Y-66489428D01*
X109462714Y-68394190D02*
X109462714Y-69346571D01*
X110296047Y-68751333D02*
X108153190Y-68751333D01*
X107915095Y-68870380D01*
X107796047Y-69108476D01*
X107796047Y-69346571D01*
X103771047Y-59584666D02*
X106271047Y-59584666D01*
X103890095Y-59584666D02*
X103771047Y-59346571D01*
X103771047Y-58870380D01*
X103890095Y-58632285D01*
X104009142Y-58513238D01*
X104247238Y-58394190D01*
X104961523Y-58394190D01*
X105199619Y-58513238D01*
X105318666Y-58632285D01*
X105437714Y-58870380D01*
X105437714Y-59346571D01*
X105318666Y-59584666D01*
X105437714Y-60775142D02*
X102937714Y-60775142D01*
X105318666Y-60775142D02*
X105437714Y-61013238D01*
X105437714Y-61489428D01*
X105318666Y-61727523D01*
X105199619Y-61846571D01*
X104961523Y-61965619D01*
X104247238Y-61965619D01*
X104009142Y-61846571D01*
X103890095Y-61727523D01*
X103771047Y-61489428D01*
X103771047Y-61013238D01*
X103890095Y-60775142D01*
X103771047Y-64346571D02*
X103771047Y-62918000D01*
X103771047Y-63632285D02*
X106271047Y-63632285D01*
X105913904Y-63394190D01*
X105675809Y-63156095D01*
X105556761Y-62918000D01*
X103771047Y-66727523D02*
X103771047Y-65298952D01*
X103771047Y-66013238D02*
X106271047Y-66013238D01*
X105913904Y-65775142D01*
X105675809Y-65537047D01*
X105556761Y-65298952D01*
X103771047Y-69108476D02*
X103771047Y-67679904D01*
X103771047Y-68394190D02*
X106271047Y-68394190D01*
X105913904Y-68156095D01*
X105675809Y-67918000D01*
X105556761Y-67679904D01*
X101412714Y-58513238D02*
X99269857Y-58513238D01*
X99031761Y-58394190D01*
X98912714Y-58156095D01*
X98912714Y-58037047D01*
X102246047Y-58513238D02*
X102127000Y-58394190D01*
X102007952Y-58513238D01*
X102127000Y-58632285D01*
X102246047Y-58513238D01*
X102007952Y-58513238D01*
X101412714Y-60775142D02*
X99388904Y-60775142D01*
X99150809Y-60656095D01*
X99031761Y-60537047D01*
X98912714Y-60298952D01*
X98912714Y-59941809D01*
X99031761Y-59703714D01*
X99865095Y-60775142D02*
X99746047Y-60537047D01*
X99746047Y-60060857D01*
X99865095Y-59822761D01*
X99984142Y-59703714D01*
X100222238Y-59584666D01*
X100936523Y-59584666D01*
X101174619Y-59703714D01*
X101293666Y-59822761D01*
X101412714Y-60060857D01*
X101412714Y-60537047D01*
X101293666Y-60775142D01*
X99746047Y-61965619D02*
X102246047Y-61965619D01*
X99746047Y-63037047D02*
X101055571Y-63037047D01*
X101293666Y-62918000D01*
X101412714Y-62679904D01*
X101412714Y-62322761D01*
X101293666Y-62084666D01*
X101174619Y-61965619D01*
X99746047Y-65298952D02*
X101055571Y-65298952D01*
X101293666Y-65179904D01*
X101412714Y-64941809D01*
X101412714Y-64465619D01*
X101293666Y-64227523D01*
X99865095Y-65298952D02*
X99746047Y-65060857D01*
X99746047Y-64465619D01*
X99865095Y-64227523D01*
X100103190Y-64108476D01*
X100341285Y-64108476D01*
X100579380Y-64227523D01*
X100698428Y-64465619D01*
X100698428Y-65060857D01*
X100817476Y-65298952D01*
X99746047Y-66489428D02*
X101412714Y-66489428D01*
X100936523Y-66489428D02*
X101174619Y-66608476D01*
X101293666Y-66727523D01*
X101412714Y-66965619D01*
X101412714Y-67203714D01*
X99865095Y-67918000D02*
X99746047Y-68156095D01*
X99746047Y-68632285D01*
X99865095Y-68870380D01*
X100103190Y-68989428D01*
X100222238Y-68989428D01*
X100460333Y-68870380D01*
X100579380Y-68632285D01*
X100579380Y-68275142D01*
X100698428Y-68037047D01*
X100936523Y-67918000D01*
X101055571Y-67918000D01*
X101293666Y-68037047D01*
X101412714Y-68275142D01*
X101412714Y-68632285D01*
X101293666Y-68870380D01*
X101412714Y-69703714D02*
X101412714Y-70656095D01*
X102246047Y-70060857D02*
X100103190Y-70060857D01*
X99865095Y-70179904D01*
X99746047Y-70418000D01*
X99746047Y-70656095D01*
X99746047Y-71846571D02*
X99865095Y-71608476D01*
X99984142Y-71489428D01*
X100222238Y-71370380D01*
X100936523Y-71370380D01*
X101174619Y-71489428D01*
X101293666Y-71608476D01*
X101412714Y-71846571D01*
X101412714Y-72203714D01*
X101293666Y-72441809D01*
X101174619Y-72560857D01*
X100936523Y-72679904D01*
X100222238Y-72679904D01*
X99984142Y-72560857D01*
X99865095Y-72441809D01*
X99746047Y-72203714D01*
X99746047Y-71846571D01*
X101412714Y-73751333D02*
X99746047Y-73751333D01*
X101174619Y-73751333D02*
X101293666Y-73870380D01*
X101412714Y-74108476D01*
X101412714Y-74465619D01*
X101293666Y-74703714D01*
X101055571Y-74822761D01*
X99746047Y-74822761D01*
X95840095Y-58394190D02*
X95721047Y-58632285D01*
X95721047Y-59108476D01*
X95840095Y-59346571D01*
X96078190Y-59465619D01*
X96197238Y-59465619D01*
X96435333Y-59346571D01*
X96554380Y-59108476D01*
X96554380Y-58751333D01*
X96673428Y-58513238D01*
X96911523Y-58394190D01*
X97030571Y-58394190D01*
X97268666Y-58513238D01*
X97387714Y-58751333D01*
X97387714Y-59108476D01*
X97268666Y-59346571D01*
X97387714Y-60537047D02*
X94887714Y-60537047D01*
X97268666Y-60537047D02*
X97387714Y-60775142D01*
X97387714Y-61251333D01*
X97268666Y-61489428D01*
X97149619Y-61608476D01*
X96911523Y-61727523D01*
X96197238Y-61727523D01*
X95959142Y-61608476D01*
X95840095Y-61489428D01*
X95721047Y-61251333D01*
X95721047Y-60775142D01*
X95840095Y-60537047D01*
X95721047Y-62798952D02*
X97387714Y-62798952D01*
X96911523Y-62798952D02*
X97149619Y-62918000D01*
X97268666Y-63037047D01*
X97387714Y-63275142D01*
X97387714Y-63513238D01*
X95721047Y-64703714D02*
X95840095Y-64465619D01*
X95959142Y-64346571D01*
X96197238Y-64227523D01*
X96911523Y-64227523D01*
X97149619Y-64346571D01*
X97268666Y-64465619D01*
X97387714Y-64703714D01*
X97387714Y-65060857D01*
X97268666Y-65298952D01*
X97149619Y-65418000D01*
X96911523Y-65537047D01*
X96197238Y-65537047D01*
X95959142Y-65418000D01*
X95840095Y-65298952D01*
X95721047Y-65060857D01*
X95721047Y-64703714D01*
X97387714Y-66370380D02*
X95721047Y-66846571D01*
X96911523Y-67322761D01*
X95721047Y-67798952D01*
X97387714Y-68275142D01*
D12*
X152796428Y-100078571D02*
X152796428Y-99221428D01*
X152796428Y-99650000D02*
X154296428Y-99650000D01*
X154082142Y-99507142D01*
X153939285Y-99364285D01*
X153867857Y-99221428D01*
X83771428Y-93659623D02*
X83771428Y-92802480D01*
X83771428Y-93231052D02*
X85271428Y-93231052D01*
X85057142Y-93088194D01*
X84914285Y-92945337D01*
X84842857Y-92802480D01*
D14*
X144942166Y-107559333D02*
X141442166Y-108392666D01*
X143942166Y-109059333D01*
X141442166Y-109726000D01*
X144942166Y-110559333D01*
X141442166Y-111892666D02*
X143775500Y-111892666D01*
X144942166Y-111892666D02*
X144775500Y-111726000D01*
X144608833Y-111892666D01*
X144775500Y-112059333D01*
X144942166Y-111892666D01*
X144608833Y-111892666D01*
X143775500Y-113559333D02*
X141442166Y-113559333D01*
X143442166Y-113559333D02*
X143608833Y-113726000D01*
X143775500Y-114059333D01*
X143775500Y-114559333D01*
X143608833Y-114892666D01*
X143275500Y-115059333D01*
X141442166Y-115059333D01*
X141608833Y-118226000D02*
X141442166Y-117892666D01*
X141442166Y-117226000D01*
X141608833Y-116892666D01*
X141775500Y-116726000D01*
X142108833Y-116559333D01*
X143108833Y-116559333D01*
X143442166Y-116726000D01*
X143608833Y-116892666D01*
X143775500Y-117226000D01*
X143775500Y-117892666D01*
X143608833Y-118226000D01*
X141442166Y-119726000D02*
X144942166Y-119726000D01*
X141442166Y-121226000D02*
X143275500Y-121226000D01*
X143608833Y-121059333D01*
X143775500Y-120726000D01*
X143775500Y-120226000D01*
X143608833Y-119892666D01*
X143442166Y-119726000D01*
X141608833Y-124226000D02*
X141442166Y-123892666D01*
X141442166Y-123226000D01*
X141608833Y-122892666D01*
X141942166Y-122726000D01*
X143275500Y-122726000D01*
X143608833Y-122892666D01*
X143775500Y-123226000D01*
X143775500Y-123892666D01*
X143608833Y-124226000D01*
X143275500Y-124392666D01*
X142942166Y-124392666D01*
X142608833Y-122726000D01*
X141608833Y-125726000D02*
X141442166Y-126059333D01*
X141442166Y-126726000D01*
X141608833Y-127059333D01*
X141942166Y-127226000D01*
X142108833Y-127226000D01*
X142442166Y-127059333D01*
X142608833Y-126726000D01*
X142608833Y-126226000D01*
X142775500Y-125892666D01*
X143108833Y-125726000D01*
X143275500Y-125726000D01*
X143608833Y-125892666D01*
X143775500Y-126226000D01*
X143775500Y-126726000D01*
X143608833Y-127059333D01*
X143775500Y-128226000D02*
X143775500Y-129559333D01*
X144942166Y-128726000D02*
X141942166Y-128726000D01*
X141608833Y-128892666D01*
X141442166Y-129226000D01*
X141442166Y-129559333D01*
X141608833Y-132059333D02*
X141442166Y-131726000D01*
X141442166Y-131059333D01*
X141608833Y-130726000D01*
X141942166Y-130559333D01*
X143275500Y-130559333D01*
X143608833Y-130726000D01*
X143775500Y-131059333D01*
X143775500Y-131726000D01*
X143608833Y-132059333D01*
X143275500Y-132226000D01*
X142942166Y-132226000D01*
X142608833Y-130559333D01*
X141442166Y-133726000D02*
X143775500Y-133726000D01*
X143108833Y-133726000D02*
X143442166Y-133892666D01*
X143608833Y-134059333D01*
X143775500Y-134392666D01*
X143775500Y-134726000D01*
X141442166Y-135892666D02*
X144942166Y-135892666D01*
X144942166Y-137226000D01*
X144775500Y-137559333D01*
X144608833Y-137726000D01*
X144275500Y-137892666D01*
X143775500Y-137892666D01*
X143442166Y-137726000D01*
X143275500Y-137559333D01*
X143108833Y-137226000D01*
X143108833Y-135892666D01*
X141442166Y-139392666D02*
X143775500Y-139392666D01*
X143108833Y-139392666D02*
X143442166Y-139559333D01*
X143608833Y-139726000D01*
X143775500Y-140059333D01*
X143775500Y-140392666D01*
X141442166Y-142059333D02*
X141608833Y-141726000D01*
X141775500Y-141559333D01*
X142108833Y-141392666D01*
X143108833Y-141392666D01*
X143442166Y-141559333D01*
X143608833Y-141726000D01*
X143775500Y-142059333D01*
X143775500Y-142559333D01*
X143608833Y-142892666D01*
X143442166Y-143059333D01*
X143108833Y-143226000D01*
X142108833Y-143226000D01*
X141775500Y-143059333D01*
X141608833Y-142892666D01*
X141442166Y-142559333D01*
X141442166Y-142059333D01*
X135807166Y-88475999D02*
X139307166Y-88475999D01*
X137640500Y-88475999D02*
X137640500Y-90475999D01*
X135807166Y-90475999D02*
X139307166Y-90475999D01*
X135807166Y-93642666D02*
X137640500Y-93642666D01*
X137973833Y-93475999D01*
X138140500Y-93142666D01*
X138140500Y-92475999D01*
X137973833Y-92142666D01*
X135973833Y-93642666D02*
X135807166Y-93309333D01*
X135807166Y-92475999D01*
X135973833Y-92142666D01*
X136307166Y-91975999D01*
X136640500Y-91975999D01*
X136973833Y-92142666D01*
X137140500Y-92475999D01*
X137140500Y-93309333D01*
X137307166Y-93642666D01*
X135807166Y-95309333D02*
X138140500Y-95309333D01*
X137473833Y-95309333D02*
X137807166Y-95475999D01*
X137973833Y-95642666D01*
X138140500Y-95975999D01*
X138140500Y-96309333D01*
X135807166Y-98975999D02*
X139307166Y-98975999D01*
X135973833Y-98975999D02*
X135807166Y-98642666D01*
X135807166Y-97975999D01*
X135973833Y-97642666D01*
X136140500Y-97475999D01*
X136473833Y-97309333D01*
X137473833Y-97309333D01*
X137807166Y-97475999D01*
X137973833Y-97642666D01*
X138140500Y-97975999D01*
X138140500Y-98642666D01*
X137973833Y-98975999D01*
X135807166Y-103309333D02*
X139307166Y-103309333D01*
X139307166Y-104142666D01*
X139140500Y-104642666D01*
X138807166Y-104975999D01*
X138473833Y-105142666D01*
X137807166Y-105309333D01*
X137307166Y-105309333D01*
X136640500Y-105142666D01*
X136307166Y-104975999D01*
X135973833Y-104642666D01*
X135807166Y-104142666D01*
X135807166Y-103309333D01*
X135807166Y-106809333D02*
X138140500Y-106809333D01*
X137473833Y-106809333D02*
X137807166Y-106975999D01*
X137973833Y-107142666D01*
X138140500Y-107475999D01*
X138140500Y-107809333D01*
X135807166Y-108975999D02*
X138140500Y-108975999D01*
X139307166Y-108975999D02*
X139140500Y-108809333D01*
X138973833Y-108975999D01*
X139140500Y-109142666D01*
X139307166Y-108975999D01*
X138973833Y-108975999D01*
X138140500Y-110309333D02*
X135807166Y-111142666D01*
X138140500Y-111975999D01*
X135973833Y-114642666D02*
X135807166Y-114309333D01*
X135807166Y-113642666D01*
X135973833Y-113309333D01*
X136307166Y-113142666D01*
X137640500Y-113142666D01*
X137973833Y-113309333D01*
X138140500Y-113642666D01*
X138140500Y-114309333D01*
X137973833Y-114642666D01*
X137640500Y-114809333D01*
X137307166Y-114809333D01*
X136973833Y-113142666D01*
X135807166Y-121809333D02*
X135807166Y-121642666D01*
X135973833Y-121309333D01*
X136473833Y-120809333D01*
X137473833Y-119975999D01*
X137973833Y-119642666D01*
X138473833Y-119475999D01*
X138807166Y-119475999D01*
X139140500Y-119642666D01*
X139307166Y-119975999D01*
X139307166Y-120142666D01*
X139140500Y-120475999D01*
X138807166Y-120642666D01*
X138640500Y-120642666D01*
X138307166Y-120475999D01*
X138140500Y-120309333D01*
X137473833Y-119309333D01*
X137307166Y-119142666D01*
X136973833Y-118975999D01*
X136473833Y-118975999D01*
X136140500Y-119142666D01*
X135973833Y-119309333D01*
X135807166Y-119642666D01*
X135807166Y-120142666D01*
X135973833Y-120475999D01*
X136140500Y-120642666D01*
X136807166Y-121142666D01*
X137307166Y-121309333D01*
X137640500Y-121309333D01*
X138973833Y-125809333D02*
X139140500Y-125976000D01*
X139307166Y-126309333D01*
X139307166Y-127142666D01*
X139140500Y-127476000D01*
X138973833Y-127642666D01*
X138640500Y-127809333D01*
X138307166Y-127809333D01*
X137807166Y-127642666D01*
X135807166Y-125642666D01*
X135807166Y-127809333D01*
X138140500Y-129309333D02*
X135807166Y-129309333D01*
X137807166Y-129309333D02*
X137973833Y-129476000D01*
X138140500Y-129809333D01*
X138140500Y-130309333D01*
X137973833Y-130642666D01*
X137640500Y-130809333D01*
X135807166Y-130809333D01*
X135807166Y-133976000D02*
X139307166Y-133976000D01*
X135973833Y-133976000D02*
X135807166Y-133642666D01*
X135807166Y-132976000D01*
X135973833Y-132642666D01*
X136140500Y-132476000D01*
X136473833Y-132309333D01*
X137473833Y-132309333D01*
X137807166Y-132476000D01*
X137973833Y-132642666D01*
X138140500Y-132976000D01*
X138140500Y-133642666D01*
X137973833Y-133976000D01*
X135807166Y-138309333D02*
X139307166Y-138309333D01*
X139307166Y-139642666D01*
X139140500Y-139976000D01*
X138973833Y-140142666D01*
X138640500Y-140309333D01*
X138140500Y-140309333D01*
X137807166Y-140142666D01*
X137640500Y-139976000D01*
X137473833Y-139642666D01*
X137473833Y-138309333D01*
X135807166Y-141809333D02*
X138140500Y-141809333D01*
X137473833Y-141809333D02*
X137807166Y-141976000D01*
X137973833Y-142142666D01*
X138140500Y-142476000D01*
X138140500Y-142809333D01*
X135807166Y-144476000D02*
X135973833Y-144142666D01*
X136140500Y-143976000D01*
X136473833Y-143809333D01*
X137473833Y-143809333D01*
X137807166Y-143976000D01*
X137973833Y-144142666D01*
X138140500Y-144476000D01*
X138140500Y-144976000D01*
X137973833Y-145309333D01*
X137807166Y-145476000D01*
X137473833Y-145642666D01*
X136473833Y-145642666D01*
X136140500Y-145476000D01*
X135973833Y-145309333D01*
X135807166Y-144976000D01*
X135807166Y-144476000D01*
X135973833Y-148642666D02*
X135807166Y-148309333D01*
X135807166Y-147642666D01*
X135973833Y-147309333D01*
X136140500Y-147142666D01*
X136473833Y-146975999D01*
X137473833Y-146975999D01*
X137807166Y-147142666D01*
X137973833Y-147309333D01*
X138140500Y-147642666D01*
X138140500Y-148309333D01*
X137973833Y-148642666D01*
X135973833Y-151475999D02*
X135807166Y-151142666D01*
X135807166Y-150475999D01*
X135973833Y-150142666D01*
X136307166Y-149975999D01*
X137640500Y-149975999D01*
X137973833Y-150142666D01*
X138140500Y-150475999D01*
X138140500Y-151142666D01*
X137973833Y-151475999D01*
X137640500Y-151642666D01*
X137307166Y-151642666D01*
X136973833Y-149975999D01*
X135973833Y-152975999D02*
X135807166Y-153309333D01*
X135807166Y-153975999D01*
X135973833Y-154309333D01*
X136307166Y-154475999D01*
X136473833Y-154475999D01*
X136807166Y-154309333D01*
X136973833Y-153975999D01*
X136973833Y-153475999D01*
X137140500Y-153142666D01*
X137473833Y-152975999D01*
X137640500Y-152975999D01*
X137973833Y-153142666D01*
X138140500Y-153475999D01*
X138140500Y-153975999D01*
X137973833Y-154309333D01*
X135973833Y-155809333D02*
X135807166Y-156142666D01*
X135807166Y-156809333D01*
X135973833Y-157142666D01*
X136307166Y-157309333D01*
X136473833Y-157309333D01*
X136807166Y-157142666D01*
X136973833Y-156809333D01*
X136973833Y-156309333D01*
X137140500Y-155975999D01*
X137473833Y-155809333D01*
X137640500Y-155809333D01*
X137973833Y-155975999D01*
X138140500Y-156309333D01*
X138140500Y-156809333D01*
X137973833Y-157142666D01*
X135807166Y-159309333D02*
X135973833Y-158975999D01*
X136140500Y-158809333D01*
X136473833Y-158642666D01*
X137473833Y-158642666D01*
X137807166Y-158809333D01*
X137973833Y-158975999D01*
X138140500Y-159309333D01*
X138140500Y-159809333D01*
X137973833Y-160142666D01*
X137807166Y-160309333D01*
X137473833Y-160475999D01*
X136473833Y-160475999D01*
X136140500Y-160309333D01*
X135973833Y-160142666D01*
X135807166Y-159809333D01*
X135807166Y-159309333D01*
X135807166Y-161975999D02*
X138140500Y-161975999D01*
X137473833Y-161975999D02*
X137807166Y-162142666D01*
X137973833Y-162309333D01*
X138140500Y-162642666D01*
X138140500Y-162975999D01*
D12*
X103050000Y-178168571D02*
X103121428Y-178025714D01*
X103121428Y-177811429D01*
X103050000Y-177597143D01*
X102907142Y-177454286D01*
X102764285Y-177382857D01*
X102478571Y-177311429D01*
X102264285Y-177311429D01*
X101978571Y-177382857D01*
X101835714Y-177454286D01*
X101692857Y-177597143D01*
X101621428Y-177811429D01*
X101621428Y-177954286D01*
X101692857Y-178168571D01*
X101764285Y-178240000D01*
X102264285Y-178240000D01*
X102264285Y-177954286D01*
X101621428Y-178882857D02*
X103121428Y-178882857D01*
X101621428Y-179740000D01*
X103121428Y-179740000D01*
X101621428Y-180454286D02*
X103121428Y-180454286D01*
X103121428Y-180811429D01*
X103050000Y-181025714D01*
X102907142Y-181168571D01*
X102764285Y-181240000D01*
X102478571Y-181311429D01*
X102264285Y-181311429D01*
X101978571Y-181240000D01*
X101835714Y-181168571D01*
X101692857Y-181025714D01*
X101621428Y-180811429D01*
X101621428Y-180454286D01*
D13*
X121391726Y-26425238D02*
X121391726Y-28425238D01*
X120629821Y-28425238D01*
X120439345Y-28330000D01*
X120344107Y-28234761D01*
X120248869Y-28044285D01*
X120248869Y-27758571D01*
X120344107Y-27568095D01*
X120439345Y-27472857D01*
X120629821Y-27377619D01*
X121391726Y-27377619D01*
X119582202Y-28425238D02*
X119106012Y-26425238D01*
X118725060Y-27853809D01*
X118344107Y-26425238D01*
X117867917Y-28425238D01*
X115963155Y-26425238D02*
X116629821Y-27377619D01*
X117106012Y-26425238D02*
X117106012Y-28425238D01*
X116344107Y-28425238D01*
X116153631Y-28330000D01*
X116058393Y-28234761D01*
X115963155Y-28044285D01*
X115963155Y-27758571D01*
X116058393Y-27568095D01*
X116153631Y-27472857D01*
X116344107Y-27377619D01*
X117106012Y-27377619D01*
D12*
X152546428Y-168518571D02*
X152546428Y-167661428D01*
X152546428Y-168090000D02*
X154046428Y-168090000D01*
X153832142Y-167947142D01*
X153689285Y-167804285D01*
X153617857Y-167661428D01*
X108201428Y-179954285D02*
X108201428Y-179240000D01*
X107487142Y-179168571D01*
X107558571Y-179240000D01*
X107630000Y-179382857D01*
X107630000Y-179740000D01*
X107558571Y-179882857D01*
X107487142Y-179954285D01*
X107344285Y-180025714D01*
X106987142Y-180025714D01*
X106844285Y-179954285D01*
X106772857Y-179882857D01*
X106701428Y-179740000D01*
X106701428Y-179382857D01*
X106772857Y-179240000D01*
X106844285Y-179168571D01*
X108201428Y-180454285D02*
X106701428Y-180954285D01*
X108201428Y-181454285D01*
X99388571Y-49714285D02*
X99388571Y-50428571D01*
X97888571Y-50428571D01*
X98602857Y-49214285D02*
X98602857Y-48714285D01*
X99388571Y-48500000D02*
X99388571Y-49214285D01*
X97888571Y-49214285D01*
X97888571Y-48500000D01*
X99388571Y-47857142D02*
X97888571Y-47857142D01*
X97888571Y-47500000D01*
X97960000Y-47285714D01*
X98102857Y-47142857D01*
X98245714Y-47071428D01*
X98531428Y-47000000D01*
X98745714Y-47000000D01*
X99031428Y-47071428D01*
X99174285Y-47142857D01*
X99317142Y-47285714D01*
X99388571Y-47500000D01*
X99388571Y-47857142D01*
X133545714Y-186358571D02*
X134402857Y-186358571D01*
X133974285Y-187858571D02*
X133974285Y-186358571D01*
X134902857Y-186358571D02*
X134902857Y-187572857D01*
X134974285Y-187715714D01*
X135045714Y-187787142D01*
X135188571Y-187858571D01*
X135474285Y-187858571D01*
X135617142Y-187787142D01*
X135688571Y-187715714D01*
X135760000Y-187572857D01*
X135760000Y-186358571D01*
X136974285Y-187072857D02*
X137188571Y-187144285D01*
X137260000Y-187215714D01*
X137331428Y-187358571D01*
X137331428Y-187572857D01*
X137260000Y-187715714D01*
X137188571Y-187787142D01*
X137045714Y-187858571D01*
X136474285Y-187858571D01*
X136474285Y-186358571D01*
X136974285Y-186358571D01*
X137117142Y-186430000D01*
X137188571Y-186501428D01*
X137260000Y-186644285D01*
X137260000Y-186787142D01*
X137188571Y-186930000D01*
X137117142Y-187001428D01*
X136974285Y-187072857D01*
X136474285Y-187072857D01*
X137974285Y-187072857D02*
X138474285Y-187072857D01*
X138688571Y-187858571D02*
X137974285Y-187858571D01*
X137974285Y-186358571D01*
X138688571Y-186358571D01*
X140474285Y-187858571D02*
X140474285Y-186358571D01*
X141045714Y-186358571D01*
X141188571Y-186430000D01*
X141260000Y-186501428D01*
X141331428Y-186644285D01*
X141331428Y-186858571D01*
X141260000Y-187001428D01*
X141188571Y-187072857D01*
X141045714Y-187144285D01*
X140474285Y-187144285D01*
X141831428Y-186358571D02*
X142188571Y-187858571D01*
X142474285Y-186787142D01*
X142760000Y-187858571D01*
X143117142Y-186358571D01*
X144545714Y-187858571D02*
X144045714Y-187144285D01*
X143688571Y-187858571D02*
X143688571Y-186358571D01*
X144260000Y-186358571D01*
X144402857Y-186430000D01*
X144474285Y-186501428D01*
X144545714Y-186644285D01*
X144545714Y-186858571D01*
X144474285Y-187001428D01*
X144402857Y-187072857D01*
X144260000Y-187144285D01*
X143688571Y-187144285D01*
X145402857Y-187715714D02*
X145474285Y-187787142D01*
X145402857Y-187858571D01*
X145331428Y-187787142D01*
X145402857Y-187715714D01*
X145402857Y-187858571D01*
X145117142Y-186430000D02*
X145260000Y-186358571D01*
X145617142Y-186358571D01*
X145760000Y-186430000D01*
X145831428Y-186572857D01*
X145831428Y-186715714D01*
X145760000Y-186858571D01*
X145688571Y-186930000D01*
X145545714Y-187001428D01*
X145474285Y-187072857D01*
X145402857Y-187215714D01*
X145402857Y-187287142D01*
D13*
X103365833Y-28425238D02*
X102222976Y-28425238D01*
X102794404Y-26425238D02*
X102794404Y-28425238D01*
X101556309Y-28425238D02*
X101556309Y-26806190D01*
X101461071Y-26615714D01*
X101365833Y-26520476D01*
X101175357Y-26425238D01*
X100794404Y-26425238D01*
X100603928Y-26520476D01*
X100508690Y-26615714D01*
X100413452Y-26806190D01*
X100413452Y-28425238D01*
X98794404Y-27472857D02*
X98508690Y-27377619D01*
X98413452Y-27282380D01*
X98318214Y-27091904D01*
X98318214Y-26806190D01*
X98413452Y-26615714D01*
X98508690Y-26520476D01*
X98699166Y-26425238D01*
X99461071Y-26425238D01*
X99461071Y-28425238D01*
X98794404Y-28425238D01*
X98603928Y-28330000D01*
X98508690Y-28234761D01*
X98413452Y-28044285D01*
X98413452Y-27853809D01*
X98508690Y-27663333D01*
X98603928Y-27568095D01*
X98794404Y-27472857D01*
X99461071Y-27472857D01*
X97461071Y-27472857D02*
X96794404Y-27472857D01*
X96508690Y-26425238D02*
X97461071Y-26425238D01*
X97461071Y-28425238D01*
X96508690Y-28425238D01*
D11*
X75007857Y-50233194D02*
X76436428Y-49233194D01*
X75007857Y-48518909D02*
X78007857Y-48518909D01*
X78007857Y-49661766D01*
X77865000Y-49947480D01*
X77722142Y-50090337D01*
X77436428Y-50233194D01*
X77007857Y-50233194D01*
X76722142Y-50090337D01*
X76579285Y-49947480D01*
X76436428Y-49661766D01*
X76436428Y-48518909D01*
X75007857Y-52804623D02*
X76579285Y-52804623D01*
X76865000Y-52661766D01*
X77007857Y-52376052D01*
X77007857Y-51804623D01*
X76865000Y-51518909D01*
X75150714Y-52804623D02*
X75007857Y-52518909D01*
X75007857Y-51804623D01*
X75150714Y-51518909D01*
X75436428Y-51376052D01*
X75722142Y-51376052D01*
X76007857Y-51518909D01*
X76150714Y-51804623D01*
X76150714Y-52518909D01*
X76293571Y-52804623D01*
X75150714Y-54090337D02*
X75007857Y-54376052D01*
X75007857Y-54947480D01*
X75150714Y-55233194D01*
X75436428Y-55376052D01*
X75579285Y-55376052D01*
X75865000Y-55233194D01*
X76007857Y-54947480D01*
X76007857Y-54518909D01*
X76150714Y-54233194D01*
X76436428Y-54090337D01*
X76579285Y-54090337D01*
X76865000Y-54233194D01*
X77007857Y-54518909D01*
X77007857Y-54947480D01*
X76865000Y-55233194D01*
X77007857Y-56661766D02*
X74007857Y-56661766D01*
X76865000Y-56661766D02*
X77007857Y-56947480D01*
X77007857Y-57518909D01*
X76865000Y-57804623D01*
X76722142Y-57947480D01*
X76436428Y-58090337D01*
X75579285Y-58090337D01*
X75293571Y-57947480D01*
X75150714Y-57804623D01*
X75007857Y-57518909D01*
X75007857Y-56947480D01*
X75150714Y-56661766D01*
X75007857Y-59376052D02*
X78007857Y-59376052D01*
X76865000Y-59376052D02*
X77007857Y-59661766D01*
X77007857Y-60233194D01*
X76865000Y-60518909D01*
X76722142Y-60661766D01*
X76436428Y-60804623D01*
X75579285Y-60804623D01*
X75293571Y-60661766D01*
X75150714Y-60518909D01*
X75007857Y-60233194D01*
X75007857Y-59661766D01*
X75150714Y-59376052D01*
X75150714Y-63233194D02*
X75007857Y-62947480D01*
X75007857Y-62376052D01*
X75150714Y-62090337D01*
X75436428Y-61947480D01*
X76579285Y-61947480D01*
X76865000Y-62090337D01*
X77007857Y-62376052D01*
X77007857Y-62947480D01*
X76865000Y-63233194D01*
X76579285Y-63376052D01*
X76293571Y-63376052D01*
X76007857Y-61947480D01*
X75007857Y-64661766D02*
X77007857Y-64661766D01*
X76436428Y-64661766D02*
X76722142Y-64804623D01*
X76865000Y-64947480D01*
X77007857Y-65233194D01*
X77007857Y-65518909D01*
X75007857Y-66518909D02*
X77007857Y-66518909D01*
X76436428Y-66518909D02*
X76722142Y-66661766D01*
X76865000Y-66804623D01*
X77007857Y-67090337D01*
X77007857Y-67376052D01*
X77007857Y-68090337D02*
X75007857Y-68804623D01*
X77007857Y-69518909D02*
X75007857Y-68804623D01*
X74293571Y-68518909D01*
X74150714Y-68376052D01*
X74007857Y-68090337D01*
X75007857Y-72947480D02*
X78007857Y-72947480D01*
X78007857Y-74090337D01*
X77865000Y-74376052D01*
X77722142Y-74518909D01*
X77436428Y-74661766D01*
X77007857Y-74661766D01*
X76722142Y-74518909D01*
X76579285Y-74376052D01*
X76436428Y-74090337D01*
X76436428Y-72947480D01*
X75007857Y-75947480D02*
X77007857Y-75947480D01*
X78007857Y-75947480D02*
X77865000Y-75804623D01*
X77722142Y-75947480D01*
X77865000Y-76090337D01*
X78007857Y-75947480D01*
X77722142Y-75947480D01*
X78007857Y-79376052D02*
X78007857Y-81376052D01*
X75007857Y-79376052D01*
X75007857Y-81376052D01*
X75150714Y-83661766D02*
X75007857Y-83376052D01*
X75007857Y-82804623D01*
X75150714Y-82518909D01*
X75436428Y-82376052D01*
X76579285Y-82376052D01*
X76865000Y-82518909D01*
X77007857Y-82804623D01*
X77007857Y-83376052D01*
X76865000Y-83661766D01*
X76579285Y-83804623D01*
X76293571Y-83804623D01*
X76007857Y-82376052D01*
X75007857Y-85090337D02*
X77007857Y-85090337D01*
X76436428Y-85090337D02*
X76722142Y-85233194D01*
X76865000Y-85376052D01*
X77007857Y-85661766D01*
X77007857Y-85947480D01*
X75007857Y-87376052D02*
X75150714Y-87090337D01*
X75293571Y-86947480D01*
X75579285Y-86804623D01*
X76436428Y-86804623D01*
X76722142Y-86947480D01*
X76865000Y-87090337D01*
X77007857Y-87376052D01*
X77007857Y-87804623D01*
X76865000Y-88090337D01*
X76722142Y-88233194D01*
X76436428Y-88376052D01*
X75579285Y-88376052D01*
X75293571Y-88233194D01*
X75150714Y-88090337D01*
X75007857Y-87804623D01*
X75007857Y-87376052D01*
D12*
X98795714Y-187788571D02*
X98795714Y-186288571D01*
X99367142Y-186288571D01*
X99510000Y-186360000D01*
X99581428Y-186431428D01*
X99652857Y-186574285D01*
X99652857Y-186788571D01*
X99581428Y-186931428D01*
X99510000Y-187002857D01*
X99367142Y-187074285D01*
X98795714Y-187074285D01*
X100152857Y-186288571D02*
X100510000Y-187788571D01*
X100795714Y-186717142D01*
X101081428Y-187788571D01*
X101438571Y-186288571D01*
X102867142Y-187788571D02*
X102367142Y-187074285D01*
X102010000Y-187788571D02*
X102010000Y-186288571D01*
X102581428Y-186288571D01*
X102724285Y-186360000D01*
X102795714Y-186431428D01*
X102867142Y-186574285D01*
X102867142Y-186788571D01*
X102795714Y-186931428D01*
X102724285Y-187002857D01*
X102581428Y-187074285D01*
X102010000Y-187074285D01*
X104938571Y-186288571D02*
X105224285Y-186288571D01*
X105367142Y-186360000D01*
X105510000Y-186502857D01*
X105581428Y-186788571D01*
X105581428Y-187288571D01*
X105510000Y-187574285D01*
X105367142Y-187717142D01*
X105224285Y-187788571D01*
X104938571Y-187788571D01*
X104795714Y-187717142D01*
X104652857Y-187574285D01*
X104581428Y-187288571D01*
X104581428Y-186788571D01*
X104652857Y-186502857D01*
X104795714Y-186360000D01*
X104938571Y-186288571D01*
X106224285Y-186288571D02*
X106224285Y-187502857D01*
X106295714Y-187645714D01*
X106367142Y-187717142D01*
X106510000Y-187788571D01*
X106795714Y-187788571D01*
X106938571Y-187717142D01*
X107010000Y-187645714D01*
X107081428Y-187502857D01*
X107081428Y-186288571D01*
X107581428Y-186288571D02*
X108438571Y-186288571D01*
X108010000Y-187788571D02*
X108010000Y-186288571D01*
X100971428Y-80950000D02*
X101685714Y-80450000D01*
X100971428Y-80092857D02*
X102471428Y-80092857D01*
X102471428Y-80664285D01*
X102400000Y-80807142D01*
X102328571Y-80878571D01*
X102185714Y-80950000D01*
X101971428Y-80950000D01*
X101828571Y-80878571D01*
X101757142Y-80807142D01*
X101685714Y-80664285D01*
X101685714Y-80092857D01*
X102471428Y-81450000D02*
X100971428Y-82450000D01*
X102471428Y-82450000D02*
X100971428Y-81450000D01*
D13*
X84016488Y-26425238D02*
X84016488Y-28425238D01*
X84016488Y-27472857D02*
X82873631Y-27472857D01*
X82873631Y-26425238D02*
X82873631Y-28425238D01*
X81921250Y-26425238D02*
X81921250Y-28425238D01*
X81445060Y-28425238D01*
X81159345Y-28330000D01*
X80968869Y-28139523D01*
X80873631Y-27949047D01*
X80778393Y-27568095D01*
X80778393Y-27282380D01*
X80873631Y-26901428D01*
X80968869Y-26710952D01*
X81159345Y-26520476D01*
X81445060Y-26425238D01*
X81921250Y-26425238D01*
X79921250Y-26425238D02*
X79921250Y-28425238D01*
X79445060Y-28425238D01*
X79159345Y-28330000D01*
X78968869Y-28139523D01*
X78873631Y-27949047D01*
X78778393Y-27568095D01*
X78778393Y-27282380D01*
X78873631Y-26901428D01*
X78968869Y-26710952D01*
X79159345Y-26520476D01*
X79445060Y-26425238D01*
X79921250Y-26425238D01*
D12*
X107490000Y-79167142D02*
X107561428Y-79024285D01*
X107561428Y-78810000D01*
X107490000Y-78595714D01*
X107347142Y-78452857D01*
X107204285Y-78381428D01*
X106918571Y-78310000D01*
X106704285Y-78310000D01*
X106418571Y-78381428D01*
X106275714Y-78452857D01*
X106132857Y-78595714D01*
X106061428Y-78810000D01*
X106061428Y-78952857D01*
X106132857Y-79167142D01*
X106204285Y-79238571D01*
X106704285Y-79238571D01*
X106704285Y-78952857D01*
X106061428Y-79881428D02*
X107561428Y-79881428D01*
X106061428Y-80738571D01*
X107561428Y-80738571D01*
X106061428Y-81452857D02*
X107561428Y-81452857D01*
X107561428Y-81810000D01*
X107490000Y-82024285D01*
X107347142Y-82167142D01*
X107204285Y-82238571D01*
X106918571Y-82310000D01*
X106704285Y-82310000D01*
X106418571Y-82238571D01*
X106275714Y-82167142D01*
X106132857Y-82024285D01*
X106061428Y-81810000D01*
X106061428Y-81452857D01*
X93781428Y-44521428D02*
X92781428Y-44521428D01*
X94352857Y-44164285D02*
X93281428Y-43807142D01*
X93281428Y-44735714D01*
X94281428Y-45592857D02*
X94281428Y-45735714D01*
X94210000Y-45878571D01*
X94138571Y-45950000D01*
X93995714Y-46021428D01*
X93710000Y-46092857D01*
X93352857Y-46092857D01*
X93067142Y-46021428D01*
X92924285Y-45950000D01*
X92852857Y-45878571D01*
X92781428Y-45735714D01*
X92781428Y-45592857D01*
X92852857Y-45450000D01*
X92924285Y-45378571D01*
X93067142Y-45307142D01*
X93352857Y-45235714D01*
X93710000Y-45235714D01*
X93995714Y-45307142D01*
X94138571Y-45378571D01*
X94210000Y-45450000D01*
X94281428Y-45592857D01*
X105590000Y-178168571D02*
X105661428Y-178025714D01*
X105661428Y-177811429D01*
X105590000Y-177597143D01*
X105447142Y-177454286D01*
X105304285Y-177382857D01*
X105018571Y-177311429D01*
X104804285Y-177311429D01*
X104518571Y-177382857D01*
X104375714Y-177454286D01*
X104232857Y-177597143D01*
X104161428Y-177811429D01*
X104161428Y-177954286D01*
X104232857Y-178168571D01*
X104304285Y-178240000D01*
X104804285Y-178240000D01*
X104804285Y-177954286D01*
X104161428Y-178882857D02*
X105661428Y-178882857D01*
X104161428Y-179740000D01*
X105661428Y-179740000D01*
X104161428Y-180454286D02*
X105661428Y-180454286D01*
X105661428Y-180811429D01*
X105590000Y-181025714D01*
X105447142Y-181168571D01*
X105304285Y-181240000D01*
X105018571Y-181311429D01*
X104804285Y-181311429D01*
X104518571Y-181240000D01*
X104375714Y-181168571D01*
X104232857Y-181025714D01*
X104161428Y-180811429D01*
X104161428Y-180454286D01*
D11*
X75293571Y-131131428D02*
X75150714Y-130988571D01*
X75007857Y-130560000D01*
X75007857Y-130274285D01*
X75150714Y-129845714D01*
X75436428Y-129560000D01*
X75722142Y-129417142D01*
X76293571Y-129274285D01*
X76722142Y-129274285D01*
X77293571Y-129417142D01*
X77579285Y-129560000D01*
X77865000Y-129845714D01*
X78007857Y-130274285D01*
X78007857Y-130560000D01*
X77865000Y-130988571D01*
X77722142Y-131131428D01*
X76579285Y-133417142D02*
X76579285Y-132417142D01*
X75007857Y-132417142D02*
X78007857Y-132417142D01*
X78007857Y-133845714D01*
X75865000Y-137131428D02*
X75865000Y-138560000D01*
X75007857Y-136845714D02*
X78007857Y-137845714D01*
X75007857Y-138845714D01*
X75007857Y-141131428D02*
X78007857Y-141131428D01*
X75150714Y-141131428D02*
X75007857Y-140845714D01*
X75007857Y-140274285D01*
X75150714Y-139988571D01*
X75293571Y-139845714D01*
X75579285Y-139702857D01*
X76436428Y-139702857D01*
X76722142Y-139845714D01*
X76865000Y-139988571D01*
X77007857Y-140274285D01*
X77007857Y-140845714D01*
X76865000Y-141131428D01*
X75007857Y-143845714D02*
X76579285Y-143845714D01*
X76865000Y-143702857D01*
X77007857Y-143417142D01*
X77007857Y-142845714D01*
X76865000Y-142560000D01*
X75150714Y-143845714D02*
X75007857Y-143560000D01*
X75007857Y-142845714D01*
X75150714Y-142560000D01*
X75436428Y-142417142D01*
X75722142Y-142417142D01*
X76007857Y-142560000D01*
X76150714Y-142845714D01*
X76150714Y-143560000D01*
X76293571Y-143845714D01*
X77007857Y-145274285D02*
X74007857Y-145274285D01*
X76865000Y-145274285D02*
X77007857Y-145560000D01*
X77007857Y-146131428D01*
X76865000Y-146417142D01*
X76722142Y-146560000D01*
X76436428Y-146702857D01*
X75579285Y-146702857D01*
X75293571Y-146560000D01*
X75150714Y-146417142D01*
X75007857Y-146131428D01*
X75007857Y-145560000D01*
X75150714Y-145274285D01*
X77007857Y-147560000D02*
X77007857Y-148702857D01*
X78007857Y-147988571D02*
X75436428Y-147988571D01*
X75150714Y-148131428D01*
X75007857Y-148417142D01*
X75007857Y-148702857D01*
X75150714Y-150845714D02*
X75007857Y-150560000D01*
X75007857Y-149988571D01*
X75150714Y-149702857D01*
X75436428Y-149560000D01*
X76579285Y-149560000D01*
X76865000Y-149702857D01*
X77007857Y-149988571D01*
X77007857Y-150560000D01*
X76865000Y-150845714D01*
X76579285Y-150988571D01*
X76293571Y-150988571D01*
X76007857Y-149560000D01*
X75007857Y-152274285D02*
X77007857Y-152274285D01*
X76436428Y-152274285D02*
X76722142Y-152417142D01*
X76865000Y-152560000D01*
X77007857Y-152845714D01*
X77007857Y-153131428D01*
D12*
X124341428Y-179932856D02*
X124341428Y-179218571D01*
X123627142Y-179147142D01*
X123698571Y-179218571D01*
X123770000Y-179361428D01*
X123770000Y-179718571D01*
X123698571Y-179861428D01*
X123627142Y-179932856D01*
X123484285Y-180004285D01*
X123127142Y-180004285D01*
X122984285Y-179932856D01*
X122912857Y-179861428D01*
X122841428Y-179718571D01*
X122841428Y-179361428D01*
X122912857Y-179218571D01*
X122984285Y-179147142D01*
X124341428Y-180432856D02*
X122841428Y-180932856D01*
X124341428Y-181432856D01*
X105021428Y-80027142D02*
X105021428Y-80884285D01*
X103521428Y-80455714D02*
X105021428Y-80455714D01*
X105021428Y-81241428D02*
X103521428Y-82241428D01*
X105021428Y-82241428D02*
X103521428Y-81241428D01*
D13*
X139033631Y-28435238D02*
X137890774Y-28435238D01*
X138462202Y-26435238D02*
X138462202Y-28435238D01*
X137700298Y-26244761D02*
X136176488Y-26244761D01*
X135319345Y-28435238D02*
X134938393Y-28435238D01*
X134747917Y-28340000D01*
X134557440Y-28149523D01*
X134462202Y-27768571D01*
X134462202Y-27101904D01*
X134557440Y-26720952D01*
X134747917Y-26530476D01*
X134938393Y-26435238D01*
X135319345Y-26435238D01*
X135509821Y-26530476D01*
X135700298Y-26720952D01*
X135795536Y-27101904D01*
X135795536Y-27768571D01*
X135700298Y-28149523D01*
X135509821Y-28340000D01*
X135319345Y-28435238D01*
X133605060Y-26435238D02*
X133605060Y-28435238D01*
X132462202Y-26435238D01*
X132462202Y-28435238D01*
D12*
X99581428Y-117368571D02*
X99581428Y-116511428D01*
X99581428Y-116940000D02*
X101081428Y-116940000D01*
X100867142Y-116797142D01*
X100724285Y-116654285D01*
X100652857Y-116511428D01*
X121730000Y-178147142D02*
X121801428Y-178004285D01*
X121801428Y-177790000D01*
X121730000Y-177575714D01*
X121587142Y-177432857D01*
X121444285Y-177361428D01*
X121158571Y-177290000D01*
X120944285Y-177290000D01*
X120658571Y-177361428D01*
X120515714Y-177432857D01*
X120372857Y-177575714D01*
X120301428Y-177790000D01*
X120301428Y-177932857D01*
X120372857Y-178147142D01*
X120444285Y-178218571D01*
X120944285Y-178218571D01*
X120944285Y-177932857D01*
X120301428Y-178861428D02*
X121801428Y-178861428D01*
X120301428Y-179718571D01*
X121801428Y-179718571D01*
X120301428Y-180432857D02*
X121801428Y-180432857D01*
X121801428Y-180790000D01*
X121730000Y-181004285D01*
X121587142Y-181147142D01*
X121444285Y-181218571D01*
X121158571Y-181290000D01*
X120944285Y-181290000D01*
X120658571Y-181218571D01*
X120515714Y-181147142D01*
X120372857Y-181004285D01*
X120301428Y-180790000D01*
X120301428Y-180432857D01*
X100992857Y-88168571D02*
X100992857Y-86668571D01*
X101350000Y-86668571D01*
X101564285Y-86740000D01*
X101707142Y-86882857D01*
X101778571Y-87025714D01*
X101850000Y-87311428D01*
X101850000Y-87525714D01*
X101778571Y-87811428D01*
X101707142Y-87954285D01*
X101564285Y-88097142D01*
X101350000Y-88168571D01*
X100992857Y-88168571D01*
X102492857Y-87382857D02*
X102992857Y-87382857D01*
X103207142Y-88168571D02*
X102492857Y-88168571D01*
X102492857Y-86668571D01*
X103207142Y-86668571D01*
X104350000Y-87382857D02*
X104564285Y-87454285D01*
X104635714Y-87525714D01*
X104707142Y-87668571D01*
X104707142Y-87882857D01*
X104635714Y-88025714D01*
X104564285Y-88097142D01*
X104421428Y-88168571D01*
X103850000Y-88168571D01*
X103850000Y-86668571D01*
X104350000Y-86668571D01*
X104492857Y-86740000D01*
X104564285Y-86811428D01*
X104635714Y-86954285D01*
X104635714Y-87097142D01*
X104564285Y-87240000D01*
X104492857Y-87311428D01*
X104350000Y-87382857D01*
X103850000Y-87382857D01*
X105350000Y-86668571D02*
X105350000Y-87882857D01*
X105421428Y-88025714D01*
X105492857Y-88097142D01*
X105635714Y-88168571D01*
X105921428Y-88168571D01*
X106064285Y-88097142D01*
X106135714Y-88025714D01*
X106207142Y-87882857D01*
X106207142Y-86668571D01*
X107707142Y-86740000D02*
X107564285Y-86668571D01*
X107350000Y-86668571D01*
X107135714Y-86740000D01*
X106992857Y-86882857D01*
X106921428Y-87025714D01*
X106850000Y-87311428D01*
X106850000Y-87525714D01*
X106921428Y-87811428D01*
X106992857Y-87954285D01*
X107135714Y-88097142D01*
X107350000Y-88168571D01*
X107492857Y-88168571D01*
X107707142Y-88097142D01*
X107778571Y-88025714D01*
X107778571Y-87525714D01*
X107492857Y-87525714D01*
X99081428Y-178882857D02*
X100581428Y-178882857D01*
X99081428Y-179740000D01*
X100581428Y-179740000D01*
X99224285Y-181311429D02*
X99152857Y-181240000D01*
X99081428Y-181025714D01*
X99081428Y-180882857D01*
X99152857Y-180668571D01*
X99295714Y-180525714D01*
X99438571Y-180454286D01*
X99724285Y-180382857D01*
X99938571Y-180382857D01*
X100224285Y-180454286D01*
X100367142Y-180525714D01*
X100510000Y-180668571D01*
X100581428Y-180882857D01*
X100581428Y-181025714D01*
X100510000Y-181240000D01*
X100438571Y-181311429D01*
X118215714Y-187857142D02*
X118215714Y-186357142D01*
X118787142Y-186357142D01*
X118930000Y-186428571D01*
X119001428Y-186499999D01*
X119072857Y-186642856D01*
X119072857Y-186857142D01*
X119001428Y-186999999D01*
X118930000Y-187071428D01*
X118787142Y-187142856D01*
X118215714Y-187142856D01*
X119572857Y-186357142D02*
X119930000Y-187857142D01*
X120215714Y-186785713D01*
X120501428Y-187857142D01*
X120858571Y-186357142D01*
X122287142Y-187857142D02*
X121787142Y-187142856D01*
X121430000Y-187857142D02*
X121430000Y-186357142D01*
X122001428Y-186357142D01*
X122144285Y-186428571D01*
X122215714Y-186499999D01*
X122287142Y-186642856D01*
X122287142Y-186857142D01*
X122215714Y-186999999D01*
X122144285Y-187071428D01*
X122001428Y-187142856D01*
X121430000Y-187142856D01*
X124072857Y-187857142D02*
X124072857Y-186357142D01*
X124787142Y-187857142D02*
X124787142Y-186357142D01*
X125644285Y-187857142D01*
X125644285Y-186357142D01*
X89641428Y-164761428D02*
X88641428Y-164761428D01*
X90212857Y-164404285D02*
X89141428Y-164047142D01*
X89141428Y-164975714D01*
X90141428Y-165832857D02*
X90141428Y-165975714D01*
X90070000Y-166118571D01*
X89998571Y-166190000D01*
X89855714Y-166261428D01*
X89570000Y-166332857D01*
X89212857Y-166332857D01*
X88927142Y-166261428D01*
X88784285Y-166190000D01*
X88712857Y-166118571D01*
X88641428Y-165975714D01*
X88641428Y-165832857D01*
X88712857Y-165690000D01*
X88784285Y-165618571D01*
X88927142Y-165547142D01*
X89212857Y-165475714D01*
X89570000Y-165475714D01*
X89855714Y-165547142D01*
X89998571Y-165618571D01*
X90070000Y-165690000D01*
X90141428Y-165832857D01*
X151506428Y-112255714D02*
X151506428Y-113184285D01*
X150935000Y-112684285D01*
X150935000Y-112898571D01*
X150863571Y-113041428D01*
X150792142Y-113112857D01*
X150649285Y-113184285D01*
X150292142Y-113184285D01*
X150149285Y-113112857D01*
X150077857Y-113041428D01*
X150006428Y-112898571D01*
X150006428Y-112470000D01*
X150077857Y-112327142D01*
X150149285Y-112255714D01*
X151006428Y-114470000D02*
X150006428Y-114470000D01*
X151577857Y-114112857D02*
X150506428Y-113755714D01*
X150506428Y-114684285D01*
D15*
%TO.C,U3*%
X122408095Y-33623432D02*
X122408095Y-34432956D01*
X122455714Y-34528194D01*
X122503333Y-34575813D01*
X122598571Y-34623432D01*
X122789047Y-34623432D01*
X122884285Y-34575813D01*
X122931904Y-34528194D01*
X122979523Y-34432956D01*
X122979523Y-33623432D01*
X123360476Y-33623432D02*
X123979523Y-33623432D01*
X123646190Y-34004385D01*
X123789047Y-34004385D01*
X123884285Y-34052004D01*
X123931904Y-34099623D01*
X123979523Y-34194861D01*
X123979523Y-34432956D01*
X123931904Y-34528194D01*
X123884285Y-34575813D01*
X123789047Y-34623432D01*
X123503333Y-34623432D01*
X123408095Y-34575813D01*
X123360476Y-34528194D01*
%TO.C,C2*%
X133597142Y-117296666D02*
X133644761Y-117344285D01*
X133692380Y-117487142D01*
X133692380Y-117582380D01*
X133644761Y-117725238D01*
X133549523Y-117820476D01*
X133454285Y-117868095D01*
X133263809Y-117915714D01*
X133120952Y-117915714D01*
X132930476Y-117868095D01*
X132835238Y-117820476D01*
X132740000Y-117725238D01*
X132692380Y-117582380D01*
X132692380Y-117487142D01*
X132740000Y-117344285D01*
X132787619Y-117296666D01*
X132787619Y-116915714D02*
X132740000Y-116868095D01*
X132692380Y-116772857D01*
X132692380Y-116534761D01*
X132740000Y-116439523D01*
X132787619Y-116391904D01*
X132882857Y-116344285D01*
X132978095Y-116344285D01*
X133120952Y-116391904D01*
X133692380Y-116963333D01*
X133692380Y-116344285D01*
%TO.C,C7*%
X139788446Y-40087142D02*
X139740827Y-40134761D01*
X139597970Y-40182380D01*
X139502732Y-40182380D01*
X139359874Y-40134761D01*
X139264636Y-40039523D01*
X139217017Y-39944285D01*
X139169398Y-39753809D01*
X139169398Y-39610952D01*
X139217017Y-39420476D01*
X139264636Y-39325238D01*
X139359874Y-39230000D01*
X139502732Y-39182380D01*
X139597970Y-39182380D01*
X139740827Y-39230000D01*
X139788446Y-39277619D01*
X140121779Y-39182380D02*
X140788446Y-39182380D01*
X140359874Y-40182380D01*
%TO.C,J4*%
X81737619Y-140726666D02*
X81023333Y-140726666D01*
X80880476Y-140679047D01*
X80785238Y-140583809D01*
X80737619Y-140440952D01*
X80737619Y-140345714D01*
X81404285Y-141631428D02*
X80737619Y-141631428D01*
X81785238Y-141393333D02*
X81070952Y-141155238D01*
X81070952Y-141774285D01*
%TO.C,U4*%
X122408095Y-74523432D02*
X122408095Y-75332956D01*
X122455714Y-75428194D01*
X122503333Y-75475813D01*
X122598571Y-75523432D01*
X122789047Y-75523432D01*
X122884285Y-75475813D01*
X122931904Y-75428194D01*
X122979523Y-75332956D01*
X122979523Y-74523432D01*
X123884285Y-74856766D02*
X123884285Y-75523432D01*
X123646190Y-74475813D02*
X123408095Y-75190099D01*
X124027142Y-75190099D01*
%TO.C,R4*%
X104227333Y-149888380D02*
X103894000Y-149412190D01*
X103655904Y-149888380D02*
X103655904Y-148888380D01*
X104036857Y-148888380D01*
X104132095Y-148936000D01*
X104179714Y-148983619D01*
X104227333Y-149078857D01*
X104227333Y-149221714D01*
X104179714Y-149316952D01*
X104132095Y-149364571D01*
X104036857Y-149412190D01*
X103655904Y-149412190D01*
X105084476Y-149221714D02*
X105084476Y-149888380D01*
X104846380Y-148840761D02*
X104608285Y-149555047D01*
X105227333Y-149555047D01*
%TO.C,D1*%
X92147440Y-27958095D02*
X91147440Y-27958095D01*
X91147440Y-27720000D01*
X91195060Y-27577142D01*
X91290298Y-27481904D01*
X91385536Y-27434285D01*
X91576012Y-27386666D01*
X91718869Y-27386666D01*
X91909345Y-27434285D01*
X92004583Y-27481904D01*
X92099821Y-27577142D01*
X92147440Y-27720000D01*
X92147440Y-27958095D01*
X92147440Y-26434285D02*
X92147440Y-27005714D01*
X92147440Y-26720000D02*
X91147440Y-26720000D01*
X91290298Y-26815238D01*
X91385536Y-26910476D01*
X91433155Y-27005714D01*
%TO.C,R7*%
X98522380Y-37956666D02*
X98046190Y-38290000D01*
X98522380Y-38528095D02*
X97522380Y-38528095D01*
X97522380Y-38147142D01*
X97570000Y-38051904D01*
X97617619Y-38004285D01*
X97712857Y-37956666D01*
X97855714Y-37956666D01*
X97950952Y-38004285D01*
X97998571Y-38051904D01*
X98046190Y-38147142D01*
X98046190Y-38528095D01*
X97522380Y-37623333D02*
X97522380Y-36956666D01*
X98522380Y-37385238D01*
%TO.C,U2*%
X122158095Y-144702380D02*
X122158095Y-145511904D01*
X122205714Y-145607142D01*
X122253333Y-145654761D01*
X122348571Y-145702380D01*
X122539047Y-145702380D01*
X122634285Y-145654761D01*
X122681904Y-145607142D01*
X122729523Y-145511904D01*
X122729523Y-144702380D01*
X123158095Y-144797619D02*
X123205714Y-144750000D01*
X123300952Y-144702380D01*
X123539047Y-144702380D01*
X123634285Y-144750000D01*
X123681904Y-144797619D01*
X123729523Y-144892857D01*
X123729523Y-144988095D01*
X123681904Y-145130952D01*
X123110476Y-145702380D01*
X123729523Y-145702380D01*
%TO.C,J3*%
X126116666Y-183140951D02*
X126116666Y-183855237D01*
X126069047Y-183998094D01*
X125973809Y-184093332D01*
X125830952Y-184140951D01*
X125735714Y-184140951D01*
X126497619Y-183140951D02*
X127116666Y-183140951D01*
X126783333Y-183521904D01*
X126926190Y-183521904D01*
X127021428Y-183569523D01*
X127069047Y-183617142D01*
X127116666Y-183712380D01*
X127116666Y-183950475D01*
X127069047Y-184045713D01*
X127021428Y-184093332D01*
X126926190Y-184140951D01*
X126640476Y-184140951D01*
X126545238Y-184093332D01*
X126497619Y-184045713D01*
%TO.C,R5*%
X108813333Y-166162380D02*
X108480000Y-165686190D01*
X108241904Y-166162380D02*
X108241904Y-165162380D01*
X108622857Y-165162380D01*
X108718095Y-165210000D01*
X108765714Y-165257619D01*
X108813333Y-165352857D01*
X108813333Y-165495714D01*
X108765714Y-165590952D01*
X108718095Y-165638571D01*
X108622857Y-165686190D01*
X108241904Y-165686190D01*
X109718095Y-165162380D02*
X109241904Y-165162380D01*
X109194285Y-165638571D01*
X109241904Y-165590952D01*
X109337142Y-165543333D01*
X109575238Y-165543333D01*
X109670476Y-165590952D01*
X109718095Y-165638571D01*
X109765714Y-165733809D01*
X109765714Y-165971904D01*
X109718095Y-166067142D01*
X109670476Y-166114761D01*
X109575238Y-166162380D01*
X109337142Y-166162380D01*
X109241904Y-166114761D01*
X109194285Y-166067142D01*
%TO.C,C6*%
X101177142Y-39422718D02*
X101224761Y-39470337D01*
X101272380Y-39613194D01*
X101272380Y-39708432D01*
X101224761Y-39851290D01*
X101129523Y-39946528D01*
X101034285Y-39994147D01*
X100843809Y-40041766D01*
X100700952Y-40041766D01*
X100510476Y-39994147D01*
X100415238Y-39946528D01*
X100320000Y-39851290D01*
X100272380Y-39708432D01*
X100272380Y-39613194D01*
X100320000Y-39470337D01*
X100367619Y-39422718D01*
X100272380Y-38565575D02*
X100272380Y-38756052D01*
X100320000Y-38851290D01*
X100367619Y-38898909D01*
X100510476Y-38994147D01*
X100700952Y-39041766D01*
X101081904Y-39041766D01*
X101177142Y-38994147D01*
X101224761Y-38946528D01*
X101272380Y-38851290D01*
X101272380Y-38660813D01*
X101224761Y-38565575D01*
X101177142Y-38517956D01*
X101081904Y-38470337D01*
X100843809Y-38470337D01*
X100748571Y-38517956D01*
X100700952Y-38565575D01*
X100653333Y-38660813D01*
X100653333Y-38851290D01*
X100700952Y-38946528D01*
X100748571Y-38994147D01*
X100843809Y-39041766D01*
%TO.C,C3*%
X133207142Y-147906666D02*
X133254761Y-147954285D01*
X133302380Y-148097142D01*
X133302380Y-148192380D01*
X133254761Y-148335238D01*
X133159523Y-148430476D01*
X133064285Y-148478095D01*
X132873809Y-148525714D01*
X132730952Y-148525714D01*
X132540476Y-148478095D01*
X132445238Y-148430476D01*
X132350000Y-148335238D01*
X132302380Y-148192380D01*
X132302380Y-148097142D01*
X132350000Y-147954285D01*
X132397619Y-147906666D01*
X132302380Y-147573333D02*
X132302380Y-146954285D01*
X132683333Y-147287619D01*
X132683333Y-147144761D01*
X132730952Y-147049523D01*
X132778571Y-147001904D01*
X132873809Y-146954285D01*
X133111904Y-146954285D01*
X133207142Y-147001904D01*
X133254761Y-147049523D01*
X133302380Y-147144761D01*
X133302380Y-147430476D01*
X133254761Y-147525714D01*
X133207142Y-147573333D01*
%TO.C,D3*%
X111534404Y-28318095D02*
X110534404Y-28318095D01*
X110534404Y-28080000D01*
X110582024Y-27937142D01*
X110677262Y-27841904D01*
X110772500Y-27794285D01*
X110962976Y-27746666D01*
X111105833Y-27746666D01*
X111296309Y-27794285D01*
X111391547Y-27841904D01*
X111486785Y-27937142D01*
X111534404Y-28080000D01*
X111534404Y-28318095D01*
X110534404Y-27413333D02*
X110534404Y-26794285D01*
X110915357Y-27127619D01*
X110915357Y-26984761D01*
X110962976Y-26889523D01*
X111010595Y-26841904D01*
X111105833Y-26794285D01*
X111343928Y-26794285D01*
X111439166Y-26841904D01*
X111486785Y-26889523D01*
X111534404Y-26984761D01*
X111534404Y-27270476D01*
X111486785Y-27365714D01*
X111439166Y-27413333D01*
%TO.C,R3*%
X124798393Y-34052380D02*
X124465060Y-33576190D01*
X124226964Y-34052380D02*
X124226964Y-33052380D01*
X124607917Y-33052380D01*
X124703155Y-33100000D01*
X124750774Y-33147619D01*
X124798393Y-33242857D01*
X124798393Y-33385714D01*
X124750774Y-33480952D01*
X124703155Y-33528571D01*
X124607917Y-33576190D01*
X124226964Y-33576190D01*
X125131726Y-33052380D02*
X125750774Y-33052380D01*
X125417440Y-33433333D01*
X125560298Y-33433333D01*
X125655536Y-33480952D01*
X125703155Y-33528571D01*
X125750774Y-33623809D01*
X125750774Y-33861904D01*
X125703155Y-33957142D01*
X125655536Y-34004761D01*
X125560298Y-34052380D01*
X125274583Y-34052380D01*
X125179345Y-34004761D01*
X125131726Y-33957142D01*
%TO.C,U5*%
X98728095Y-42092380D02*
X98728095Y-42901904D01*
X98775714Y-42997142D01*
X98823333Y-43044761D01*
X98918571Y-43092380D01*
X99109047Y-43092380D01*
X99204285Y-43044761D01*
X99251904Y-42997142D01*
X99299523Y-42901904D01*
X99299523Y-42092380D01*
X100251904Y-42092380D02*
X99775714Y-42092380D01*
X99728095Y-42568571D01*
X99775714Y-42520952D01*
X99870952Y-42473333D01*
X100109047Y-42473333D01*
X100204285Y-42520952D01*
X100251904Y-42568571D01*
X100299523Y-42663809D01*
X100299523Y-42901904D01*
X100251904Y-42997142D01*
X100204285Y-43044761D01*
X100109047Y-43092380D01*
X99870952Y-43092380D01*
X99775714Y-43044761D01*
X99728095Y-42997142D01*
%TO.C,J5*%
X151926666Y-94762380D02*
X151926666Y-95476666D01*
X151879047Y-95619523D01*
X151783809Y-95714761D01*
X151640952Y-95762380D01*
X151545714Y-95762380D01*
X152879047Y-94762380D02*
X152402857Y-94762380D01*
X152355238Y-95238571D01*
X152402857Y-95190952D01*
X152498095Y-95143333D01*
X152736190Y-95143333D01*
X152831428Y-95190952D01*
X152879047Y-95238571D01*
X152926666Y-95333809D01*
X152926666Y-95571904D01*
X152879047Y-95667142D01*
X152831428Y-95714761D01*
X152736190Y-95762380D01*
X152498095Y-95762380D01*
X152402857Y-95714761D01*
X152355238Y-95667142D01*
%TO.C,P1*%
X142016964Y-30372380D02*
X142016964Y-29372380D01*
X142397917Y-29372380D01*
X142493155Y-29420000D01*
X142540774Y-29467619D01*
X142588393Y-29562857D01*
X142588393Y-29705714D01*
X142540774Y-29800952D01*
X142493155Y-29848571D01*
X142397917Y-29896190D01*
X142016964Y-29896190D01*
X143540774Y-30372380D02*
X142969345Y-30372380D01*
X143255060Y-30372380D02*
X143255060Y-29372380D01*
X143159821Y-29515238D01*
X143064583Y-29610476D01*
X142969345Y-29658095D01*
%TO.C,JP1*%
X143692666Y-183162380D02*
X143692666Y-183876666D01*
X143645047Y-184019523D01*
X143549809Y-184114761D01*
X143406952Y-184162380D01*
X143311714Y-184162380D01*
X144168857Y-184162380D02*
X144168857Y-183162380D01*
X144549809Y-183162380D01*
X144645047Y-183210000D01*
X144692666Y-183257619D01*
X144740285Y-183352857D01*
X144740285Y-183495714D01*
X144692666Y-183590952D01*
X144645047Y-183638571D01*
X144549809Y-183686190D01*
X144168857Y-183686190D01*
X145692666Y-184162380D02*
X145121238Y-184162380D01*
X145406952Y-184162380D02*
X145406952Y-183162380D01*
X145311714Y-183305238D01*
X145216476Y-183400476D01*
X145121238Y-183448095D01*
%TO.C,D2*%
X129307440Y-28218095D02*
X128307440Y-28218095D01*
X128307440Y-27980000D01*
X128355060Y-27837142D01*
X128450298Y-27741904D01*
X128545536Y-27694285D01*
X128736012Y-27646666D01*
X128878869Y-27646666D01*
X129069345Y-27694285D01*
X129164583Y-27741904D01*
X129259821Y-27837142D01*
X129307440Y-27980000D01*
X129307440Y-28218095D01*
X128402679Y-27265714D02*
X128355060Y-27218095D01*
X128307440Y-27122857D01*
X128307440Y-26884761D01*
X128355060Y-26789523D01*
X128402679Y-26741904D01*
X128497917Y-26694285D01*
X128593155Y-26694285D01*
X128736012Y-26741904D01*
X129307440Y-27313333D01*
X129307440Y-26694285D01*
%TO.C,U1*%
X122158095Y-113862380D02*
X122158095Y-114671904D01*
X122205714Y-114767142D01*
X122253333Y-114814761D01*
X122348571Y-114862380D01*
X122539047Y-114862380D01*
X122634285Y-114814761D01*
X122681904Y-114767142D01*
X122729523Y-114671904D01*
X122729523Y-113862380D01*
X123729523Y-114862380D02*
X123158095Y-114862380D01*
X123443809Y-114862380D02*
X123443809Y-113862380D01*
X123348571Y-114005238D01*
X123253333Y-114100476D01*
X123158095Y-114148095D01*
%TO.C,J2*%
X110146666Y-182932380D02*
X110146666Y-183646666D01*
X110099047Y-183789523D01*
X110003809Y-183884761D01*
X109860952Y-183932380D01*
X109765714Y-183932380D01*
X110575238Y-183027619D02*
X110622857Y-182980000D01*
X110718095Y-182932380D01*
X110956190Y-182932380D01*
X111051428Y-182980000D01*
X111099047Y-183027619D01*
X111146666Y-183122857D01*
X111146666Y-183218095D01*
X111099047Y-183360952D01*
X110527619Y-183932380D01*
X111146666Y-183932380D01*
%TO.C,R1*%
X108813333Y-145022380D02*
X108480000Y-144546190D01*
X108241904Y-145022380D02*
X108241904Y-144022380D01*
X108622857Y-144022380D01*
X108718095Y-144070000D01*
X108765714Y-144117619D01*
X108813333Y-144212857D01*
X108813333Y-144355714D01*
X108765714Y-144450952D01*
X108718095Y-144498571D01*
X108622857Y-144546190D01*
X108241904Y-144546190D01*
X109765714Y-145022380D02*
X109194285Y-145022380D01*
X109480000Y-145022380D02*
X109480000Y-144022380D01*
X109384761Y-144165238D01*
X109289523Y-144260476D01*
X109194285Y-144308095D01*
%TO.C,C5*%
X133477142Y-78262718D02*
X133524761Y-78310337D01*
X133572380Y-78453194D01*
X133572380Y-78548432D01*
X133524761Y-78691290D01*
X133429523Y-78786528D01*
X133334285Y-78834147D01*
X133143809Y-78881766D01*
X133000952Y-78881766D01*
X132810476Y-78834147D01*
X132715238Y-78786528D01*
X132620000Y-78691290D01*
X132572380Y-78548432D01*
X132572380Y-78453194D01*
X132620000Y-78310337D01*
X132667619Y-78262718D01*
X132572380Y-77357956D02*
X132572380Y-77834147D01*
X133048571Y-77881766D01*
X133000952Y-77834147D01*
X132953333Y-77738909D01*
X132953333Y-77500813D01*
X133000952Y-77405575D01*
X133048571Y-77357956D01*
X133143809Y-77310337D01*
X133381904Y-77310337D01*
X133477142Y-77357956D01*
X133524761Y-77405575D01*
X133572380Y-77500813D01*
X133572380Y-77738909D01*
X133524761Y-77834147D01*
X133477142Y-77881766D01*
%TO.C,J6*%
X84462380Y-71803333D02*
X85176666Y-71803333D01*
X85319523Y-71850952D01*
X85414761Y-71946190D01*
X85462380Y-72089047D01*
X85462380Y-72184285D01*
X84462380Y-70898571D02*
X84462380Y-71089047D01*
X84510000Y-71184285D01*
X84557619Y-71231904D01*
X84700476Y-71327142D01*
X84890952Y-71374761D01*
X85271904Y-71374761D01*
X85367142Y-71327142D01*
X85414761Y-71279523D01*
X85462380Y-71184285D01*
X85462380Y-70993809D01*
X85414761Y-70898571D01*
X85367142Y-70850952D01*
X85271904Y-70803333D01*
X85033809Y-70803333D01*
X84938571Y-70850952D01*
X84890952Y-70898571D01*
X84843333Y-70993809D01*
X84843333Y-71184285D01*
X84890952Y-71279523D01*
X84938571Y-71327142D01*
X85033809Y-71374761D01*
%TO.C,R2*%
X87463333Y-34132380D02*
X87130000Y-33656190D01*
X86891904Y-34132380D02*
X86891904Y-33132380D01*
X87272857Y-33132380D01*
X87368095Y-33180000D01*
X87415714Y-33227619D01*
X87463333Y-33322857D01*
X87463333Y-33465714D01*
X87415714Y-33560952D01*
X87368095Y-33608571D01*
X87272857Y-33656190D01*
X86891904Y-33656190D01*
X87844285Y-33227619D02*
X87891904Y-33180000D01*
X87987142Y-33132380D01*
X88225238Y-33132380D01*
X88320476Y-33180000D01*
X88368095Y-33227619D01*
X88415714Y-33322857D01*
X88415714Y-33418095D01*
X88368095Y-33560952D01*
X87796666Y-34132380D01*
X88415714Y-34132380D01*
%TO.C,P2*%
X109522380Y-85024147D02*
X108522380Y-85024147D01*
X108522380Y-84643194D01*
X108570000Y-84547956D01*
X108617619Y-84500337D01*
X108712857Y-84452718D01*
X108855714Y-84452718D01*
X108950952Y-84500337D01*
X108998571Y-84547956D01*
X109046190Y-84643194D01*
X109046190Y-85024147D01*
X108617619Y-84071766D02*
X108570000Y-84024147D01*
X108522380Y-83928909D01*
X108522380Y-83690813D01*
X108570000Y-83595575D01*
X108617619Y-83547956D01*
X108712857Y-83500337D01*
X108808095Y-83500337D01*
X108950952Y-83547956D01*
X109522380Y-84119385D01*
X109522380Y-83500337D01*
%TO.C,J1*%
X151676666Y-163952380D02*
X151676666Y-164666666D01*
X151629047Y-164809523D01*
X151533809Y-164904761D01*
X151390952Y-164952380D01*
X151295714Y-164952380D01*
X152676666Y-164952380D02*
X152105238Y-164952380D01*
X152390952Y-164952380D02*
X152390952Y-163952380D01*
X152295714Y-164095238D01*
X152200476Y-164190476D01*
X152105238Y-164238095D01*
%TO.C,C1*%
X120077142Y-173941778D02*
X120124761Y-173989397D01*
X120172380Y-174132254D01*
X120172380Y-174227492D01*
X120124761Y-174370350D01*
X120029523Y-174465588D01*
X119934285Y-174513207D01*
X119743809Y-174560826D01*
X119600952Y-174560826D01*
X119410476Y-174513207D01*
X119315238Y-174465588D01*
X119220000Y-174370350D01*
X119172380Y-174227492D01*
X119172380Y-174132254D01*
X119220000Y-173989397D01*
X119267619Y-173941778D01*
X120172380Y-172989397D02*
X120172380Y-173560826D01*
X120172380Y-173275112D02*
X119172380Y-173275112D01*
X119315238Y-173370350D01*
X119410476Y-173465588D01*
X119458095Y-173560826D01*
%TO.C,R6*%
X107015357Y-34062380D02*
X106682024Y-33586190D01*
X106443928Y-34062380D02*
X106443928Y-33062380D01*
X106824881Y-33062380D01*
X106920119Y-33110000D01*
X106967738Y-33157619D01*
X107015357Y-33252857D01*
X107015357Y-33395714D01*
X106967738Y-33490952D01*
X106920119Y-33538571D01*
X106824881Y-33586190D01*
X106443928Y-33586190D01*
X107872500Y-33062380D02*
X107682024Y-33062380D01*
X107586785Y-33110000D01*
X107539166Y-33157619D01*
X107443928Y-33300476D01*
X107396309Y-33490952D01*
X107396309Y-33871904D01*
X107443928Y-33967142D01*
X107491547Y-34014761D01*
X107586785Y-34062380D01*
X107777262Y-34062380D01*
X107872500Y-34014761D01*
X107920119Y-33967142D01*
X107967738Y-33871904D01*
X107967738Y-33633809D01*
X107920119Y-33538571D01*
X107872500Y-33490952D01*
X107777262Y-33443333D01*
X107586785Y-33443333D01*
X107491547Y-33490952D01*
X107443928Y-33538571D01*
X107396309Y-33633809D01*
%TO.C,C4*%
X133427142Y-38862718D02*
X133474761Y-38910337D01*
X133522380Y-39053194D01*
X133522380Y-39148432D01*
X133474761Y-39291290D01*
X133379523Y-39386528D01*
X133284285Y-39434147D01*
X133093809Y-39481766D01*
X132950952Y-39481766D01*
X132760476Y-39434147D01*
X132665238Y-39386528D01*
X132570000Y-39291290D01*
X132522380Y-39148432D01*
X132522380Y-39053194D01*
X132570000Y-38910337D01*
X132617619Y-38862718D01*
X132855714Y-38005575D02*
X133522380Y-38005575D01*
X132474761Y-38243671D02*
X133189047Y-38481766D01*
X133189047Y-37862718D01*
D16*
%TO.C,U3*%
X118030000Y-60751052D02*
X128310000Y-60751052D01*
X125820000Y-35171052D02*
X124170000Y-35171052D01*
X125820000Y-60691052D02*
X125820000Y-35171052D01*
X120520000Y-60691052D02*
X125820000Y-60691052D01*
X128310000Y-60751052D02*
X128310000Y-35111052D01*
X122170000Y-35171052D02*
X120520000Y-35171052D01*
X128310000Y-35111052D02*
X118030000Y-35111052D01*
X120520000Y-35171052D02*
X120520000Y-60691052D01*
X118030000Y-35111052D02*
X118030000Y-60751052D01*
X122170000Y-35171052D02*
G75*
G03*
X124170000Y-35171052I1000000J0D01*
G01*
%TO.C,C2*%
X129370000Y-113510000D02*
X129370000Y-120750000D01*
X132110000Y-120750000D02*
X129370000Y-120750000D01*
X132110000Y-113510000D02*
X132110000Y-120750000D01*
X132110000Y-113510000D02*
X129370000Y-113510000D01*
%TO.C,C7*%
X137434113Y-36657000D02*
X137434113Y-35303000D01*
X138354113Y-34940000D02*
X138354113Y-33945000D01*
X139555113Y-34940000D02*
X139555113Y-33430000D01*
X139835113Y-38558000D02*
X139835113Y-37020000D01*
X139355113Y-34940000D02*
X139355113Y-33469000D01*
X139074113Y-34940000D02*
X139074113Y-33552000D01*
X138714113Y-34940000D02*
X138714113Y-33712000D01*
X139315113Y-38481000D02*
X139315113Y-37020000D01*
X137354113Y-36264000D02*
X137354113Y-35696000D01*
X139915113Y-34940000D02*
X139915113Y-33400000D01*
X139234113Y-34940000D02*
X139234113Y-33500000D01*
X138474113Y-38102000D02*
X138474113Y-37020000D01*
X138074113Y-34940000D02*
X138074113Y-34195000D01*
X139154113Y-38435000D02*
X139154113Y-37020000D01*
X138994113Y-38378000D02*
X138994113Y-37020000D01*
X139555113Y-38530000D02*
X139555113Y-37020000D01*
X138194113Y-37881000D02*
X138194113Y-37020000D01*
X139275113Y-34940000D02*
X139275113Y-33489000D01*
X138314113Y-37984000D02*
X138314113Y-37020000D01*
X137634113Y-37158000D02*
X137634113Y-34802000D01*
X139955113Y-34940000D02*
X139955113Y-33400000D01*
X138274113Y-34940000D02*
X138274113Y-34009000D01*
X138914113Y-38345000D02*
X138914113Y-37020000D01*
X139395113Y-34940000D02*
X139395113Y-33460000D01*
X139515113Y-38523000D02*
X139515113Y-37020000D01*
X139795113Y-38556000D02*
X139795113Y-37020000D01*
X139475113Y-38516000D02*
X139475113Y-37020000D01*
X138954113Y-38362000D02*
X138954113Y-37020000D01*
X139795113Y-34940000D02*
X139795113Y-33404000D01*
X138634113Y-34940000D02*
X138634113Y-33756000D01*
X138514113Y-38129000D02*
X138514113Y-37020000D01*
X138554113Y-34940000D02*
X138554113Y-33805000D01*
X138594113Y-34940000D02*
X138594113Y-33780000D01*
X137754113Y-37363000D02*
X137754113Y-34597000D01*
X138954113Y-34940000D02*
X138954113Y-33598000D01*
X139715113Y-34940000D02*
X139715113Y-33411000D01*
X138194113Y-34940000D02*
X138194113Y-34079000D01*
X138274113Y-37951000D02*
X138274113Y-37020000D01*
X139875113Y-38559000D02*
X139875113Y-37020000D01*
X139114113Y-38422000D02*
X139114113Y-37020000D01*
X138314113Y-34940000D02*
X138314113Y-33976000D01*
X138074113Y-37765000D02*
X138074113Y-37020000D01*
X137954113Y-34940000D02*
X137954113Y-34327000D01*
X138594113Y-38180000D02*
X138594113Y-37020000D01*
X138034113Y-34940000D02*
X138034113Y-34237000D01*
X138794113Y-34940000D02*
X138794113Y-33670000D01*
X138474113Y-34940000D02*
X138474113Y-33858000D01*
X138154113Y-37844000D02*
X138154113Y-37020000D01*
X138754113Y-34940000D02*
X138754113Y-33690000D01*
X138794113Y-38290000D02*
X138794113Y-37020000D01*
X137674113Y-37231000D02*
X137674113Y-34729000D01*
X138994113Y-34940000D02*
X138994113Y-33582000D01*
X137394113Y-36498000D02*
X137394113Y-35462000D01*
X138554113Y-38155000D02*
X138554113Y-37020000D01*
X138114113Y-37806000D02*
X138114113Y-37020000D01*
X137594113Y-37078000D02*
X137594113Y-34882000D01*
X139595113Y-38536000D02*
X139595113Y-37020000D01*
X138234113Y-34940000D02*
X138234113Y-34043000D01*
X139194113Y-38448000D02*
X139194113Y-37020000D01*
X139034113Y-34940000D02*
X139034113Y-33566000D01*
X138674113Y-34940000D02*
X138674113Y-33733000D01*
X139315113Y-34940000D02*
X139315113Y-33479000D01*
X139154113Y-34940000D02*
X139154113Y-33525000D01*
X138234113Y-37917000D02*
X138234113Y-37020000D01*
X139074113Y-38408000D02*
X139074113Y-37020000D01*
X138634113Y-38204000D02*
X138634113Y-37020000D01*
X138034113Y-37723000D02*
X138034113Y-37020000D01*
X139715113Y-38549000D02*
X139715113Y-37020000D01*
X139475113Y-34940000D02*
X139475113Y-33444000D01*
X139435113Y-34940000D02*
X139435113Y-33452000D01*
X138514113Y-34940000D02*
X138514113Y-33831000D01*
X138674113Y-38227000D02*
X138674113Y-37020000D01*
X137874113Y-37534000D02*
X137874113Y-34426000D01*
X139635113Y-34940000D02*
X139635113Y-33419000D01*
X137994113Y-34940000D02*
X137994113Y-34281000D01*
X139635113Y-38541000D02*
X139635113Y-37020000D01*
X139915113Y-38560000D02*
X139915113Y-37020000D01*
X139114113Y-34940000D02*
X139114113Y-33538000D01*
X139595113Y-34940000D02*
X139595113Y-33424000D01*
X139875113Y-34940000D02*
X139875113Y-33401000D01*
X139275113Y-38471000D02*
X139275113Y-37020000D01*
X137474113Y-36785000D02*
X137474113Y-35175000D01*
X138834113Y-38309000D02*
X138834113Y-37020000D01*
X139435113Y-38508000D02*
X139435113Y-37020000D01*
X138434113Y-38075000D02*
X138434113Y-37020000D01*
X138154113Y-34940000D02*
X138154113Y-34116000D01*
X139234113Y-38460000D02*
X139234113Y-37020000D01*
X142509888Y-37705000D02*
X142509888Y-37205000D01*
X137914113Y-37585000D02*
X137914113Y-34375000D01*
X139515113Y-34940000D02*
X139515113Y-33437000D01*
X139355113Y-38491000D02*
X139355113Y-37020000D01*
X137514113Y-36895000D02*
X137514113Y-35065000D01*
X137794113Y-37423000D02*
X137794113Y-34537000D01*
X138394113Y-38045000D02*
X138394113Y-37020000D01*
X139835113Y-34940000D02*
X139835113Y-33402000D01*
X142759888Y-37455000D02*
X142259888Y-37455000D01*
X137834113Y-37480000D02*
X137834113Y-34480000D01*
X139755113Y-34940000D02*
X139755113Y-33407000D01*
X139194113Y-34940000D02*
X139194113Y-33512000D01*
X139034113Y-38394000D02*
X139034113Y-37020000D01*
X138874113Y-34940000D02*
X138874113Y-33632000D01*
X139395113Y-38500000D02*
X139395113Y-37020000D01*
X138914113Y-34940000D02*
X138914113Y-33615000D01*
X137994113Y-37679000D02*
X137994113Y-37020000D01*
X138114113Y-34940000D02*
X138114113Y-34154000D01*
X137954113Y-37633000D02*
X137954113Y-37020000D01*
X138874113Y-38328000D02*
X138874113Y-37020000D01*
X138354113Y-38015000D02*
X138354113Y-37020000D01*
X138394113Y-34940000D02*
X138394113Y-33915000D01*
X137714113Y-37299000D02*
X137714113Y-34661000D01*
X138754113Y-38270000D02*
X138754113Y-37020000D01*
X137554113Y-36991000D02*
X137554113Y-34969000D01*
X138714113Y-38248000D02*
X138714113Y-37020000D01*
X138834113Y-34940000D02*
X138834113Y-33651000D01*
X138434113Y-34940000D02*
X138434113Y-33885000D01*
X139755113Y-38553000D02*
X139755113Y-37020000D01*
X139955113Y-38560000D02*
X139955113Y-37020000D01*
X139675113Y-38545000D02*
X139675113Y-37020000D01*
X139675113Y-34940000D02*
X139675113Y-33415000D01*
X142575113Y-35980000D02*
G75*
G03*
X142575113Y-35980000I-2620000J0D01*
G01*
%TO.C,J4*%
X97380000Y-143110000D02*
X97380000Y-169100000D01*
X98760000Y-104440000D02*
X59900000Y-104460000D01*
X90880000Y-113020000D02*
X97380000Y-113020000D01*
X90880000Y-169100000D02*
X90880000Y-113020000D01*
X98770000Y-177670000D02*
X98770000Y-104440000D01*
X97380000Y-139010000D02*
X97380000Y-139010000D01*
X97380000Y-169100000D02*
X90880000Y-169100000D01*
X97380000Y-139010000D02*
X98690000Y-139010000D01*
X59890000Y-177670000D02*
X98770000Y-177670000D01*
X97380000Y-113020000D02*
X97380000Y-139010000D01*
X98690000Y-143110000D02*
X97380000Y-143110000D01*
X59900000Y-104460000D02*
X59890000Y-177670000D01*
%TO.C,U4*%
X125820000Y-76071052D02*
X124170000Y-76071052D01*
X120520000Y-76071052D02*
X120520000Y-101591052D01*
X120520000Y-101591052D02*
X125820000Y-101591052D01*
X118030000Y-101651052D02*
X128310000Y-101651052D01*
X128310000Y-76011052D02*
X118030000Y-76011052D01*
X122170000Y-76071052D02*
X120520000Y-76071052D01*
X128310000Y-101651052D02*
X128310000Y-76011052D01*
X118030000Y-76011052D02*
X118030000Y-101651052D01*
X125820000Y-101591052D02*
X125820000Y-76071052D01*
X122170000Y-76071052D02*
G75*
G03*
X124170000Y-76071052I1000000J0D01*
G01*
%TO.C,R4*%
X107664000Y-146026000D02*
X107664000Y-145696000D01*
X107664000Y-145696000D02*
X101124000Y-145696000D01*
X101124000Y-148436000D02*
X101124000Y-148106000D01*
X101124000Y-145696000D02*
X101124000Y-146026000D01*
X107664000Y-148106000D02*
X107664000Y-148436000D01*
X107664000Y-148436000D02*
X101124000Y-148436000D01*
%TO.C,D1*%
X90190060Y-28660000D02*
X90190060Y-26000000D01*
X87590060Y-26000000D02*
X90190060Y-26000000D01*
X86320060Y-28660000D02*
X84990060Y-28660000D01*
X87590060Y-28660000D02*
X87590060Y-26000000D01*
X84990060Y-28660000D02*
X84990060Y-27330000D01*
X87590060Y-28660000D02*
X90190060Y-28660000D01*
%TO.C,R7*%
X97070000Y-34520000D02*
X97070000Y-41060000D01*
X94330000Y-34520000D02*
X94330000Y-41060000D01*
X94660000Y-34520000D02*
X94330000Y-34520000D01*
X94330000Y-41060000D02*
X94660000Y-41060000D01*
X96740000Y-34520000D02*
X97070000Y-34520000D01*
X97070000Y-41060000D02*
X96740000Y-41060000D01*
%TO.C,U2*%
X125570000Y-166690000D02*
X125570000Y-146250000D01*
X121920000Y-146250000D02*
X120270000Y-146250000D01*
X117780000Y-166750000D02*
X128060000Y-166750000D01*
X120270000Y-166690000D02*
X125570000Y-166690000D01*
X128060000Y-166750000D02*
X128060000Y-146190000D01*
X117780000Y-146190000D02*
X117780000Y-166750000D01*
X128060000Y-146190000D02*
X117780000Y-146190000D01*
X125570000Y-146250000D02*
X123920000Y-146250000D01*
X120270000Y-146250000D02*
X120270000Y-166690000D01*
X121920000Y-146250000D02*
G75*
G03*
X123920000Y-146250000I1000000J0D01*
G01*
%TO.C,J3*%
X122250000Y-182298571D02*
X122250000Y-184958571D01*
X122250000Y-182298571D02*
X119650000Y-182298571D01*
X124850000Y-182298571D02*
X124850000Y-183628571D01*
X119650000Y-182298571D02*
X119650000Y-184958571D01*
X122250000Y-184958571D02*
X119650000Y-184958571D01*
X123520000Y-182298571D02*
X124850000Y-182298571D01*
%TO.C,R5*%
X112250000Y-164710000D02*
X105710000Y-164710000D01*
X105710000Y-164710000D02*
X105710000Y-164380000D01*
X112250000Y-162300000D02*
X112250000Y-161970000D01*
X112250000Y-161970000D02*
X105710000Y-161970000D01*
X112250000Y-164380000D02*
X112250000Y-164710000D01*
X105710000Y-161970000D02*
X105710000Y-162300000D01*
%TO.C,C6*%
X101950000Y-42876052D02*
X104690000Y-42876052D01*
X101950000Y-35636052D02*
X104690000Y-35636052D01*
X101950000Y-42876052D02*
X101950000Y-35636052D01*
X104690000Y-42876052D02*
X104690000Y-35636052D01*
%TO.C,C3*%
X129480000Y-144120000D02*
X129480000Y-151360000D01*
X131720000Y-144120000D02*
X131720000Y-151360000D01*
X131720000Y-151360000D02*
X129480000Y-151360000D01*
X131720000Y-144120000D02*
X129480000Y-144120000D01*
%TO.C,D3*%
X107177024Y-28660000D02*
X109777024Y-28660000D01*
X109777024Y-28660000D02*
X109777024Y-26000000D01*
X107177024Y-28660000D02*
X107177024Y-26000000D01*
X105907024Y-28660000D02*
X104577024Y-28660000D01*
X104577024Y-28660000D02*
X104577024Y-27330000D01*
X107177024Y-26000000D02*
X109777024Y-26000000D01*
%TO.C,R3*%
X128225060Y-32610000D02*
X128225060Y-32280000D01*
X128225060Y-29870000D02*
X128225060Y-30200000D01*
X121685060Y-32610000D02*
X128225060Y-32610000D01*
X121685060Y-29870000D02*
X128225060Y-29870000D01*
X121685060Y-32280000D02*
X121685060Y-32610000D01*
X121685060Y-30200000D02*
X121685060Y-29870000D01*
%TO.C,U5*%
X102140000Y-53920000D02*
X102140000Y-43640000D01*
X98490000Y-43640000D02*
X96840000Y-43640000D01*
X96840000Y-43640000D02*
X96840000Y-53920000D01*
X96840000Y-53920000D02*
X102140000Y-53920000D01*
X102140000Y-43640000D02*
X100490000Y-43640000D01*
X98490000Y-43640000D02*
G75*
G03*
X100490000Y-43640000I1000000J0D01*
G01*
%TO.C,J5*%
X155455000Y-66326052D02*
X156765000Y-66326052D01*
X155455000Y-96416052D02*
X148955000Y-96416052D01*
X155455000Y-70426052D02*
X155455000Y-96416052D01*
X156765000Y-70426052D02*
X155455000Y-70426052D01*
X147645000Y-97716052D02*
X147645000Y-39036052D01*
X148955000Y-96416052D02*
X148955000Y-40336052D01*
X148955000Y-40336052D02*
X155455000Y-40336052D01*
X147645000Y-39036052D02*
X156765000Y-39036052D01*
X155455000Y-40336052D02*
X155455000Y-66326052D01*
X155455000Y-66326052D02*
X155455000Y-66326052D01*
X156765000Y-39036052D02*
X156765000Y-97716052D01*
X156765000Y-97716052D02*
X147645000Y-97716052D01*
%TO.C,P1*%
X142730060Y-28670000D02*
X145330060Y-28670000D01*
X142730060Y-28670000D02*
X142730060Y-26010000D01*
X145330060Y-28670000D02*
X145330060Y-26010000D01*
X141460060Y-28670000D02*
X140130060Y-28670000D01*
X142730060Y-26010000D02*
X145330060Y-26010000D01*
X140130060Y-28670000D02*
X140130060Y-27340000D01*
%TO.C,JP1*%
X139765000Y-185040000D02*
X137165000Y-185040000D01*
X139765000Y-182380000D02*
X139765000Y-185040000D01*
X137165000Y-182380000D02*
X137165000Y-185040000D01*
X142365000Y-182380000D02*
X142365000Y-183710000D01*
X139765000Y-182380000D02*
X137165000Y-182380000D01*
X141035000Y-182380000D02*
X142365000Y-182380000D01*
%TO.C,D2*%
X124950060Y-26000000D02*
X127550060Y-26000000D01*
X127550060Y-28660000D02*
X127550060Y-26000000D01*
X123680060Y-28660000D02*
X122350060Y-28660000D01*
X124950060Y-28660000D02*
X124950060Y-26000000D01*
X124950060Y-28660000D02*
X127550060Y-28660000D01*
X122350060Y-28660000D02*
X122350060Y-27330000D01*
%TO.C,U1*%
X128060000Y-133370000D02*
X128060000Y-115350000D01*
X117780000Y-115350000D02*
X117780000Y-133370000D01*
X120270000Y-115410000D02*
X120270000Y-133310000D01*
X121920000Y-115410000D02*
X120270000Y-115410000D01*
X125570000Y-133310000D02*
X125570000Y-115410000D01*
X125570000Y-115410000D02*
X123920000Y-115410000D01*
X117780000Y-133370000D02*
X128060000Y-133370000D01*
X120270000Y-133310000D02*
X125570000Y-133310000D01*
X128060000Y-115350000D02*
X117780000Y-115350000D01*
X121920000Y-115410000D02*
G75*
G03*
X123920000Y-115410000I1000000J0D01*
G01*
%TO.C,J2*%
X101030000Y-184980000D02*
X101030000Y-182320000D01*
X98430000Y-184980000D02*
X98430000Y-183650000D01*
X99760000Y-184980000D02*
X98430000Y-184980000D01*
X101030000Y-182320000D02*
X108710000Y-182320000D01*
X108710000Y-184980000D02*
X108710000Y-182320000D01*
X101030000Y-184980000D02*
X108710000Y-184980000D01*
%TO.C,R1*%
X105710000Y-140830000D02*
X105710000Y-141160000D01*
X105710000Y-143570000D02*
X105710000Y-143240000D01*
X112250000Y-141160000D02*
X112250000Y-140830000D01*
X112250000Y-140830000D02*
X105710000Y-140830000D01*
X112250000Y-143570000D02*
X105710000Y-143570000D01*
X112250000Y-143240000D02*
X112250000Y-143570000D01*
%TO.C,C5*%
X129250000Y-74476052D02*
X129250000Y-81716052D01*
X131990000Y-74476052D02*
X129250000Y-74476052D01*
X131990000Y-74476052D02*
X131990000Y-81716052D01*
X131990000Y-81716052D02*
X129250000Y-81716052D01*
%TO.C,J6*%
X68830000Y-36541052D02*
X65390000Y-36541052D01*
X62330000Y-56141052D02*
X60530000Y-56141052D01*
X62330000Y-39601052D02*
X62330000Y-43541052D01*
X60530000Y-56141052D02*
X60530000Y-64261052D01*
X86290000Y-94561052D02*
X86290000Y-93231052D01*
X62330000Y-64261052D02*
X62330000Y-83491052D01*
X60530000Y-64261052D02*
X62330000Y-64261052D01*
X88890000Y-91961052D02*
X86290000Y-91961052D01*
X61630000Y-94911052D02*
X62330000Y-94911052D01*
X91490000Y-94561052D02*
X88890000Y-94561052D01*
X86290000Y-91961052D02*
X86290000Y-43641052D01*
X62330000Y-94911052D02*
X62330000Y-98601052D01*
X89390000Y-101661052D02*
X65390000Y-101661052D01*
X62330000Y-83491052D02*
X61630000Y-83491052D01*
X87620000Y-94561052D02*
X86290000Y-94561052D01*
X60530000Y-43541052D02*
X60530000Y-51661052D01*
X60530000Y-51661052D02*
X62330000Y-51661052D01*
X91490000Y-94561052D02*
X91490000Y-43641052D01*
X61630000Y-83491052D02*
X61630000Y-94911052D01*
X62330000Y-43541052D02*
X60530000Y-43541052D01*
X85950000Y-36541052D02*
X89390000Y-36541052D01*
X85950000Y-35341052D02*
X68830000Y-35341052D01*
X92450000Y-39601052D02*
X92450000Y-98601052D01*
X85950000Y-36541052D02*
X85950000Y-35341052D01*
X62330000Y-51661052D02*
X62330000Y-56141052D01*
X68830000Y-35341052D02*
X68830000Y-36541052D01*
X91490000Y-43641052D02*
X86290000Y-43641052D01*
X88890000Y-94561052D02*
X88890000Y-91961052D01*
X62330000Y-98601052D02*
G75*
G03*
X65390000Y-101661052I3060000J0D01*
G01*
X65390000Y-36541052D02*
G75*
G03*
X62330000Y-39601052I0J-3060000D01*
G01*
X89390000Y-101661052D02*
G75*
G03*
X92450000Y-98601052I1J3059999D01*
G01*
X92450000Y-39601052D02*
G75*
G03*
X89390000Y-36541052I-3059999J1D01*
G01*
%TO.C,R2*%
X90865060Y-29870000D02*
X90865060Y-30200000D01*
X84325060Y-29870000D02*
X90865060Y-29870000D01*
X84325060Y-32610000D02*
X90865060Y-32610000D01*
X84325060Y-32280000D02*
X84325060Y-32610000D01*
X84325060Y-30200000D02*
X84325060Y-29870000D01*
X90865060Y-32610000D02*
X90865060Y-32280000D01*
%TO.C,P2*%
X105470000Y-85616052D02*
X100330000Y-85616052D01*
X105470000Y-82956052D02*
X105470000Y-85616052D01*
X108070000Y-82956052D02*
X108070000Y-84286052D01*
X106740000Y-82956052D02*
X108070000Y-82956052D01*
X105470000Y-82956052D02*
X100330000Y-82956052D01*
X100330000Y-82956052D02*
X100330000Y-85616052D01*
%TO.C,J1*%
X155205000Y-116830000D02*
X155205000Y-139010000D01*
X148705000Y-116830000D02*
X155205000Y-116830000D01*
X156515000Y-166590000D02*
X147395000Y-166590000D01*
X156515000Y-143110000D02*
X155205000Y-143110000D01*
X155205000Y-165290000D02*
X148705000Y-165290000D01*
X155205000Y-139010000D02*
X156515000Y-139010000D01*
X155205000Y-143110000D02*
X155205000Y-165290000D01*
X155205000Y-139010000D02*
X155205000Y-139010000D01*
X148705000Y-165290000D02*
X148705000Y-116830000D01*
X147395000Y-115530000D02*
X156515000Y-115530000D01*
X147395000Y-166590000D02*
X147395000Y-115530000D01*
X156515000Y-115530000D02*
X156515000Y-166590000D01*
%TO.C,C1*%
X124510000Y-172374112D02*
X125645000Y-172374112D01*
X120892000Y-173655112D02*
X122430000Y-173655112D01*
X122459000Y-171374112D02*
X124481000Y-171374112D01*
X121105000Y-172734112D02*
X122430000Y-172734112D01*
X124510000Y-173575112D02*
X126043000Y-173575112D01*
X121970000Y-171654112D02*
X124970000Y-171654112D01*
X124510000Y-172694112D02*
X125818000Y-172694112D01*
X124510000Y-173295112D02*
X126006000Y-173295112D01*
X121270000Y-172414112D02*
X122430000Y-172414112D01*
X120905000Y-173495112D02*
X122430000Y-173495112D01*
X121466000Y-172134112D02*
X122430000Y-172134112D01*
X120901000Y-173535112D02*
X122430000Y-173535112D01*
X121072000Y-172814112D02*
X122430000Y-172814112D01*
X124510000Y-173495112D02*
X126035000Y-173495112D01*
X124510000Y-173095112D02*
X125961000Y-173095112D01*
X121295000Y-172374112D02*
X122430000Y-172374112D01*
X121002000Y-173014112D02*
X122430000Y-173014112D01*
X124510000Y-173215112D02*
X125990000Y-173215112D01*
X120979000Y-173095112D02*
X122430000Y-173095112D01*
X124510000Y-173535112D02*
X126039000Y-173535112D01*
X124510000Y-172814112D02*
X125868000Y-172814112D01*
X120890000Y-173735112D02*
X122430000Y-173735112D01*
X124510000Y-172014112D02*
X125371000Y-172014112D01*
X122292000Y-171454112D02*
X124648000Y-171454112D01*
X121865000Y-171734112D02*
X125075000Y-171734112D01*
X120950000Y-173215112D02*
X122430000Y-173215112D01*
X120969000Y-173135112D02*
X122430000Y-173135112D01*
X124510000Y-172414112D02*
X125670000Y-172414112D01*
X124510000Y-172454112D02*
X125694000Y-172454112D01*
X124510000Y-173695112D02*
X126049000Y-173695112D01*
X124510000Y-172254112D02*
X125565000Y-172254112D01*
X124510000Y-173735112D02*
X126050000Y-173735112D01*
X122219000Y-171494112D02*
X124721000Y-171494112D01*
X124510000Y-171814112D02*
X125169000Y-171814112D01*
X124510000Y-172774112D02*
X125852000Y-172774112D01*
X121088000Y-172774112D02*
X122430000Y-172774112D01*
X120959000Y-173175112D02*
X122430000Y-173175112D01*
X121160000Y-172614112D02*
X122430000Y-172614112D01*
X120927000Y-173335112D02*
X122430000Y-173335112D01*
X121015000Y-172974112D02*
X122430000Y-172974112D01*
X122027000Y-171614112D02*
X124913000Y-171614112D01*
X121685000Y-171894112D02*
X122430000Y-171894112D01*
X124510000Y-171854112D02*
X125213000Y-171854112D01*
X123186000Y-171174112D02*
X123754000Y-171174112D01*
X124510000Y-172934112D02*
X125912000Y-172934112D01*
X121375000Y-172254112D02*
X122430000Y-172254112D01*
X124510000Y-172494112D02*
X125717000Y-172494112D01*
X124510000Y-172094112D02*
X125441000Y-172094112D01*
X121321000Y-172334112D02*
X122430000Y-172334112D01*
X124510000Y-173335112D02*
X126013000Y-173335112D01*
X124510000Y-172974112D02*
X125925000Y-172974112D01*
X121435000Y-172174112D02*
X122430000Y-172174112D01*
X124510000Y-172574112D02*
X125760000Y-172574112D01*
X120891000Y-173695112D02*
X122430000Y-173695112D01*
X120914000Y-173415112D02*
X122430000Y-173415112D01*
X124510000Y-173455112D02*
X126031000Y-173455112D01*
X124510000Y-172894112D02*
X125898000Y-172894112D01*
X124510000Y-173615112D02*
X126046000Y-173615112D01*
X121042000Y-172894112D02*
X122430000Y-172894112D01*
X124510000Y-173014112D02*
X125938000Y-173014112D01*
X124510000Y-173175112D02*
X125981000Y-173175112D01*
X124510000Y-172174112D02*
X125505000Y-172174112D01*
X121499000Y-172094112D02*
X122430000Y-172094112D01*
X121606000Y-171974112D02*
X122430000Y-171974112D01*
X121745000Y-176329887D02*
X122245000Y-176329887D01*
X122087000Y-171574112D02*
X124853000Y-171574112D01*
X121202000Y-172534112D02*
X122430000Y-172534112D01*
X124510000Y-172054112D02*
X125407000Y-172054112D01*
X124510000Y-172214112D02*
X125535000Y-172214112D01*
X121028000Y-172934112D02*
X122430000Y-172934112D01*
X120920000Y-173375112D02*
X122430000Y-173375112D01*
X124510000Y-173415112D02*
X126026000Y-173415112D01*
X121405000Y-172214112D02*
X122430000Y-172214112D01*
X121180000Y-172574112D02*
X122430000Y-172574112D01*
X121223000Y-172494112D02*
X122430000Y-172494112D01*
X121644000Y-171934112D02*
X122430000Y-171934112D01*
X122665000Y-171294112D02*
X124275000Y-171294112D01*
X124510000Y-172134112D02*
X125474000Y-172134112D01*
X120934000Y-173295112D02*
X122430000Y-173295112D01*
X122555000Y-171334112D02*
X124385000Y-171334112D01*
X121817000Y-171774112D02*
X122430000Y-171774112D01*
X124510000Y-172534112D02*
X125738000Y-172534112D01*
X122793000Y-171254112D02*
X124147000Y-171254112D01*
X120894000Y-173615112D02*
X122430000Y-173615112D01*
X120942000Y-173255112D02*
X122430000Y-173255112D01*
X124510000Y-173655112D02*
X126048000Y-173655112D01*
X124510000Y-172334112D02*
X125619000Y-172334112D01*
X120990000Y-173054112D02*
X122430000Y-173054112D01*
X124510000Y-172614112D02*
X125780000Y-172614112D01*
X124510000Y-172294112D02*
X125592000Y-172294112D01*
X124510000Y-173775112D02*
X126050000Y-173775112D01*
X124510000Y-173375112D02*
X126020000Y-173375112D01*
X120909000Y-173455112D02*
X122430000Y-173455112D01*
X121727000Y-171854112D02*
X122430000Y-171854112D01*
X121246000Y-172454112D02*
X122430000Y-172454112D01*
X124510000Y-172654112D02*
X125799000Y-172654112D01*
X120890000Y-173775112D02*
X122430000Y-173775112D01*
X121141000Y-172654112D02*
X122430000Y-172654112D01*
X124510000Y-173135112D02*
X125971000Y-173135112D01*
X122952000Y-171214112D02*
X123988000Y-171214112D01*
X121569000Y-172014112D02*
X122430000Y-172014112D01*
X122372000Y-171414112D02*
X124568000Y-171414112D01*
X124510000Y-172854112D02*
X125884000Y-172854112D01*
X124510000Y-171934112D02*
X125296000Y-171934112D01*
X124510000Y-171774112D02*
X125123000Y-171774112D01*
X122151000Y-171534112D02*
X124789000Y-171534112D01*
X120897000Y-173575112D02*
X122430000Y-173575112D01*
X121056000Y-172854112D02*
X122430000Y-172854112D01*
X124510000Y-171974112D02*
X125334000Y-171974112D01*
X121348000Y-172294112D02*
X122430000Y-172294112D01*
X121916000Y-171694112D02*
X125024000Y-171694112D01*
X121533000Y-172054112D02*
X122430000Y-172054112D01*
X121122000Y-172694112D02*
X122430000Y-172694112D01*
X124510000Y-172734112D02*
X125835000Y-172734112D01*
X124510000Y-171894112D02*
X125255000Y-171894112D01*
X124510000Y-173255112D02*
X125998000Y-173255112D01*
X121995000Y-176579887D02*
X121995000Y-176079887D01*
X121771000Y-171814112D02*
X122430000Y-171814112D01*
X124510000Y-173054112D02*
X125950000Y-173054112D01*
X126090000Y-173775112D02*
G75*
G03*
X126090000Y-173775112I-2620000J0D01*
G01*
%TO.C,R6*%
X103912024Y-32610000D02*
X103912024Y-32280000D01*
X110452024Y-32610000D02*
X103912024Y-32610000D01*
X110452024Y-32280000D02*
X110452024Y-32610000D01*
X103912024Y-29870000D02*
X103912024Y-30200000D01*
X110452024Y-30200000D02*
X110452024Y-29870000D01*
X110452024Y-29870000D02*
X103912024Y-29870000D01*
%TO.C,C4*%
X131940000Y-35076052D02*
X131940000Y-42316052D01*
X131940000Y-35076052D02*
X129200000Y-35076052D01*
X131940000Y-42316052D02*
X129200000Y-42316052D01*
X129200000Y-35076052D02*
X129200000Y-42316052D01*
%TD*%
M02*
