%TF.GenerationSoftware,KiCad,Pcbnew,(6.0.11)*%
%TF.CreationDate,2024-01-19T00:31:17+00:00*%
%TF.ProjectId,BBCWinchesterPro,42424357-696e-4636-9865-737465725072,rev?*%
%TF.SameCoordinates,Original*%
%TF.FileFunction,Legend,Bot*%
%TF.FilePolarity,Positive*%
%FSLAX46Y46*%
G04 Gerber Fmt 4.6, Leading zero omitted, Abs format (unit mm)*
G04 Created by KiCad (PCBNEW (6.0.11)) date 2024-01-19 00:31:17*
%MOMM*%
%LPD*%
G01*
G04 APERTURE LIST*
%ADD10C,0.700000*%
G04 APERTURE END LIST*
D10*
X138547857Y-160385714D02*
X141547857Y-160385714D01*
X138547857Y-159100000D02*
X140119285Y-159100000D01*
X140405000Y-159242857D01*
X140547857Y-159528571D01*
X140547857Y-159957142D01*
X140405000Y-160242857D01*
X140262142Y-160385714D01*
X140547857Y-158100000D02*
X140547857Y-156957142D01*
X141547857Y-157671428D02*
X138976428Y-157671428D01*
X138690714Y-157528571D01*
X138547857Y-157242857D01*
X138547857Y-156957142D01*
X140547857Y-156385714D02*
X140547857Y-155242857D01*
X141547857Y-155957142D02*
X138976428Y-155957142D01*
X138690714Y-155814285D01*
X138547857Y-155528571D01*
X138547857Y-155242857D01*
X140547857Y-154242857D02*
X137547857Y-154242857D01*
X140405000Y-154242857D02*
X140547857Y-153957142D01*
X140547857Y-153385714D01*
X140405000Y-153100000D01*
X140262142Y-152957142D01*
X139976428Y-152814285D01*
X139119285Y-152814285D01*
X138833571Y-152957142D01*
X138690714Y-153100000D01*
X138547857Y-153385714D01*
X138547857Y-153957142D01*
X138690714Y-154242857D01*
X138690714Y-151671428D02*
X138547857Y-151385714D01*
X138547857Y-150814285D01*
X138690714Y-150528571D01*
X138976428Y-150385714D01*
X139119285Y-150385714D01*
X139405000Y-150528571D01*
X139547857Y-150814285D01*
X139547857Y-151242857D01*
X139690714Y-151528571D01*
X139976428Y-151671428D01*
X140119285Y-151671428D01*
X140405000Y-151528571D01*
X140547857Y-151242857D01*
X140547857Y-150814285D01*
X140405000Y-150528571D01*
X138833571Y-149100000D02*
X138690714Y-148957142D01*
X138547857Y-149100000D01*
X138690714Y-149242857D01*
X138833571Y-149100000D01*
X138547857Y-149100000D01*
X140405000Y-149100000D02*
X140262142Y-148957142D01*
X140119285Y-149100000D01*
X140262142Y-149242857D01*
X140405000Y-149100000D01*
X140119285Y-149100000D01*
X141690714Y-145528571D02*
X137833571Y-148100000D01*
X141690714Y-142385714D02*
X137833571Y-144957142D01*
X140547857Y-140099999D02*
X138119285Y-140099999D01*
X137833571Y-140242857D01*
X137690714Y-140385714D01*
X137547857Y-140671428D01*
X137547857Y-141099999D01*
X137690714Y-141385714D01*
X138690714Y-140099999D02*
X138547857Y-140385714D01*
X138547857Y-140957142D01*
X138690714Y-141242857D01*
X138833571Y-141385714D01*
X139119285Y-141528571D01*
X139976428Y-141528571D01*
X140262142Y-141385714D01*
X140405000Y-141242857D01*
X140547857Y-140957142D01*
X140547857Y-140385714D01*
X140405000Y-140099999D01*
X138547857Y-138671428D02*
X140547857Y-138671428D01*
X141547857Y-138671428D02*
X141405000Y-138814285D01*
X141262142Y-138671428D01*
X141405000Y-138528571D01*
X141547857Y-138671428D01*
X141262142Y-138671428D01*
X140547857Y-137671428D02*
X140547857Y-136528571D01*
X141547857Y-137242857D02*
X138976428Y-137242857D01*
X138690714Y-137099999D01*
X138547857Y-136814285D01*
X138547857Y-136528571D01*
X138547857Y-135528571D02*
X141547857Y-135528571D01*
X138547857Y-134242857D02*
X140119285Y-134242857D01*
X140405000Y-134385714D01*
X140547857Y-134671428D01*
X140547857Y-135099999D01*
X140405000Y-135385714D01*
X140262142Y-135528571D01*
X140547857Y-131528571D02*
X138547857Y-131528571D01*
X140547857Y-132814285D02*
X138976428Y-132814285D01*
X138690714Y-132671428D01*
X138547857Y-132385714D01*
X138547857Y-131957142D01*
X138690714Y-131671428D01*
X138833571Y-131528571D01*
X138547857Y-130099999D02*
X141547857Y-130099999D01*
X140405000Y-130099999D02*
X140547857Y-129814285D01*
X140547857Y-129242857D01*
X140405000Y-128957142D01*
X140262142Y-128814285D01*
X139976428Y-128671428D01*
X139119285Y-128671428D01*
X138833571Y-128814285D01*
X138690714Y-128957142D01*
X138547857Y-129242857D01*
X138547857Y-129814285D01*
X138690714Y-130099999D01*
X138833571Y-127385714D02*
X138690714Y-127242857D01*
X138547857Y-127385714D01*
X138690714Y-127528571D01*
X138833571Y-127385714D01*
X138547857Y-127385714D01*
X138690714Y-124671428D02*
X138547857Y-124957142D01*
X138547857Y-125528571D01*
X138690714Y-125814285D01*
X138833571Y-125957142D01*
X139119285Y-126099999D01*
X139976428Y-126099999D01*
X140262142Y-125957142D01*
X140405000Y-125814285D01*
X140547857Y-125528571D01*
X140547857Y-124957142D01*
X140405000Y-124671428D01*
X138547857Y-122957142D02*
X138690714Y-123242857D01*
X138833571Y-123385714D01*
X139119285Y-123528571D01*
X139976428Y-123528571D01*
X140262142Y-123385714D01*
X140405000Y-123242857D01*
X140547857Y-122957142D01*
X140547857Y-122528571D01*
X140405000Y-122242857D01*
X140262142Y-122099999D01*
X139976428Y-121957142D01*
X139119285Y-121957142D01*
X138833571Y-122099999D01*
X138690714Y-122242857D01*
X138547857Y-122528571D01*
X138547857Y-122957142D01*
X138547857Y-120671428D02*
X140547857Y-120671428D01*
X140262142Y-120671428D02*
X140405000Y-120528571D01*
X140547857Y-120242857D01*
X140547857Y-119814285D01*
X140405000Y-119528571D01*
X140119285Y-119385714D01*
X138547857Y-119385714D01*
X140119285Y-119385714D02*
X140405000Y-119242857D01*
X140547857Y-118957142D01*
X140547857Y-118528571D01*
X140405000Y-118242857D01*
X140119285Y-118099999D01*
X138547857Y-118099999D01*
X141690714Y-114528571D02*
X137833571Y-117099999D01*
X138547857Y-113528571D02*
X140547857Y-113528571D01*
X140262142Y-113528571D02*
X140405000Y-113385714D01*
X140547857Y-113099999D01*
X140547857Y-112671428D01*
X140405000Y-112385714D01*
X140119285Y-112242857D01*
X138547857Y-112242857D01*
X140119285Y-112242857D02*
X140405000Y-112099999D01*
X140547857Y-111814285D01*
X140547857Y-111385714D01*
X140405000Y-111099999D01*
X140119285Y-110957142D01*
X138547857Y-110957142D01*
X138547857Y-108242857D02*
X140119285Y-108242857D01*
X140405000Y-108385714D01*
X140547857Y-108671428D01*
X140547857Y-109242857D01*
X140405000Y-109528571D01*
X138690714Y-108242857D02*
X138547857Y-108528571D01*
X138547857Y-109242857D01*
X138690714Y-109528571D01*
X138976428Y-109671428D01*
X139262142Y-109671428D01*
X139547857Y-109528571D01*
X139690714Y-109242857D01*
X139690714Y-108528571D01*
X139833571Y-108242857D01*
X138547857Y-106814285D02*
X140547857Y-106814285D01*
X139976428Y-106814285D02*
X140262142Y-106671428D01*
X140405000Y-106528571D01*
X140547857Y-106242857D01*
X140547857Y-105957142D01*
X138547857Y-104957142D02*
X140547857Y-104957142D01*
X139976428Y-104957142D02*
X140262142Y-104814285D01*
X140405000Y-104671428D01*
X140547857Y-104385714D01*
X140547857Y-104099999D01*
X138547857Y-102671428D02*
X138690714Y-102957142D01*
X138833571Y-103099999D01*
X139119285Y-103242857D01*
X139976428Y-103242857D01*
X140262142Y-103099999D01*
X140405000Y-102957142D01*
X140547857Y-102671428D01*
X140547857Y-102242857D01*
X140405000Y-101957142D01*
X140262142Y-101814285D01*
X139976428Y-101671428D01*
X139119285Y-101671428D01*
X138833571Y-101814285D01*
X138690714Y-101957142D01*
X138547857Y-102242857D01*
X138547857Y-102671428D01*
X138547857Y-99957142D02*
X138690714Y-100242857D01*
X138976428Y-100385714D01*
X141547857Y-100385714D01*
X138547857Y-97528571D02*
X141547857Y-97528571D01*
X138690714Y-97528571D02*
X138547857Y-97814285D01*
X138547857Y-98385714D01*
X138690714Y-98671428D01*
X138833571Y-98814285D01*
X139119285Y-98957142D01*
X139976428Y-98957142D01*
X140262142Y-98814285D01*
X140405000Y-98671428D01*
X140547857Y-98385714D01*
X140547857Y-97814285D01*
X140405000Y-97528571D01*
X141690714Y-93957142D02*
X137833571Y-96528571D01*
X140119285Y-91957142D02*
X139976428Y-91528571D01*
X139833571Y-91385714D01*
X139547857Y-91242857D01*
X139119285Y-91242857D01*
X138833571Y-91385714D01*
X138690714Y-91528571D01*
X138547857Y-91814285D01*
X138547857Y-92957142D01*
X141547857Y-92957142D01*
X141547857Y-91957142D01*
X141405000Y-91671428D01*
X141262142Y-91528571D01*
X140976428Y-91385714D01*
X140690714Y-91385714D01*
X140405000Y-91528571D01*
X140262142Y-91671428D01*
X140119285Y-91957142D01*
X140119285Y-92957142D01*
X140119285Y-88957142D02*
X139976428Y-88528571D01*
X139833571Y-88385714D01*
X139547857Y-88242857D01*
X139119285Y-88242857D01*
X138833571Y-88385714D01*
X138690714Y-88528571D01*
X138547857Y-88814285D01*
X138547857Y-89957142D01*
X141547857Y-89957142D01*
X141547857Y-88957142D01*
X141405000Y-88671428D01*
X141262142Y-88528571D01*
X140976428Y-88385714D01*
X140690714Y-88385714D01*
X140405000Y-88528571D01*
X140262142Y-88671428D01*
X140119285Y-88957142D01*
X140119285Y-89957142D01*
X138833571Y-85242857D02*
X138690714Y-85385714D01*
X138547857Y-85814285D01*
X138547857Y-86099999D01*
X138690714Y-86528571D01*
X138976428Y-86814285D01*
X139262142Y-86957142D01*
X139833571Y-87099999D01*
X140262142Y-87099999D01*
X140833571Y-86957142D01*
X141119285Y-86814285D01*
X141405000Y-86528571D01*
X141547857Y-86099999D01*
X141547857Y-85814285D01*
X141405000Y-85385714D01*
X141262142Y-85242857D01*
X141547857Y-84242857D02*
X138547857Y-83528571D01*
X140690714Y-82957142D01*
X138547857Y-82385714D01*
X141547857Y-81671428D01*
X138547857Y-80528571D02*
X140547857Y-80528571D01*
X141547857Y-80528571D02*
X141405000Y-80671428D01*
X141262142Y-80528571D01*
X141405000Y-80385714D01*
X141547857Y-80528571D01*
X141262142Y-80528571D01*
X140547857Y-79099999D02*
X138547857Y-79099999D01*
X140262142Y-79099999D02*
X140405000Y-78957142D01*
X140547857Y-78671428D01*
X140547857Y-78242857D01*
X140405000Y-77957142D01*
X140119285Y-77814285D01*
X138547857Y-77814285D01*
X138690714Y-75099999D02*
X138547857Y-75385714D01*
X138547857Y-75957142D01*
X138690714Y-76242857D01*
X138833571Y-76385714D01*
X139119285Y-76528571D01*
X139976428Y-76528571D01*
X140262142Y-76385714D01*
X140405000Y-76242857D01*
X140547857Y-75957142D01*
X140547857Y-75385714D01*
X140405000Y-75099999D01*
X138547857Y-73814285D02*
X141547857Y-73814285D01*
X138547857Y-72528571D02*
X140119285Y-72528571D01*
X140405000Y-72671428D01*
X140547857Y-72957142D01*
X140547857Y-73385714D01*
X140405000Y-73671428D01*
X140262142Y-73814285D01*
X138690714Y-69957142D02*
X138547857Y-70242857D01*
X138547857Y-70814285D01*
X138690714Y-71099999D01*
X138976428Y-71242857D01*
X140119285Y-71242857D01*
X140405000Y-71099999D01*
X140547857Y-70814285D01*
X140547857Y-70242857D01*
X140405000Y-69957142D01*
X140119285Y-69814285D01*
X139833571Y-69814285D01*
X139547857Y-71242857D01*
X138690714Y-68671428D02*
X138547857Y-68385714D01*
X138547857Y-67814285D01*
X138690714Y-67528571D01*
X138976428Y-67385714D01*
X139119285Y-67385714D01*
X139405000Y-67528571D01*
X139547857Y-67814285D01*
X139547857Y-68242857D01*
X139690714Y-68528571D01*
X139976428Y-68671428D01*
X140119285Y-68671428D01*
X140405000Y-68528571D01*
X140547857Y-68242857D01*
X140547857Y-67814285D01*
X140405000Y-67528571D01*
X140547857Y-66528571D02*
X140547857Y-65385714D01*
X141547857Y-66099999D02*
X138976428Y-66099999D01*
X138690714Y-65957142D01*
X138547857Y-65671428D01*
X138547857Y-65385714D01*
X138690714Y-63242857D02*
X138547857Y-63528571D01*
X138547857Y-64099999D01*
X138690714Y-64385714D01*
X138976428Y-64528571D01*
X140119285Y-64528571D01*
X140405000Y-64385714D01*
X140547857Y-64099999D01*
X140547857Y-63528571D01*
X140405000Y-63242857D01*
X140119285Y-63099999D01*
X139833571Y-63099999D01*
X139547857Y-64528571D01*
X138547857Y-61814285D02*
X140547857Y-61814285D01*
X139976428Y-61814285D02*
X140262142Y-61671428D01*
X140405000Y-61528571D01*
X140547857Y-61242857D01*
X140547857Y-60957142D01*
X138547857Y-59957142D02*
X141547857Y-59957142D01*
X141547857Y-58814285D01*
X141405000Y-58528571D01*
X141262142Y-58385714D01*
X140976428Y-58242857D01*
X140547857Y-58242857D01*
X140262142Y-58385714D01*
X140119285Y-58528571D01*
X139976428Y-58814285D01*
X139976428Y-59957142D01*
X138547857Y-56957142D02*
X140547857Y-56957142D01*
X139976428Y-56957142D02*
X140262142Y-56814285D01*
X140405000Y-56671428D01*
X140547857Y-56385714D01*
X140547857Y-56099999D01*
X138547857Y-54671428D02*
X138690714Y-54957142D01*
X138833571Y-55099999D01*
X139119285Y-55242857D01*
X139976428Y-55242857D01*
X140262142Y-55099999D01*
X140405000Y-54957142D01*
X140547857Y-54671428D01*
X140547857Y-54242857D01*
X140405000Y-53957142D01*
X140262142Y-53814285D01*
X139976428Y-53671428D01*
X139119285Y-53671428D01*
X138833571Y-53814285D01*
X138690714Y-53957142D01*
X138547857Y-54242857D01*
X138547857Y-54671428D01*
X135717857Y-111385714D02*
X133717857Y-110671428D01*
X135717857Y-109957142D01*
X136717857Y-108242857D02*
X136717857Y-107957142D01*
X136575000Y-107671428D01*
X136432142Y-107528571D01*
X136146428Y-107385714D01*
X135575000Y-107242857D01*
X134860714Y-107242857D01*
X134289285Y-107385714D01*
X134003571Y-107528571D01*
X133860714Y-107671428D01*
X133717857Y-107957142D01*
X133717857Y-108242857D01*
X133860714Y-108528571D01*
X134003571Y-108671428D01*
X134289285Y-108814285D01*
X134860714Y-108957142D01*
X135575000Y-108957142D01*
X136146428Y-108814285D01*
X136432142Y-108671428D01*
X136575000Y-108528571D01*
X136717857Y-108242857D01*
X134003571Y-105957142D02*
X133860714Y-105814285D01*
X133717857Y-105957142D01*
X133860714Y-106100000D01*
X134003571Y-105957142D01*
X133717857Y-105957142D01*
X136432142Y-104671428D02*
X136575000Y-104528571D01*
X136717857Y-104242857D01*
X136717857Y-103528571D01*
X136575000Y-103242857D01*
X136432142Y-103100000D01*
X136146428Y-102957142D01*
X135860714Y-102957142D01*
X135432142Y-103100000D01*
X133717857Y-104814285D01*
X133717857Y-102957142D01*
M02*
