%TF.GenerationSoftware,KiCad,Pcbnew,(6.0.11)*%
%TF.CreationDate,2024-01-03T20:11:06+00:00*%
%TF.ProjectId,BBCWinchesterPro,42424357-696e-4636-9865-737465725072,rev?*%
%TF.SameCoordinates,Original*%
%TF.FileFunction,Drillmap*%
%TF.FilePolarity,Positive*%
%FSLAX45Y45*%
G04 Gerber Fmt 4.5, Leading zero omitted, Abs format (unit mm)*
G04 Created by KiCad (PCBNEW (6.0.11)) date 2024-01-03 20:11:06*
%MOMM*%
%LPD*%
G01*
G04 APERTURE LIST*
%ADD10C,0.100000*%
%ADD11C,0.200000*%
%ADD12C,0.040000*%
%ADD13C,0.080000*%
G04 APERTURE END LIST*
D10*
X15712002Y-2589000D02*
G75*
G03*
X15513000Y-2389000I-200003J0D01*
G01*
X15513000Y-18891002D02*
G75*
G03*
X15713000Y-18691998I0J200002D01*
G01*
X5961998Y-18691000D02*
X5963000Y-2588000D01*
X15712002Y-2589000D02*
X15713000Y-18691998D01*
X15513000Y-18891000D02*
X6161000Y-18891000D01*
X5961997Y-18691000D02*
G75*
G03*
X6161000Y-18891000I200003J0D01*
G01*
X6163000Y-2388998D02*
X15513000Y-2389000D01*
X6163000Y-2388998D02*
G75*
G03*
X5963000Y-2588000I0J-200002D01*
G01*
D11*
D12*
X9214000Y-16841000D02*
X9254000Y-16881000D01*
X9254000Y-16841000D02*
X9214000Y-16881000D01*
X10850500Y-8676500D02*
X10890500Y-8716500D01*
X10890500Y-8676500D02*
X10850500Y-8716500D01*
X11235895Y-6255105D02*
X11275895Y-6295105D01*
X11275895Y-6255105D02*
X11235895Y-6295105D01*
X11249000Y-9184000D02*
X11289000Y-9224000D01*
X11289000Y-9184000D02*
X11249000Y-9224000D01*
X11354000Y-9433000D02*
X11394000Y-9473000D01*
X11394000Y-9433000D02*
X11354000Y-9473000D01*
X11428000Y-8293605D02*
X11468000Y-8333605D01*
X11468000Y-8293605D02*
X11428000Y-8333605D01*
X11428000Y-8866000D02*
X11468000Y-8906000D01*
X11468000Y-8866000D02*
X11428000Y-8906000D01*
X11433605Y-7152605D02*
X11473605Y-7192605D01*
X11473605Y-7152605D02*
X11433605Y-7192605D01*
X11444105Y-8033105D02*
X11484105Y-8073105D01*
X11484105Y-8033105D02*
X11444105Y-8073105D01*
X11591450Y-6231000D02*
X11631450Y-6271000D01*
X11631450Y-6231000D02*
X11591450Y-6271000D01*
X12050000Y-14817000D02*
X12090000Y-14857000D01*
X12090000Y-14817000D02*
X12050000Y-14857000D01*
X12145000Y-12736000D02*
X12185000Y-12776000D01*
X12185000Y-12736000D02*
X12145000Y-12776000D01*
X12189000Y-6830000D02*
X12229000Y-6870000D01*
X12229000Y-6830000D02*
X12189000Y-6870000D01*
X12214450Y-14349120D02*
X12254450Y-14389120D01*
X12254450Y-14349120D02*
X12214450Y-14389120D01*
X12297000Y-11915000D02*
X12337000Y-11955000D01*
X12337000Y-11915000D02*
X12297000Y-11955000D01*
X12346000Y-15920000D02*
X12386000Y-15960000D01*
X12386000Y-15920000D02*
X12346000Y-15960000D01*
X12382666Y-14412007D02*
X12422666Y-14452007D01*
X12422666Y-14412007D02*
X12382666Y-14452007D01*
X12512450Y-16163000D02*
X12552450Y-16203000D01*
X12552450Y-16163000D02*
X12512450Y-16203000D01*
X12868000Y-18351000D02*
X12908000Y-18391000D01*
X12908000Y-18351000D02*
X12868000Y-18391000D01*
X13300950Y-13217000D02*
X13340950Y-13257000D01*
X13340950Y-13217000D02*
X13300950Y-13257000D01*
X13361000Y-15021000D02*
X13401000Y-15061000D01*
X13401000Y-15021000D02*
X13361000Y-15061000D01*
X13399764Y-13232027D02*
X13439764Y-13272027D01*
X13439764Y-13232027D02*
X13399764Y-13272027D01*
X13441000Y-14586000D02*
X13481000Y-14626000D01*
X13481000Y-14586000D02*
X13441000Y-14626000D01*
X13500000Y-14118000D02*
X13540000Y-14158000D01*
X13540000Y-14118000D02*
X13500000Y-14158000D01*
X13546000Y-13214000D02*
X13586000Y-13254000D01*
X13586000Y-13214000D02*
X13546000Y-13254000D01*
X13568000Y-10278000D02*
X13608000Y-10318000D01*
X13608000Y-10278000D02*
X13568000Y-10318000D01*
X13688050Y-13275294D02*
X13728050Y-13315294D01*
X13728050Y-13275294D02*
X13688050Y-13315294D01*
X13691050Y-14288629D02*
X13731050Y-14328629D01*
X13731050Y-14288629D02*
X13691050Y-14328629D01*
X13905950Y-14122000D02*
X13945950Y-14162000D01*
X13945950Y-14122000D02*
X13905950Y-14162000D01*
X13927950Y-8125605D02*
X13967950Y-8165605D01*
X13967950Y-8125605D02*
X13927950Y-8165605D01*
X13937500Y-12698500D02*
X13977500Y-12738500D01*
X13977500Y-12698500D02*
X13937500Y-12738500D01*
X13941217Y-15174450D02*
X13981217Y-15214450D01*
X13981217Y-15174450D02*
X13941217Y-15214450D01*
X14017000Y-12234000D02*
X14057000Y-12274000D01*
X14057000Y-12234000D02*
X14017000Y-12274000D01*
X14032000Y-8252605D02*
X14072000Y-8292605D01*
X14072000Y-8252605D02*
X14032000Y-8292605D01*
X14181000Y-8680605D02*
X14221000Y-8720605D01*
X14221000Y-8680605D02*
X14181000Y-8720605D01*
X14317511Y-3971489D02*
X14357511Y-4011489D01*
X14357511Y-3971489D02*
X14317511Y-4011489D01*
X14486000Y-8658605D02*
X14526000Y-8698605D01*
X14526000Y-8658605D02*
X14486000Y-8698605D01*
D13*
X8418506Y-3124000D02*
G75*
G03*
X8418506Y-3124000I-40000J0D01*
G01*
X9180506Y-3124000D02*
G75*
G03*
X9180506Y-3124000I-40000J0D01*
G01*
X9608000Y-4497000D02*
G75*
G03*
X9608000Y-4497000I-40000J0D01*
G01*
X9608000Y-4751000D02*
G75*
G03*
X9608000Y-4751000I-40000J0D01*
G01*
X9608000Y-5005000D02*
G75*
G03*
X9608000Y-5005000I-40000J0D01*
G01*
X9608000Y-5259000D02*
G75*
G03*
X9608000Y-5259000I-40000J0D01*
G01*
X9610000Y-3398000D02*
G75*
G03*
X9610000Y-3398000I-40000J0D01*
G01*
X9610000Y-4160000D02*
G75*
G03*
X9610000Y-4160000I-40000J0D01*
G01*
X10098400Y-14706600D02*
G75*
G03*
X10098400Y-14706600I-40000J0D01*
G01*
X10370000Y-4497000D02*
G75*
G03*
X10370000Y-4497000I-40000J0D01*
G01*
X10370000Y-4751000D02*
G75*
G03*
X10370000Y-4751000I-40000J0D01*
G01*
X10370000Y-5005000D02*
G75*
G03*
X10370000Y-5005000I-40000J0D01*
G01*
X10370000Y-5259000D02*
G75*
G03*
X10370000Y-5259000I-40000J0D01*
G01*
X10372000Y-3675605D02*
G75*
G03*
X10372000Y-3675605I-40000J0D01*
G01*
X10372000Y-4175605D02*
G75*
G03*
X10372000Y-4175605I-40000J0D01*
G01*
X10377202Y-3124000D02*
G75*
G03*
X10377202Y-3124000I-40000J0D01*
G01*
X10557000Y-14220000D02*
G75*
G03*
X10557000Y-14220000I-40000J0D01*
G01*
X10557000Y-16334000D02*
G75*
G03*
X10557000Y-16334000I-40000J0D01*
G01*
X10860400Y-14706600D02*
G75*
G03*
X10860400Y-14706600I-40000J0D01*
G01*
X11139202Y-3124000D02*
G75*
G03*
X11139202Y-3124000I-40000J0D01*
G01*
X11319000Y-14220000D02*
G75*
G03*
X11319000Y-14220000I-40000J0D01*
G01*
X11319000Y-16334000D02*
G75*
G03*
X11319000Y-16334000I-40000J0D01*
G01*
X11951000Y-11674000D02*
G75*
G03*
X11951000Y-11674000I-40000J0D01*
G01*
X11951000Y-11928000D02*
G75*
G03*
X11951000Y-11928000I-40000J0D01*
G01*
X11951000Y-12182000D02*
G75*
G03*
X11951000Y-12182000I-40000J0D01*
G01*
X11951000Y-12436000D02*
G75*
G03*
X11951000Y-12436000I-40000J0D01*
G01*
X11951000Y-12690000D02*
G75*
G03*
X11951000Y-12690000I-40000J0D01*
G01*
X11951000Y-12944000D02*
G75*
G03*
X11951000Y-12944000I-40000J0D01*
G01*
X11951000Y-13198000D02*
G75*
G03*
X11951000Y-13198000I-40000J0D01*
G01*
X11951000Y-14758000D02*
G75*
G03*
X11951000Y-14758000I-40000J0D01*
G01*
X11951000Y-15012000D02*
G75*
G03*
X11951000Y-15012000I-40000J0D01*
G01*
X11951000Y-15266000D02*
G75*
G03*
X11951000Y-15266000I-40000J0D01*
G01*
X11951000Y-15520000D02*
G75*
G03*
X11951000Y-15520000I-40000J0D01*
G01*
X11951000Y-15774000D02*
G75*
G03*
X11951000Y-15774000I-40000J0D01*
G01*
X11951000Y-16028000D02*
G75*
G03*
X11951000Y-16028000I-40000J0D01*
G01*
X11951000Y-16282000D02*
G75*
G03*
X11951000Y-16282000I-40000J0D01*
G01*
X11951000Y-16536000D02*
G75*
G03*
X11951000Y-16536000I-40000J0D01*
G01*
X11976000Y-3650105D02*
G75*
G03*
X11976000Y-3650105I-40000J0D01*
G01*
X11976000Y-3904105D02*
G75*
G03*
X11976000Y-3904105I-40000J0D01*
G01*
X11976000Y-4158105D02*
G75*
G03*
X11976000Y-4158105I-40000J0D01*
G01*
X11976000Y-4412105D02*
G75*
G03*
X11976000Y-4412105I-40000J0D01*
G01*
X11976000Y-4666105D02*
G75*
G03*
X11976000Y-4666105I-40000J0D01*
G01*
X11976000Y-4920105D02*
G75*
G03*
X11976000Y-4920105I-40000J0D01*
G01*
X11976000Y-5174105D02*
G75*
G03*
X11976000Y-5174105I-40000J0D01*
G01*
X11976000Y-5428105D02*
G75*
G03*
X11976000Y-5428105I-40000J0D01*
G01*
X11976000Y-5682105D02*
G75*
G03*
X11976000Y-5682105I-40000J0D01*
G01*
X11976000Y-5936105D02*
G75*
G03*
X11976000Y-5936105I-40000J0D01*
G01*
X11976000Y-7740105D02*
G75*
G03*
X11976000Y-7740105I-40000J0D01*
G01*
X11976000Y-7994105D02*
G75*
G03*
X11976000Y-7994105I-40000J0D01*
G01*
X11976000Y-8248105D02*
G75*
G03*
X11976000Y-8248105I-40000J0D01*
G01*
X11976000Y-8502105D02*
G75*
G03*
X11976000Y-8502105I-40000J0D01*
G01*
X11976000Y-8756105D02*
G75*
G03*
X11976000Y-8756105I-40000J0D01*
G01*
X11976000Y-9010105D02*
G75*
G03*
X11976000Y-9010105I-40000J0D01*
G01*
X11976000Y-9264105D02*
G75*
G03*
X11976000Y-9264105I-40000J0D01*
G01*
X11976000Y-9518105D02*
G75*
G03*
X11976000Y-9518105I-40000J0D01*
G01*
X11976000Y-9772105D02*
G75*
G03*
X11976000Y-9772105I-40000J0D01*
G01*
X11976000Y-10026105D02*
G75*
G03*
X11976000Y-10026105I-40000J0D01*
G01*
X12154506Y-3124000D02*
G75*
G03*
X12154506Y-3124000I-40000J0D01*
G01*
X12387000Y-17277511D02*
G75*
G03*
X12387000Y-17277511I-40000J0D01*
G01*
X12387000Y-17477511D02*
G75*
G03*
X12387000Y-17477511I-40000J0D01*
G01*
X12713000Y-11674000D02*
G75*
G03*
X12713000Y-11674000I-40000J0D01*
G01*
X12713000Y-11928000D02*
G75*
G03*
X12713000Y-11928000I-40000J0D01*
G01*
X12713000Y-12182000D02*
G75*
G03*
X12713000Y-12182000I-40000J0D01*
G01*
X12713000Y-12436000D02*
G75*
G03*
X12713000Y-12436000I-40000J0D01*
G01*
X12713000Y-12690000D02*
G75*
G03*
X12713000Y-12690000I-40000J0D01*
G01*
X12713000Y-12944000D02*
G75*
G03*
X12713000Y-12944000I-40000J0D01*
G01*
X12713000Y-13198000D02*
G75*
G03*
X12713000Y-13198000I-40000J0D01*
G01*
X12713000Y-14758000D02*
G75*
G03*
X12713000Y-14758000I-40000J0D01*
G01*
X12713000Y-15012000D02*
G75*
G03*
X12713000Y-15012000I-40000J0D01*
G01*
X12713000Y-15266000D02*
G75*
G03*
X12713000Y-15266000I-40000J0D01*
G01*
X12713000Y-15520000D02*
G75*
G03*
X12713000Y-15520000I-40000J0D01*
G01*
X12713000Y-15774000D02*
G75*
G03*
X12713000Y-15774000I-40000J0D01*
G01*
X12713000Y-16028000D02*
G75*
G03*
X12713000Y-16028000I-40000J0D01*
G01*
X12713000Y-16282000D02*
G75*
G03*
X12713000Y-16282000I-40000J0D01*
G01*
X12713000Y-16536000D02*
G75*
G03*
X12713000Y-16536000I-40000J0D01*
G01*
X12738000Y-3650105D02*
G75*
G03*
X12738000Y-3650105I-40000J0D01*
G01*
X12738000Y-3904105D02*
G75*
G03*
X12738000Y-3904105I-40000J0D01*
G01*
X12738000Y-4158105D02*
G75*
G03*
X12738000Y-4158105I-40000J0D01*
G01*
X12738000Y-4412105D02*
G75*
G03*
X12738000Y-4412105I-40000J0D01*
G01*
X12738000Y-4666105D02*
G75*
G03*
X12738000Y-4666105I-40000J0D01*
G01*
X12738000Y-4920105D02*
G75*
G03*
X12738000Y-4920105I-40000J0D01*
G01*
X12738000Y-5174105D02*
G75*
G03*
X12738000Y-5174105I-40000J0D01*
G01*
X12738000Y-5428105D02*
G75*
G03*
X12738000Y-5428105I-40000J0D01*
G01*
X12738000Y-5682105D02*
G75*
G03*
X12738000Y-5682105I-40000J0D01*
G01*
X12738000Y-5936105D02*
G75*
G03*
X12738000Y-5936105I-40000J0D01*
G01*
X12738000Y-7740105D02*
G75*
G03*
X12738000Y-7740105I-40000J0D01*
G01*
X12738000Y-7994105D02*
G75*
G03*
X12738000Y-7994105I-40000J0D01*
G01*
X12738000Y-8248105D02*
G75*
G03*
X12738000Y-8248105I-40000J0D01*
G01*
X12738000Y-8502105D02*
G75*
G03*
X12738000Y-8502105I-40000J0D01*
G01*
X12738000Y-8756105D02*
G75*
G03*
X12738000Y-8756105I-40000J0D01*
G01*
X12738000Y-9010105D02*
G75*
G03*
X12738000Y-9010105I-40000J0D01*
G01*
X12738000Y-9264105D02*
G75*
G03*
X12738000Y-9264105I-40000J0D01*
G01*
X12738000Y-9518105D02*
G75*
G03*
X12738000Y-9518105I-40000J0D01*
G01*
X12738000Y-9772105D02*
G75*
G03*
X12738000Y-9772105I-40000J0D01*
G01*
X12738000Y-10026105D02*
G75*
G03*
X12738000Y-10026105I-40000J0D01*
G01*
X12916506Y-3124000D02*
G75*
G03*
X12916506Y-3124000I-40000J0D01*
G01*
X13097000Y-3619605D02*
G75*
G03*
X13097000Y-3619605I-40000J0D01*
G01*
X13097000Y-4119605D02*
G75*
G03*
X13097000Y-4119605I-40000J0D01*
G01*
X13100000Y-14524000D02*
G75*
G03*
X13100000Y-14524000I-40000J0D01*
G01*
X13100000Y-15024000D02*
G75*
G03*
X13100000Y-15024000I-40000J0D01*
G01*
X13102000Y-7559605D02*
G75*
G03*
X13102000Y-7559605I-40000J0D01*
G01*
X13102000Y-8059605D02*
G75*
G03*
X13102000Y-8059605I-40000J0D01*
G01*
X13114000Y-11463000D02*
G75*
G03*
X13114000Y-11463000I-40000J0D01*
G01*
X13114000Y-11963000D02*
G75*
G03*
X13114000Y-11963000I-40000J0D01*
G01*
X13935511Y-3598000D02*
G75*
G03*
X13935511Y-3598000I-40000J0D01*
G01*
X14135511Y-3598000D02*
G75*
G03*
X14135511Y-3598000I-40000J0D01*
G01*
D10*
X8632006Y-2683000D02*
X8632006Y-2783000D01*
X8582006Y-2733000D02*
X8682006Y-2733000D01*
X8762000Y-4447105D02*
X8762000Y-4547105D01*
X8712000Y-4497105D02*
X8812000Y-4497105D01*
X8762000Y-4701105D02*
X8762000Y-4801105D01*
X8712000Y-4751105D02*
X8812000Y-4751105D01*
X8762000Y-4955105D02*
X8762000Y-5055105D01*
X8712000Y-5005105D02*
X8812000Y-5005105D01*
X8762000Y-5209105D02*
X8762000Y-5309105D01*
X8712000Y-5259105D02*
X8812000Y-5259105D01*
X8762000Y-5463105D02*
X8762000Y-5563105D01*
X8712000Y-5513105D02*
X8812000Y-5513105D01*
X8762000Y-5717105D02*
X8762000Y-5817105D01*
X8712000Y-5767105D02*
X8812000Y-5767105D01*
X8762000Y-5971105D02*
X8762000Y-6071105D01*
X8712000Y-6021105D02*
X8812000Y-6021105D01*
X8762000Y-6225105D02*
X8762000Y-6325105D01*
X8712000Y-6275105D02*
X8812000Y-6275105D01*
X8762000Y-6479105D02*
X8762000Y-6579105D01*
X8712000Y-6529105D02*
X8812000Y-6529105D01*
X8762000Y-6733105D02*
X8762000Y-6833105D01*
X8712000Y-6783105D02*
X8812000Y-6783105D01*
X8762000Y-6987105D02*
X8762000Y-7087105D01*
X8712000Y-7037105D02*
X8812000Y-7037105D01*
X8762000Y-7241105D02*
X8762000Y-7341105D01*
X8712000Y-7291105D02*
X8812000Y-7291105D01*
X8762000Y-7495105D02*
X8762000Y-7595105D01*
X8712000Y-7545105D02*
X8812000Y-7545105D01*
X8762000Y-7749105D02*
X8762000Y-7849105D01*
X8712000Y-7799105D02*
X8812000Y-7799105D01*
X8762000Y-8003105D02*
X8762000Y-8103105D01*
X8712000Y-8053105D02*
X8812000Y-8053105D01*
X8762000Y-8257105D02*
X8762000Y-8357105D01*
X8712000Y-8307105D02*
X8812000Y-8307105D01*
X8762000Y-8511105D02*
X8762000Y-8611105D01*
X8712000Y-8561105D02*
X8812000Y-8561105D01*
X8762000Y-8765105D02*
X8762000Y-8865105D01*
X8712000Y-8815105D02*
X8812000Y-8815105D01*
X8762000Y-9019105D02*
X8762000Y-9119105D01*
X8712000Y-9069105D02*
X8812000Y-9069105D01*
X8762000Y-9273105D02*
X8762000Y-9373105D01*
X8712000Y-9323105D02*
X8812000Y-9323105D01*
X8886006Y-2683000D02*
X8886006Y-2783000D01*
X8836006Y-2733000D02*
X8936006Y-2733000D01*
X9016000Y-4447105D02*
X9016000Y-4547105D01*
X8966000Y-4497105D02*
X9066000Y-4497105D01*
X9016000Y-4701105D02*
X9016000Y-4801105D01*
X8966000Y-4751105D02*
X9066000Y-4751105D01*
X9016000Y-4955105D02*
X9016000Y-5055105D01*
X8966000Y-5005105D02*
X9066000Y-5005105D01*
X9016000Y-5209105D02*
X9016000Y-5309105D01*
X8966000Y-5259105D02*
X9066000Y-5259105D01*
X9016000Y-5463105D02*
X9016000Y-5563105D01*
X8966000Y-5513105D02*
X9066000Y-5513105D01*
X9016000Y-5717105D02*
X9016000Y-5817105D01*
X8966000Y-5767105D02*
X9066000Y-5767105D01*
X9016000Y-5971105D02*
X9016000Y-6071105D01*
X8966000Y-6021105D02*
X9066000Y-6021105D01*
X9016000Y-6225105D02*
X9016000Y-6325105D01*
X8966000Y-6275105D02*
X9066000Y-6275105D01*
X9016000Y-6479105D02*
X9016000Y-6579105D01*
X8966000Y-6529105D02*
X9066000Y-6529105D01*
X9016000Y-6733105D02*
X9016000Y-6833105D01*
X8966000Y-6783105D02*
X9066000Y-6783105D01*
X9016000Y-6987105D02*
X9016000Y-7087105D01*
X8966000Y-7037105D02*
X9066000Y-7037105D01*
X9016000Y-7241105D02*
X9016000Y-7341105D01*
X8966000Y-7291105D02*
X9066000Y-7291105D01*
X9016000Y-7495105D02*
X9016000Y-7595105D01*
X8966000Y-7545105D02*
X9066000Y-7545105D01*
X9016000Y-7749105D02*
X9016000Y-7849105D01*
X8966000Y-7799105D02*
X9066000Y-7799105D01*
X9016000Y-8003105D02*
X9016000Y-8103105D01*
X8966000Y-8053105D02*
X9066000Y-8053105D01*
X9016000Y-8257105D02*
X9016000Y-8357105D01*
X8966000Y-8307105D02*
X9066000Y-8307105D01*
X9016000Y-8511105D02*
X9016000Y-8611105D01*
X8966000Y-8561105D02*
X9066000Y-8561105D01*
X9016000Y-8765105D02*
X9016000Y-8865105D01*
X8966000Y-8815105D02*
X9066000Y-8815105D01*
X9016000Y-9019105D02*
X9016000Y-9119105D01*
X8966000Y-9069105D02*
X9066000Y-9069105D01*
X9016000Y-9273105D02*
X9016000Y-9373105D01*
X8966000Y-9323105D02*
X9066000Y-9323105D01*
X9286000Y-11643000D02*
X9286000Y-11743000D01*
X9236000Y-11693000D02*
X9336000Y-11693000D01*
X9286000Y-11897000D02*
X9286000Y-11997000D01*
X9236000Y-11947000D02*
X9336000Y-11947000D01*
X9286000Y-12151000D02*
X9286000Y-12251000D01*
X9236000Y-12201000D02*
X9336000Y-12201000D01*
X9286000Y-12405000D02*
X9286000Y-12505000D01*
X9236000Y-12455000D02*
X9336000Y-12455000D01*
X9286000Y-12659000D02*
X9286000Y-12759000D01*
X9236000Y-12709000D02*
X9336000Y-12709000D01*
X9286000Y-12913000D02*
X9286000Y-13013000D01*
X9236000Y-12963000D02*
X9336000Y-12963000D01*
X9286000Y-13167000D02*
X9286000Y-13267000D01*
X9236000Y-13217000D02*
X9336000Y-13217000D01*
X9286000Y-13421000D02*
X9286000Y-13521000D01*
X9236000Y-13471000D02*
X9336000Y-13471000D01*
X9286000Y-13675000D02*
X9286000Y-13775000D01*
X9236000Y-13725000D02*
X9336000Y-13725000D01*
X9286000Y-13929000D02*
X9286000Y-14029000D01*
X9236000Y-13979000D02*
X9336000Y-13979000D01*
X9286000Y-14183000D02*
X9286000Y-14283000D01*
X9236000Y-14233000D02*
X9336000Y-14233000D01*
X9286000Y-14437000D02*
X9286000Y-14537000D01*
X9236000Y-14487000D02*
X9336000Y-14487000D01*
X9286000Y-14691000D02*
X9286000Y-14791000D01*
X9236000Y-14741000D02*
X9336000Y-14741000D01*
X9286000Y-14945000D02*
X9286000Y-15045000D01*
X9236000Y-14995000D02*
X9336000Y-14995000D01*
X9286000Y-15199000D02*
X9286000Y-15299000D01*
X9236000Y-15249000D02*
X9336000Y-15249000D01*
X9286000Y-15453000D02*
X9286000Y-15553000D01*
X9236000Y-15503000D02*
X9336000Y-15503000D01*
X9286000Y-15707000D02*
X9286000Y-15807000D01*
X9236000Y-15757000D02*
X9336000Y-15757000D01*
X9286000Y-15961000D02*
X9286000Y-16061000D01*
X9236000Y-16011000D02*
X9336000Y-16011000D01*
X9286000Y-16215000D02*
X9286000Y-16315000D01*
X9236000Y-16265000D02*
X9336000Y-16265000D01*
X9286000Y-16469000D02*
X9286000Y-16569000D01*
X9236000Y-16519000D02*
X9336000Y-16519000D01*
X9540000Y-11643000D02*
X9540000Y-11743000D01*
X9490000Y-11693000D02*
X9590000Y-11693000D01*
X9540000Y-11897000D02*
X9540000Y-11997000D01*
X9490000Y-11947000D02*
X9590000Y-11947000D01*
X9540000Y-12151000D02*
X9540000Y-12251000D01*
X9490000Y-12201000D02*
X9590000Y-12201000D01*
X9540000Y-12405000D02*
X9540000Y-12505000D01*
X9490000Y-12455000D02*
X9590000Y-12455000D01*
X9540000Y-12659000D02*
X9540000Y-12759000D01*
X9490000Y-12709000D02*
X9590000Y-12709000D01*
X9540000Y-12913000D02*
X9540000Y-13013000D01*
X9490000Y-12963000D02*
X9590000Y-12963000D01*
X9540000Y-13167000D02*
X9540000Y-13267000D01*
X9490000Y-13217000D02*
X9590000Y-13217000D01*
X9540000Y-13421000D02*
X9540000Y-13521000D01*
X9490000Y-13471000D02*
X9590000Y-13471000D01*
X9540000Y-13675000D02*
X9540000Y-13775000D01*
X9490000Y-13725000D02*
X9590000Y-13725000D01*
X9540000Y-13929000D02*
X9540000Y-14029000D01*
X9490000Y-13979000D02*
X9590000Y-13979000D01*
X9540000Y-14183000D02*
X9540000Y-14283000D01*
X9490000Y-14233000D02*
X9590000Y-14233000D01*
X9540000Y-14437000D02*
X9540000Y-14537000D01*
X9490000Y-14487000D02*
X9590000Y-14487000D01*
X9540000Y-14691000D02*
X9540000Y-14791000D01*
X9490000Y-14741000D02*
X9590000Y-14741000D01*
X9540000Y-14945000D02*
X9540000Y-15045000D01*
X9490000Y-14995000D02*
X9590000Y-14995000D01*
X9540000Y-15199000D02*
X9540000Y-15299000D01*
X9490000Y-15249000D02*
X9590000Y-15249000D01*
X9540000Y-15453000D02*
X9540000Y-15553000D01*
X9490000Y-15503000D02*
X9590000Y-15503000D01*
X9540000Y-15707000D02*
X9540000Y-15807000D01*
X9490000Y-15757000D02*
X9590000Y-15757000D01*
X9540000Y-15961000D02*
X9540000Y-16061000D01*
X9490000Y-16011000D02*
X9590000Y-16011000D01*
X9540000Y-16215000D02*
X9540000Y-16315000D01*
X9490000Y-16265000D02*
X9590000Y-16265000D01*
X9540000Y-16469000D02*
X9540000Y-16569000D01*
X9490000Y-16519000D02*
X9590000Y-16519000D01*
X9976000Y-18315000D02*
X9976000Y-18415000D01*
X9926000Y-18365000D02*
X10026000Y-18365000D01*
X10166000Y-8378605D02*
X10166000Y-8478605D01*
X10116000Y-8428605D02*
X10216000Y-8428605D01*
X10230000Y-18315000D02*
X10230000Y-18415000D01*
X10180000Y-18365000D02*
X10280000Y-18365000D01*
X10420000Y-8378605D02*
X10420000Y-8478605D01*
X10370000Y-8428605D02*
X10470000Y-8428605D01*
X10484000Y-18315000D02*
X10484000Y-18415000D01*
X10434000Y-18365000D02*
X10534000Y-18365000D01*
X10590702Y-2683000D02*
X10590702Y-2783000D01*
X10540702Y-2733000D02*
X10640702Y-2733000D01*
X10674000Y-8378605D02*
X10674000Y-8478605D01*
X10624000Y-8428605D02*
X10724000Y-8428605D01*
X10738000Y-18315000D02*
X10738000Y-18415000D01*
X10688000Y-18365000D02*
X10788000Y-18365000D01*
X10844702Y-2683000D02*
X10844702Y-2783000D01*
X10794702Y-2733000D02*
X10894702Y-2733000D01*
X12098000Y-18312857D02*
X12098000Y-18412857D01*
X12048000Y-18362857D02*
X12148000Y-18362857D01*
X12352000Y-18312857D02*
X12352000Y-18412857D01*
X12302000Y-18362857D02*
X12402000Y-18362857D01*
X12368006Y-2683000D02*
X12368006Y-2783000D01*
X12318006Y-2733000D02*
X12418006Y-2733000D01*
X12622006Y-2683000D02*
X12622006Y-2783000D01*
X12572006Y-2733000D02*
X12672006Y-2733000D01*
X13849500Y-18321000D02*
X13849500Y-18421000D01*
X13799500Y-18371000D02*
X13899500Y-18371000D01*
X14103500Y-18321000D02*
X14103500Y-18421000D01*
X14053500Y-18371000D02*
X14153500Y-18371000D01*
X14146006Y-2684000D02*
X14146006Y-2784000D01*
X14096006Y-2734000D02*
X14196006Y-2734000D01*
X14400006Y-2684000D02*
X14400006Y-2784000D01*
X14350006Y-2734000D02*
X14450006Y-2734000D01*
X15068500Y-12024000D02*
X15068500Y-12124000D01*
X15018500Y-12074000D02*
X15118500Y-12074000D01*
X15068500Y-12278000D02*
X15068500Y-12378000D01*
X15018500Y-12328000D02*
X15118500Y-12328000D01*
X15068500Y-12532000D02*
X15068500Y-12632000D01*
X15018500Y-12582000D02*
X15118500Y-12582000D01*
X15068500Y-12786000D02*
X15068500Y-12886000D01*
X15018500Y-12836000D02*
X15118500Y-12836000D01*
X15068500Y-13040000D02*
X15068500Y-13140000D01*
X15018500Y-13090000D02*
X15118500Y-13090000D01*
X15068500Y-13294000D02*
X15068500Y-13394000D01*
X15018500Y-13344000D02*
X15118500Y-13344000D01*
X15068500Y-13548000D02*
X15068500Y-13648000D01*
X15018500Y-13598000D02*
X15118500Y-13598000D01*
X15068500Y-13802000D02*
X15068500Y-13902000D01*
X15018500Y-13852000D02*
X15118500Y-13852000D01*
X15068500Y-14056000D02*
X15068500Y-14156000D01*
X15018500Y-14106000D02*
X15118500Y-14106000D01*
X15068500Y-14310000D02*
X15068500Y-14410000D01*
X15018500Y-14360000D02*
X15118500Y-14360000D01*
X15068500Y-14564000D02*
X15068500Y-14664000D01*
X15018500Y-14614000D02*
X15118500Y-14614000D01*
X15068500Y-14818000D02*
X15068500Y-14918000D01*
X15018500Y-14868000D02*
X15118500Y-14868000D01*
X15068500Y-15072000D02*
X15068500Y-15172000D01*
X15018500Y-15122000D02*
X15118500Y-15122000D01*
X15068500Y-15326000D02*
X15068500Y-15426000D01*
X15018500Y-15376000D02*
X15118500Y-15376000D01*
X15068500Y-15580000D02*
X15068500Y-15680000D01*
X15018500Y-15630000D02*
X15118500Y-15630000D01*
X15068500Y-15834000D02*
X15068500Y-15934000D01*
X15018500Y-15884000D02*
X15118500Y-15884000D01*
X15068500Y-16088000D02*
X15068500Y-16188000D01*
X15018500Y-16138000D02*
X15118500Y-16138000D01*
X15093500Y-4374605D02*
X15093500Y-4474605D01*
X15043500Y-4424605D02*
X15143500Y-4424605D01*
X15093500Y-4628605D02*
X15093500Y-4728605D01*
X15043500Y-4678605D02*
X15143500Y-4678605D01*
X15093500Y-4882605D02*
X15093500Y-4982605D01*
X15043500Y-4932605D02*
X15143500Y-4932605D01*
X15093500Y-5136605D02*
X15093500Y-5236605D01*
X15043500Y-5186605D02*
X15143500Y-5186605D01*
X15093500Y-5390605D02*
X15093500Y-5490605D01*
X15043500Y-5440605D02*
X15143500Y-5440605D01*
X15093500Y-5644605D02*
X15093500Y-5744605D01*
X15043500Y-5694605D02*
X15143500Y-5694605D01*
X15093500Y-5898605D02*
X15093500Y-5998605D01*
X15043500Y-5948605D02*
X15143500Y-5948605D01*
X15093500Y-6152605D02*
X15093500Y-6252605D01*
X15043500Y-6202605D02*
X15143500Y-6202605D01*
X15093500Y-6406605D02*
X15093500Y-6506605D01*
X15043500Y-6456605D02*
X15143500Y-6456605D01*
X15093500Y-6660605D02*
X15093500Y-6760605D01*
X15043500Y-6710605D02*
X15143500Y-6710605D01*
X15093500Y-6914605D02*
X15093500Y-7014605D01*
X15043500Y-6964605D02*
X15143500Y-6964605D01*
X15093500Y-7168605D02*
X15093500Y-7268605D01*
X15043500Y-7218605D02*
X15143500Y-7218605D01*
X15093500Y-7422605D02*
X15093500Y-7522605D01*
X15043500Y-7472605D02*
X15143500Y-7472605D01*
X15093500Y-7676605D02*
X15093500Y-7776605D01*
X15043500Y-7726605D02*
X15143500Y-7726605D01*
X15093500Y-7930605D02*
X15093500Y-8030605D01*
X15043500Y-7980605D02*
X15143500Y-7980605D01*
X15093500Y-8184605D02*
X15093500Y-8284605D01*
X15043500Y-8234605D02*
X15143500Y-8234605D01*
X15093500Y-8438605D02*
X15093500Y-8538605D01*
X15043500Y-8488605D02*
X15143500Y-8488605D01*
X15093500Y-8692605D02*
X15093500Y-8792605D01*
X15043500Y-8742605D02*
X15143500Y-8742605D01*
X15093500Y-8946605D02*
X15093500Y-9046605D01*
X15043500Y-8996605D02*
X15143500Y-8996605D01*
X15093500Y-9200605D02*
X15093500Y-9300605D01*
X15043500Y-9250605D02*
X15143500Y-9250605D01*
X15322500Y-12024000D02*
X15322500Y-12124000D01*
X15272500Y-12074000D02*
X15372500Y-12074000D01*
X15322500Y-12278000D02*
X15322500Y-12378000D01*
X15272500Y-12328000D02*
X15372500Y-12328000D01*
X15322500Y-12532000D02*
X15322500Y-12632000D01*
X15272500Y-12582000D02*
X15372500Y-12582000D01*
X15322500Y-12786000D02*
X15322500Y-12886000D01*
X15272500Y-12836000D02*
X15372500Y-12836000D01*
X15322500Y-13040000D02*
X15322500Y-13140000D01*
X15272500Y-13090000D02*
X15372500Y-13090000D01*
X15322500Y-13294000D02*
X15322500Y-13394000D01*
X15272500Y-13344000D02*
X15372500Y-13344000D01*
X15322500Y-13548000D02*
X15322500Y-13648000D01*
X15272500Y-13598000D02*
X15372500Y-13598000D01*
X15322500Y-13802000D02*
X15322500Y-13902000D01*
X15272500Y-13852000D02*
X15372500Y-13852000D01*
X15322500Y-14056000D02*
X15322500Y-14156000D01*
X15272500Y-14106000D02*
X15372500Y-14106000D01*
X15322500Y-14310000D02*
X15322500Y-14410000D01*
X15272500Y-14360000D02*
X15372500Y-14360000D01*
X15322500Y-14564000D02*
X15322500Y-14664000D01*
X15272500Y-14614000D02*
X15372500Y-14614000D01*
X15322500Y-14818000D02*
X15322500Y-14918000D01*
X15272500Y-14868000D02*
X15372500Y-14868000D01*
X15322500Y-15072000D02*
X15322500Y-15172000D01*
X15272500Y-15122000D02*
X15372500Y-15122000D01*
X15322500Y-15326000D02*
X15322500Y-15426000D01*
X15272500Y-15376000D02*
X15372500Y-15376000D01*
X15322500Y-15580000D02*
X15322500Y-15680000D01*
X15272500Y-15630000D02*
X15372500Y-15630000D01*
X15322500Y-15834000D02*
X15322500Y-15934000D01*
X15272500Y-15884000D02*
X15372500Y-15884000D01*
X15322500Y-16088000D02*
X15322500Y-16188000D01*
X15272500Y-16138000D02*
X15372500Y-16138000D01*
X15347500Y-4374605D02*
X15347500Y-4474605D01*
X15297500Y-4424605D02*
X15397500Y-4424605D01*
X15347500Y-4628605D02*
X15347500Y-4728605D01*
X15297500Y-4678605D02*
X15397500Y-4678605D01*
X15347500Y-4882605D02*
X15347500Y-4982605D01*
X15297500Y-4932605D02*
X15397500Y-4932605D01*
X15347500Y-5136605D02*
X15347500Y-5236605D01*
X15297500Y-5186605D02*
X15397500Y-5186605D01*
X15347500Y-5390605D02*
X15347500Y-5490605D01*
X15297500Y-5440605D02*
X15397500Y-5440605D01*
X15347500Y-5644605D02*
X15347500Y-5744605D01*
X15297500Y-5694605D02*
X15397500Y-5694605D01*
X15347500Y-5898605D02*
X15347500Y-5998605D01*
X15297500Y-5948605D02*
X15397500Y-5948605D01*
X15347500Y-6152605D02*
X15347500Y-6252605D01*
X15297500Y-6202605D02*
X15397500Y-6202605D01*
X15347500Y-6406605D02*
X15347500Y-6506605D01*
X15297500Y-6456605D02*
X15397500Y-6456605D01*
X15347500Y-6660605D02*
X15347500Y-6760605D01*
X15297500Y-6710605D02*
X15397500Y-6710605D01*
X15347500Y-6914605D02*
X15347500Y-7014605D01*
X15297500Y-6964605D02*
X15397500Y-6964605D01*
X15347500Y-7168605D02*
X15347500Y-7268605D01*
X15297500Y-7218605D02*
X15397500Y-7218605D01*
X15347500Y-7422605D02*
X15347500Y-7522605D01*
X15297500Y-7472605D02*
X15397500Y-7472605D01*
X15347500Y-7676605D02*
X15347500Y-7776605D01*
X15297500Y-7726605D02*
X15397500Y-7726605D01*
X15347500Y-7930605D02*
X15347500Y-8030605D01*
X15297500Y-7980605D02*
X15397500Y-7980605D01*
X15347500Y-8184605D02*
X15347500Y-8284605D01*
X15297500Y-8234605D02*
X15397500Y-8234605D01*
X15347500Y-8438605D02*
X15347500Y-8538605D01*
X15297500Y-8488605D02*
X15397500Y-8488605D01*
X15347500Y-8692605D02*
X15347500Y-8792605D01*
X15297500Y-8742605D02*
X15397500Y-8742605D01*
X15347500Y-8946605D02*
X15347500Y-9046605D01*
X15297500Y-8996605D02*
X15397500Y-8996605D01*
X15347500Y-9200605D02*
X15347500Y-9300605D01*
X15297500Y-9250605D02*
X15397500Y-9250605D01*
D11*
X6214617Y-19206476D02*
X6214617Y-19006476D01*
X6262236Y-19006476D01*
X6290807Y-19016000D01*
X6309855Y-19035048D01*
X6319378Y-19054095D01*
X6328902Y-19092190D01*
X6328902Y-19120762D01*
X6319378Y-19158857D01*
X6309855Y-19177905D01*
X6290807Y-19196952D01*
X6262236Y-19206476D01*
X6214617Y-19206476D01*
X6414617Y-19206476D02*
X6414617Y-19073143D01*
X6414617Y-19111238D02*
X6424140Y-19092190D01*
X6433664Y-19082667D01*
X6452712Y-19073143D01*
X6471759Y-19073143D01*
X6538426Y-19206476D02*
X6538426Y-19073143D01*
X6538426Y-19006476D02*
X6528902Y-19016000D01*
X6538426Y-19025524D01*
X6547950Y-19016000D01*
X6538426Y-19006476D01*
X6538426Y-19025524D01*
X6662236Y-19206476D02*
X6643188Y-19196952D01*
X6633664Y-19177905D01*
X6633664Y-19006476D01*
X6766998Y-19206476D02*
X6747950Y-19196952D01*
X6738426Y-19177905D01*
X6738426Y-19006476D01*
X6995569Y-19206476D02*
X6995569Y-19006476D01*
X7062236Y-19149333D01*
X7128902Y-19006476D01*
X7128902Y-19206476D01*
X7309855Y-19206476D02*
X7309855Y-19101714D01*
X7300331Y-19082667D01*
X7281283Y-19073143D01*
X7243188Y-19073143D01*
X7224140Y-19082667D01*
X7309855Y-19196952D02*
X7290807Y-19206476D01*
X7243188Y-19206476D01*
X7224140Y-19196952D01*
X7214617Y-19177905D01*
X7214617Y-19158857D01*
X7224140Y-19139810D01*
X7243188Y-19130286D01*
X7290807Y-19130286D01*
X7309855Y-19120762D01*
X7405093Y-19073143D02*
X7405093Y-19273143D01*
X7405093Y-19082667D02*
X7424140Y-19073143D01*
X7462236Y-19073143D01*
X7481283Y-19082667D01*
X7490807Y-19092190D01*
X7500331Y-19111238D01*
X7500331Y-19168381D01*
X7490807Y-19187429D01*
X7481283Y-19196952D01*
X7462236Y-19206476D01*
X7424140Y-19206476D01*
X7405093Y-19196952D01*
X7586045Y-19187429D02*
X7595569Y-19196952D01*
X7586045Y-19206476D01*
X7576521Y-19196952D01*
X7586045Y-19187429D01*
X7586045Y-19206476D01*
X7586045Y-19082667D02*
X7595569Y-19092190D01*
X7586045Y-19101714D01*
X7576521Y-19092190D01*
X7586045Y-19082667D01*
X7586045Y-19101714D01*
D12*
X5916998Y-19516000D02*
X5956998Y-19556000D01*
X5956998Y-19516000D02*
X5916998Y-19556000D01*
D11*
X6252712Y-19426476D02*
X6271759Y-19426476D01*
X6290807Y-19436000D01*
X6300331Y-19445524D01*
X6309855Y-19464571D01*
X6319378Y-19502667D01*
X6319378Y-19550286D01*
X6309855Y-19588381D01*
X6300331Y-19607429D01*
X6290807Y-19616952D01*
X6271759Y-19626476D01*
X6252712Y-19626476D01*
X6233664Y-19616952D01*
X6224140Y-19607429D01*
X6214617Y-19588381D01*
X6205093Y-19550286D01*
X6205093Y-19502667D01*
X6214617Y-19464571D01*
X6224140Y-19445524D01*
X6233664Y-19436000D01*
X6252712Y-19426476D01*
X6405093Y-19607429D02*
X6414617Y-19616952D01*
X6405093Y-19626476D01*
X6395569Y-19616952D01*
X6405093Y-19607429D01*
X6405093Y-19626476D01*
X6586045Y-19493143D02*
X6586045Y-19626476D01*
X6538426Y-19416952D02*
X6490807Y-19559810D01*
X6614617Y-19559810D01*
X6728902Y-19426476D02*
X6747950Y-19426476D01*
X6766998Y-19436000D01*
X6776521Y-19445524D01*
X6786045Y-19464571D01*
X6795569Y-19502667D01*
X6795569Y-19550286D01*
X6786045Y-19588381D01*
X6776521Y-19607429D01*
X6766998Y-19616952D01*
X6747950Y-19626476D01*
X6728902Y-19626476D01*
X6709855Y-19616952D01*
X6700331Y-19607429D01*
X6690807Y-19588381D01*
X6681283Y-19550286D01*
X6681283Y-19502667D01*
X6690807Y-19464571D01*
X6700331Y-19445524D01*
X6709855Y-19436000D01*
X6728902Y-19426476D01*
X6919378Y-19426476D02*
X6938426Y-19426476D01*
X6957474Y-19436000D01*
X6966998Y-19445524D01*
X6976521Y-19464571D01*
X6986045Y-19502667D01*
X6986045Y-19550286D01*
X6976521Y-19588381D01*
X6966998Y-19607429D01*
X6957474Y-19616952D01*
X6938426Y-19626476D01*
X6919378Y-19626476D01*
X6900331Y-19616952D01*
X6890807Y-19607429D01*
X6881283Y-19588381D01*
X6871759Y-19550286D01*
X6871759Y-19502667D01*
X6881283Y-19464571D01*
X6890807Y-19445524D01*
X6900331Y-19436000D01*
X6919378Y-19426476D01*
X7071759Y-19626476D02*
X7071759Y-19493143D01*
X7071759Y-19512190D02*
X7081283Y-19502667D01*
X7100331Y-19493143D01*
X7128902Y-19493143D01*
X7147950Y-19502667D01*
X7157474Y-19521714D01*
X7157474Y-19626476D01*
X7157474Y-19521714D02*
X7166998Y-19502667D01*
X7186045Y-19493143D01*
X7214617Y-19493143D01*
X7233664Y-19502667D01*
X7243188Y-19521714D01*
X7243188Y-19626476D01*
X7338426Y-19626476D02*
X7338426Y-19493143D01*
X7338426Y-19512190D02*
X7347950Y-19502667D01*
X7366998Y-19493143D01*
X7395569Y-19493143D01*
X7414617Y-19502667D01*
X7424140Y-19521714D01*
X7424140Y-19626476D01*
X7424140Y-19521714D02*
X7433664Y-19502667D01*
X7452712Y-19493143D01*
X7481283Y-19493143D01*
X7500331Y-19502667D01*
X7509855Y-19521714D01*
X7509855Y-19626476D01*
X7900331Y-19416952D02*
X7728902Y-19674095D01*
X8157474Y-19426476D02*
X8176521Y-19426476D01*
X8195569Y-19436000D01*
X8205093Y-19445524D01*
X8214617Y-19464571D01*
X8224140Y-19502667D01*
X8224140Y-19550286D01*
X8214617Y-19588381D01*
X8205093Y-19607429D01*
X8195569Y-19616952D01*
X8176521Y-19626476D01*
X8157474Y-19626476D01*
X8138426Y-19616952D01*
X8128902Y-19607429D01*
X8119378Y-19588381D01*
X8109855Y-19550286D01*
X8109855Y-19502667D01*
X8119378Y-19464571D01*
X8128902Y-19445524D01*
X8138426Y-19436000D01*
X8157474Y-19426476D01*
X8309855Y-19607429D02*
X8319378Y-19616952D01*
X8309855Y-19626476D01*
X8300331Y-19616952D01*
X8309855Y-19607429D01*
X8309855Y-19626476D01*
X8443188Y-19426476D02*
X8462236Y-19426476D01*
X8481283Y-19436000D01*
X8490807Y-19445524D01*
X8500331Y-19464571D01*
X8509855Y-19502667D01*
X8509855Y-19550286D01*
X8500331Y-19588381D01*
X8490807Y-19607429D01*
X8481283Y-19616952D01*
X8462236Y-19626476D01*
X8443188Y-19626476D01*
X8424140Y-19616952D01*
X8414617Y-19607429D01*
X8405093Y-19588381D01*
X8395569Y-19550286D01*
X8395569Y-19502667D01*
X8405093Y-19464571D01*
X8414617Y-19445524D01*
X8424140Y-19436000D01*
X8443188Y-19426476D01*
X8700331Y-19626476D02*
X8586045Y-19626476D01*
X8643188Y-19626476D02*
X8643188Y-19426476D01*
X8624140Y-19455048D01*
X8605093Y-19474095D01*
X8586045Y-19483619D01*
X8881283Y-19426476D02*
X8786045Y-19426476D01*
X8776521Y-19521714D01*
X8786045Y-19512190D01*
X8805093Y-19502667D01*
X8852712Y-19502667D01*
X8871760Y-19512190D01*
X8881283Y-19521714D01*
X8890807Y-19540762D01*
X8890807Y-19588381D01*
X8881283Y-19607429D01*
X8871760Y-19616952D01*
X8852712Y-19626476D01*
X8805093Y-19626476D01*
X8786045Y-19616952D01*
X8776521Y-19607429D01*
X8957474Y-19426476D02*
X9090807Y-19426476D01*
X9005093Y-19626476D01*
X9157474Y-19426476D02*
X9157474Y-19464571D01*
X9233664Y-19426476D02*
X9233664Y-19464571D01*
X9528902Y-19702667D02*
X9519379Y-19693143D01*
X9500331Y-19664571D01*
X9490807Y-19645524D01*
X9481283Y-19616952D01*
X9471760Y-19569333D01*
X9471760Y-19531238D01*
X9481283Y-19483619D01*
X9490807Y-19455048D01*
X9500331Y-19436000D01*
X9519379Y-19407429D01*
X9528902Y-19397905D01*
X9586045Y-19426476D02*
X9709855Y-19426476D01*
X9643188Y-19502667D01*
X9671760Y-19502667D01*
X9690807Y-19512190D01*
X9700331Y-19521714D01*
X9709855Y-19540762D01*
X9709855Y-19588381D01*
X9700331Y-19607429D01*
X9690807Y-19616952D01*
X9671760Y-19626476D01*
X9614617Y-19626476D01*
X9595569Y-19616952D01*
X9586045Y-19607429D01*
X9776521Y-19426476D02*
X9909855Y-19426476D01*
X9824140Y-19626476D01*
X10138426Y-19626476D02*
X10138426Y-19426476D01*
X10224140Y-19626476D02*
X10224140Y-19521714D01*
X10214617Y-19502667D01*
X10195569Y-19493143D01*
X10166998Y-19493143D01*
X10147950Y-19502667D01*
X10138426Y-19512190D01*
X10347950Y-19626476D02*
X10328902Y-19616952D01*
X10319379Y-19607429D01*
X10309855Y-19588381D01*
X10309855Y-19531238D01*
X10319379Y-19512190D01*
X10328902Y-19502667D01*
X10347950Y-19493143D01*
X10376521Y-19493143D01*
X10395569Y-19502667D01*
X10405093Y-19512190D01*
X10414617Y-19531238D01*
X10414617Y-19588381D01*
X10405093Y-19607429D01*
X10395569Y-19616952D01*
X10376521Y-19626476D01*
X10347950Y-19626476D01*
X10528902Y-19626476D02*
X10509855Y-19616952D01*
X10500331Y-19597905D01*
X10500331Y-19426476D01*
X10681283Y-19616952D02*
X10662236Y-19626476D01*
X10624140Y-19626476D01*
X10605093Y-19616952D01*
X10595569Y-19597905D01*
X10595569Y-19521714D01*
X10605093Y-19502667D01*
X10624140Y-19493143D01*
X10662236Y-19493143D01*
X10681283Y-19502667D01*
X10690807Y-19521714D01*
X10690807Y-19540762D01*
X10595569Y-19559810D01*
X10766998Y-19616952D02*
X10786045Y-19626476D01*
X10824140Y-19626476D01*
X10843188Y-19616952D01*
X10852712Y-19597905D01*
X10852712Y-19588381D01*
X10843188Y-19569333D01*
X10824140Y-19559810D01*
X10795569Y-19559810D01*
X10776521Y-19550286D01*
X10766998Y-19531238D01*
X10766998Y-19521714D01*
X10776521Y-19502667D01*
X10795569Y-19493143D01*
X10824140Y-19493143D01*
X10843188Y-19502667D01*
X10919379Y-19702667D02*
X10928902Y-19693143D01*
X10947950Y-19664571D01*
X10957474Y-19645524D01*
X10966998Y-19616952D01*
X10976521Y-19569333D01*
X10976521Y-19531238D01*
X10966998Y-19483619D01*
X10957474Y-19455048D01*
X10947950Y-19436000D01*
X10928902Y-19407429D01*
X10919379Y-19397905D01*
D13*
X5956998Y-19800000D02*
G75*
G03*
X5956998Y-19800000I-40000J0D01*
G01*
D11*
X6252712Y-19690476D02*
X6271759Y-19690476D01*
X6290807Y-19700000D01*
X6300331Y-19709524D01*
X6309855Y-19728571D01*
X6319378Y-19766667D01*
X6319378Y-19814286D01*
X6309855Y-19852381D01*
X6300331Y-19871429D01*
X6290807Y-19880952D01*
X6271759Y-19890476D01*
X6252712Y-19890476D01*
X6233664Y-19880952D01*
X6224140Y-19871429D01*
X6214617Y-19852381D01*
X6205093Y-19814286D01*
X6205093Y-19766667D01*
X6214617Y-19728571D01*
X6224140Y-19709524D01*
X6233664Y-19700000D01*
X6252712Y-19690476D01*
X6405093Y-19871429D02*
X6414617Y-19880952D01*
X6405093Y-19890476D01*
X6395569Y-19880952D01*
X6405093Y-19871429D01*
X6405093Y-19890476D01*
X6528902Y-19776190D02*
X6509855Y-19766667D01*
X6500331Y-19757143D01*
X6490807Y-19738095D01*
X6490807Y-19728571D01*
X6500331Y-19709524D01*
X6509855Y-19700000D01*
X6528902Y-19690476D01*
X6566998Y-19690476D01*
X6586045Y-19700000D01*
X6595569Y-19709524D01*
X6605093Y-19728571D01*
X6605093Y-19738095D01*
X6595569Y-19757143D01*
X6586045Y-19766667D01*
X6566998Y-19776190D01*
X6528902Y-19776190D01*
X6509855Y-19785714D01*
X6500331Y-19795238D01*
X6490807Y-19814286D01*
X6490807Y-19852381D01*
X6500331Y-19871429D01*
X6509855Y-19880952D01*
X6528902Y-19890476D01*
X6566998Y-19890476D01*
X6586045Y-19880952D01*
X6595569Y-19871429D01*
X6605093Y-19852381D01*
X6605093Y-19814286D01*
X6595569Y-19795238D01*
X6586045Y-19785714D01*
X6566998Y-19776190D01*
X6728902Y-19690476D02*
X6747950Y-19690476D01*
X6766998Y-19700000D01*
X6776521Y-19709524D01*
X6786045Y-19728571D01*
X6795569Y-19766667D01*
X6795569Y-19814286D01*
X6786045Y-19852381D01*
X6776521Y-19871429D01*
X6766998Y-19880952D01*
X6747950Y-19890476D01*
X6728902Y-19890476D01*
X6709855Y-19880952D01*
X6700331Y-19871429D01*
X6690807Y-19852381D01*
X6681283Y-19814286D01*
X6681283Y-19766667D01*
X6690807Y-19728571D01*
X6700331Y-19709524D01*
X6709855Y-19700000D01*
X6728902Y-19690476D01*
X6919378Y-19690476D02*
X6938426Y-19690476D01*
X6957474Y-19700000D01*
X6966998Y-19709524D01*
X6976521Y-19728571D01*
X6986045Y-19766667D01*
X6986045Y-19814286D01*
X6976521Y-19852381D01*
X6966998Y-19871429D01*
X6957474Y-19880952D01*
X6938426Y-19890476D01*
X6919378Y-19890476D01*
X6900331Y-19880952D01*
X6890807Y-19871429D01*
X6881283Y-19852381D01*
X6871759Y-19814286D01*
X6871759Y-19766667D01*
X6881283Y-19728571D01*
X6890807Y-19709524D01*
X6900331Y-19700000D01*
X6919378Y-19690476D01*
X7071759Y-19890476D02*
X7071759Y-19757143D01*
X7071759Y-19776190D02*
X7081283Y-19766667D01*
X7100331Y-19757143D01*
X7128902Y-19757143D01*
X7147950Y-19766667D01*
X7157474Y-19785714D01*
X7157474Y-19890476D01*
X7157474Y-19785714D02*
X7166998Y-19766667D01*
X7186045Y-19757143D01*
X7214617Y-19757143D01*
X7233664Y-19766667D01*
X7243188Y-19785714D01*
X7243188Y-19890476D01*
X7338426Y-19890476D02*
X7338426Y-19757143D01*
X7338426Y-19776190D02*
X7347950Y-19766667D01*
X7366998Y-19757143D01*
X7395569Y-19757143D01*
X7414617Y-19766667D01*
X7424140Y-19785714D01*
X7424140Y-19890476D01*
X7424140Y-19785714D02*
X7433664Y-19766667D01*
X7452712Y-19757143D01*
X7481283Y-19757143D01*
X7500331Y-19766667D01*
X7509855Y-19785714D01*
X7509855Y-19890476D01*
X7900331Y-19680952D02*
X7728902Y-19938095D01*
X8157474Y-19690476D02*
X8176521Y-19690476D01*
X8195569Y-19700000D01*
X8205093Y-19709524D01*
X8214617Y-19728571D01*
X8224140Y-19766667D01*
X8224140Y-19814286D01*
X8214617Y-19852381D01*
X8205093Y-19871429D01*
X8195569Y-19880952D01*
X8176521Y-19890476D01*
X8157474Y-19890476D01*
X8138426Y-19880952D01*
X8128902Y-19871429D01*
X8119378Y-19852381D01*
X8109855Y-19814286D01*
X8109855Y-19766667D01*
X8119378Y-19728571D01*
X8128902Y-19709524D01*
X8138426Y-19700000D01*
X8157474Y-19690476D01*
X8309855Y-19871429D02*
X8319378Y-19880952D01*
X8309855Y-19890476D01*
X8300331Y-19880952D01*
X8309855Y-19871429D01*
X8309855Y-19890476D01*
X8443188Y-19690476D02*
X8462236Y-19690476D01*
X8481283Y-19700000D01*
X8490807Y-19709524D01*
X8500331Y-19728571D01*
X8509855Y-19766667D01*
X8509855Y-19814286D01*
X8500331Y-19852381D01*
X8490807Y-19871429D01*
X8481283Y-19880952D01*
X8462236Y-19890476D01*
X8443188Y-19890476D01*
X8424140Y-19880952D01*
X8414617Y-19871429D01*
X8405093Y-19852381D01*
X8395569Y-19814286D01*
X8395569Y-19766667D01*
X8405093Y-19728571D01*
X8414617Y-19709524D01*
X8424140Y-19700000D01*
X8443188Y-19690476D01*
X8576521Y-19690476D02*
X8700331Y-19690476D01*
X8633664Y-19766667D01*
X8662236Y-19766667D01*
X8681283Y-19776190D01*
X8690807Y-19785714D01*
X8700331Y-19804762D01*
X8700331Y-19852381D01*
X8690807Y-19871429D01*
X8681283Y-19880952D01*
X8662236Y-19890476D01*
X8605093Y-19890476D01*
X8586045Y-19880952D01*
X8576521Y-19871429D01*
X8890807Y-19890476D02*
X8776521Y-19890476D01*
X8833664Y-19890476D02*
X8833664Y-19690476D01*
X8814617Y-19719048D01*
X8795569Y-19738095D01*
X8776521Y-19747619D01*
X9071760Y-19690476D02*
X8976521Y-19690476D01*
X8966998Y-19785714D01*
X8976521Y-19776190D01*
X8995569Y-19766667D01*
X9043188Y-19766667D01*
X9062236Y-19776190D01*
X9071760Y-19785714D01*
X9081283Y-19804762D01*
X9081283Y-19852381D01*
X9071760Y-19871429D01*
X9062236Y-19880952D01*
X9043188Y-19890476D01*
X8995569Y-19890476D01*
X8976521Y-19880952D01*
X8966998Y-19871429D01*
X9157474Y-19690476D02*
X9157474Y-19728571D01*
X9233664Y-19690476D02*
X9233664Y-19728571D01*
X9528902Y-19966667D02*
X9519379Y-19957143D01*
X9500331Y-19928571D01*
X9490807Y-19909524D01*
X9481283Y-19880952D01*
X9471760Y-19833333D01*
X9471760Y-19795238D01*
X9481283Y-19747619D01*
X9490807Y-19719048D01*
X9500331Y-19700000D01*
X9519379Y-19671429D01*
X9528902Y-19661905D01*
X9709855Y-19890476D02*
X9595569Y-19890476D01*
X9652712Y-19890476D02*
X9652712Y-19690476D01*
X9633664Y-19719048D01*
X9614617Y-19738095D01*
X9595569Y-19747619D01*
X9833664Y-19690476D02*
X9852712Y-19690476D01*
X9871760Y-19700000D01*
X9881283Y-19709524D01*
X9890807Y-19728571D01*
X9900331Y-19766667D01*
X9900331Y-19814286D01*
X9890807Y-19852381D01*
X9881283Y-19871429D01*
X9871760Y-19880952D01*
X9852712Y-19890476D01*
X9833664Y-19890476D01*
X9814617Y-19880952D01*
X9805093Y-19871429D01*
X9795569Y-19852381D01*
X9786045Y-19814286D01*
X9786045Y-19766667D01*
X9795569Y-19728571D01*
X9805093Y-19709524D01*
X9814617Y-19700000D01*
X9833664Y-19690476D01*
X10071760Y-19690476D02*
X10033664Y-19690476D01*
X10014617Y-19700000D01*
X10005093Y-19709524D01*
X9986045Y-19738095D01*
X9976521Y-19776190D01*
X9976521Y-19852381D01*
X9986045Y-19871429D01*
X9995569Y-19880952D01*
X10014617Y-19890476D01*
X10052712Y-19890476D01*
X10071760Y-19880952D01*
X10081283Y-19871429D01*
X10090807Y-19852381D01*
X10090807Y-19804762D01*
X10081283Y-19785714D01*
X10071760Y-19776190D01*
X10052712Y-19766667D01*
X10014617Y-19766667D01*
X9995569Y-19776190D01*
X9986045Y-19785714D01*
X9976521Y-19804762D01*
X10328902Y-19890476D02*
X10328902Y-19690476D01*
X10414617Y-19890476D02*
X10414617Y-19785714D01*
X10405093Y-19766667D01*
X10386045Y-19757143D01*
X10357474Y-19757143D01*
X10338426Y-19766667D01*
X10328902Y-19776190D01*
X10538426Y-19890476D02*
X10519379Y-19880952D01*
X10509855Y-19871429D01*
X10500331Y-19852381D01*
X10500331Y-19795238D01*
X10509855Y-19776190D01*
X10519379Y-19766667D01*
X10538426Y-19757143D01*
X10566998Y-19757143D01*
X10586045Y-19766667D01*
X10595569Y-19776190D01*
X10605093Y-19795238D01*
X10605093Y-19852381D01*
X10595569Y-19871429D01*
X10586045Y-19880952D01*
X10566998Y-19890476D01*
X10538426Y-19890476D01*
X10719379Y-19890476D02*
X10700331Y-19880952D01*
X10690807Y-19861905D01*
X10690807Y-19690476D01*
X10871760Y-19880952D02*
X10852712Y-19890476D01*
X10814617Y-19890476D01*
X10795569Y-19880952D01*
X10786045Y-19861905D01*
X10786045Y-19785714D01*
X10795569Y-19766667D01*
X10814617Y-19757143D01*
X10852712Y-19757143D01*
X10871760Y-19766667D01*
X10881283Y-19785714D01*
X10881283Y-19804762D01*
X10786045Y-19823810D01*
X10957474Y-19880952D02*
X10976521Y-19890476D01*
X11014617Y-19890476D01*
X11033664Y-19880952D01*
X11043188Y-19861905D01*
X11043188Y-19852381D01*
X11033664Y-19833333D01*
X11014617Y-19823810D01*
X10986045Y-19823810D01*
X10966998Y-19814286D01*
X10957474Y-19795238D01*
X10957474Y-19785714D01*
X10966998Y-19766667D01*
X10986045Y-19757143D01*
X11014617Y-19757143D01*
X11033664Y-19766667D01*
X11109855Y-19966667D02*
X11119379Y-19957143D01*
X11138426Y-19928571D01*
X11147950Y-19909524D01*
X11157474Y-19880952D01*
X11166998Y-19833333D01*
X11166998Y-19795238D01*
X11157474Y-19747619D01*
X11147950Y-19719048D01*
X11138426Y-19700000D01*
X11119379Y-19671429D01*
X11109855Y-19661905D01*
D10*
X5906998Y-20014000D02*
X5906998Y-20114000D01*
X5856998Y-20064000D02*
X5956998Y-20064000D01*
D11*
X6319378Y-20154476D02*
X6205093Y-20154476D01*
X6262236Y-20154476D02*
X6262236Y-19954476D01*
X6243188Y-19983048D01*
X6224140Y-20002095D01*
X6205093Y-20011619D01*
X6405093Y-20135429D02*
X6414617Y-20144952D01*
X6405093Y-20154476D01*
X6395569Y-20144952D01*
X6405093Y-20135429D01*
X6405093Y-20154476D01*
X6538426Y-19954476D02*
X6557474Y-19954476D01*
X6576521Y-19964000D01*
X6586045Y-19973524D01*
X6595569Y-19992571D01*
X6605093Y-20030667D01*
X6605093Y-20078286D01*
X6595569Y-20116381D01*
X6586045Y-20135429D01*
X6576521Y-20144952D01*
X6557474Y-20154476D01*
X6538426Y-20154476D01*
X6519378Y-20144952D01*
X6509855Y-20135429D01*
X6500331Y-20116381D01*
X6490807Y-20078286D01*
X6490807Y-20030667D01*
X6500331Y-19992571D01*
X6509855Y-19973524D01*
X6519378Y-19964000D01*
X6538426Y-19954476D01*
X6728902Y-19954476D02*
X6747950Y-19954476D01*
X6766998Y-19964000D01*
X6776521Y-19973524D01*
X6786045Y-19992571D01*
X6795569Y-20030667D01*
X6795569Y-20078286D01*
X6786045Y-20116381D01*
X6776521Y-20135429D01*
X6766998Y-20144952D01*
X6747950Y-20154476D01*
X6728902Y-20154476D01*
X6709855Y-20144952D01*
X6700331Y-20135429D01*
X6690807Y-20116381D01*
X6681283Y-20078286D01*
X6681283Y-20030667D01*
X6690807Y-19992571D01*
X6700331Y-19973524D01*
X6709855Y-19964000D01*
X6728902Y-19954476D01*
X6919378Y-19954476D02*
X6938426Y-19954476D01*
X6957474Y-19964000D01*
X6966998Y-19973524D01*
X6976521Y-19992571D01*
X6986045Y-20030667D01*
X6986045Y-20078286D01*
X6976521Y-20116381D01*
X6966998Y-20135429D01*
X6957474Y-20144952D01*
X6938426Y-20154476D01*
X6919378Y-20154476D01*
X6900331Y-20144952D01*
X6890807Y-20135429D01*
X6881283Y-20116381D01*
X6871759Y-20078286D01*
X6871759Y-20030667D01*
X6881283Y-19992571D01*
X6890807Y-19973524D01*
X6900331Y-19964000D01*
X6919378Y-19954476D01*
X7071759Y-20154476D02*
X7071759Y-20021143D01*
X7071759Y-20040190D02*
X7081283Y-20030667D01*
X7100331Y-20021143D01*
X7128902Y-20021143D01*
X7147950Y-20030667D01*
X7157474Y-20049714D01*
X7157474Y-20154476D01*
X7157474Y-20049714D02*
X7166998Y-20030667D01*
X7186045Y-20021143D01*
X7214617Y-20021143D01*
X7233664Y-20030667D01*
X7243188Y-20049714D01*
X7243188Y-20154476D01*
X7338426Y-20154476D02*
X7338426Y-20021143D01*
X7338426Y-20040190D02*
X7347950Y-20030667D01*
X7366998Y-20021143D01*
X7395569Y-20021143D01*
X7414617Y-20030667D01*
X7424140Y-20049714D01*
X7424140Y-20154476D01*
X7424140Y-20049714D02*
X7433664Y-20030667D01*
X7452712Y-20021143D01*
X7481283Y-20021143D01*
X7500331Y-20030667D01*
X7509855Y-20049714D01*
X7509855Y-20154476D01*
X7900331Y-19944952D02*
X7728902Y-20202095D01*
X8157474Y-19954476D02*
X8176521Y-19954476D01*
X8195569Y-19964000D01*
X8205093Y-19973524D01*
X8214617Y-19992571D01*
X8224140Y-20030667D01*
X8224140Y-20078286D01*
X8214617Y-20116381D01*
X8205093Y-20135429D01*
X8195569Y-20144952D01*
X8176521Y-20154476D01*
X8157474Y-20154476D01*
X8138426Y-20144952D01*
X8128902Y-20135429D01*
X8119378Y-20116381D01*
X8109855Y-20078286D01*
X8109855Y-20030667D01*
X8119378Y-19992571D01*
X8128902Y-19973524D01*
X8138426Y-19964000D01*
X8157474Y-19954476D01*
X8309855Y-20135429D02*
X8319378Y-20144952D01*
X8309855Y-20154476D01*
X8300331Y-20144952D01*
X8309855Y-20135429D01*
X8309855Y-20154476D01*
X8443188Y-19954476D02*
X8462236Y-19954476D01*
X8481283Y-19964000D01*
X8490807Y-19973524D01*
X8500331Y-19992571D01*
X8509855Y-20030667D01*
X8509855Y-20078286D01*
X8500331Y-20116381D01*
X8490807Y-20135429D01*
X8481283Y-20144952D01*
X8462236Y-20154476D01*
X8443188Y-20154476D01*
X8424140Y-20144952D01*
X8414617Y-20135429D01*
X8405093Y-20116381D01*
X8395569Y-20078286D01*
X8395569Y-20030667D01*
X8405093Y-19992571D01*
X8414617Y-19973524D01*
X8424140Y-19964000D01*
X8443188Y-19954476D01*
X8576521Y-19954476D02*
X8700331Y-19954476D01*
X8633664Y-20030667D01*
X8662236Y-20030667D01*
X8681283Y-20040190D01*
X8690807Y-20049714D01*
X8700331Y-20068762D01*
X8700331Y-20116381D01*
X8690807Y-20135429D01*
X8681283Y-20144952D01*
X8662236Y-20154476D01*
X8605093Y-20154476D01*
X8586045Y-20144952D01*
X8576521Y-20135429D01*
X8795569Y-20154476D02*
X8833664Y-20154476D01*
X8852712Y-20144952D01*
X8862236Y-20135429D01*
X8881283Y-20106857D01*
X8890807Y-20068762D01*
X8890807Y-19992571D01*
X8881283Y-19973524D01*
X8871760Y-19964000D01*
X8852712Y-19954476D01*
X8814617Y-19954476D01*
X8795569Y-19964000D01*
X8786045Y-19973524D01*
X8776521Y-19992571D01*
X8776521Y-20040190D01*
X8786045Y-20059238D01*
X8795569Y-20068762D01*
X8814617Y-20078286D01*
X8852712Y-20078286D01*
X8871760Y-20068762D01*
X8881283Y-20059238D01*
X8890807Y-20040190D01*
X9062236Y-20021143D02*
X9062236Y-20154476D01*
X9014617Y-19944952D02*
X8966998Y-20087810D01*
X9090807Y-20087810D01*
X9157474Y-19954476D02*
X9157474Y-19992571D01*
X9233664Y-19954476D02*
X9233664Y-19992571D01*
X9528902Y-20230667D02*
X9519379Y-20221143D01*
X9500331Y-20192571D01*
X9490807Y-20173524D01*
X9481283Y-20144952D01*
X9471760Y-20097333D01*
X9471760Y-20059238D01*
X9481283Y-20011619D01*
X9490807Y-19983048D01*
X9500331Y-19964000D01*
X9519379Y-19935429D01*
X9528902Y-19925905D01*
X9709855Y-20154476D02*
X9595569Y-20154476D01*
X9652712Y-20154476D02*
X9652712Y-19954476D01*
X9633664Y-19983048D01*
X9614617Y-20002095D01*
X9595569Y-20011619D01*
X9776521Y-19954476D02*
X9909855Y-19954476D01*
X9824140Y-20154476D01*
X9966998Y-19954476D02*
X10090807Y-19954476D01*
X10024140Y-20030667D01*
X10052712Y-20030667D01*
X10071760Y-20040190D01*
X10081283Y-20049714D01*
X10090807Y-20068762D01*
X10090807Y-20116381D01*
X10081283Y-20135429D01*
X10071760Y-20144952D01*
X10052712Y-20154476D01*
X9995569Y-20154476D01*
X9976521Y-20144952D01*
X9966998Y-20135429D01*
X10328902Y-20154476D02*
X10328902Y-19954476D01*
X10414617Y-20154476D02*
X10414617Y-20049714D01*
X10405093Y-20030667D01*
X10386045Y-20021143D01*
X10357474Y-20021143D01*
X10338426Y-20030667D01*
X10328902Y-20040190D01*
X10538426Y-20154476D02*
X10519379Y-20144952D01*
X10509855Y-20135429D01*
X10500331Y-20116381D01*
X10500331Y-20059238D01*
X10509855Y-20040190D01*
X10519379Y-20030667D01*
X10538426Y-20021143D01*
X10566998Y-20021143D01*
X10586045Y-20030667D01*
X10595569Y-20040190D01*
X10605093Y-20059238D01*
X10605093Y-20116381D01*
X10595569Y-20135429D01*
X10586045Y-20144952D01*
X10566998Y-20154476D01*
X10538426Y-20154476D01*
X10719379Y-20154476D02*
X10700331Y-20144952D01*
X10690807Y-20125905D01*
X10690807Y-19954476D01*
X10871760Y-20144952D02*
X10852712Y-20154476D01*
X10814617Y-20154476D01*
X10795569Y-20144952D01*
X10786045Y-20125905D01*
X10786045Y-20049714D01*
X10795569Y-20030667D01*
X10814617Y-20021143D01*
X10852712Y-20021143D01*
X10871760Y-20030667D01*
X10881283Y-20049714D01*
X10881283Y-20068762D01*
X10786045Y-20087810D01*
X10957474Y-20144952D02*
X10976521Y-20154476D01*
X11014617Y-20154476D01*
X11033664Y-20144952D01*
X11043188Y-20125905D01*
X11043188Y-20116381D01*
X11033664Y-20097333D01*
X11014617Y-20087810D01*
X10986045Y-20087810D01*
X10966998Y-20078286D01*
X10957474Y-20059238D01*
X10957474Y-20049714D01*
X10966998Y-20030667D01*
X10986045Y-20021143D01*
X11014617Y-20021143D01*
X11033664Y-20030667D01*
X11109855Y-20230667D02*
X11119379Y-20221143D01*
X11138426Y-20192571D01*
X11147950Y-20173524D01*
X11157474Y-20144952D01*
X11166998Y-20097333D01*
X11166998Y-20059238D01*
X11157474Y-20011619D01*
X11147950Y-19983048D01*
X11138426Y-19964000D01*
X11119379Y-19935429D01*
X11109855Y-19925905D01*
M02*
