%TF.GenerationSoftware,KiCad,Pcbnew,(6.0.11)*%
%TF.CreationDate,2024-01-03T20:09:06+00:00*%
%TF.ProjectId,BBCWinchesterPro,42424357-696e-4636-9865-737465725072,rev?*%
%TF.SameCoordinates,Original*%
%TF.FileFunction,Drillmap*%
%TF.FilePolarity,Positive*%
%FSLAX45Y45*%
G04 Gerber Fmt 4.5, Leading zero omitted, Abs format (unit mm)*
G04 Created by KiCad (PCBNEW (6.0.11)) date 2024-01-03 20:09:06*
%MOMM*%
%LPD*%
G01*
G04 APERTURE LIST*
%ADD10C,0.100000*%
%ADD11C,0.200000*%
%ADD12C,0.275000*%
%ADD13C,0.320000*%
%ADD14C,0.350000*%
G04 APERTURE END LIST*
D10*
X15712002Y-2589000D02*
G75*
G03*
X15513000Y-2389000I-200003J0D01*
G01*
X15513000Y-18891002D02*
G75*
G03*
X15713000Y-18691998I0J200002D01*
G01*
X5961998Y-18691000D02*
X5963000Y-2588000D01*
X15712002Y-2589000D02*
X15713000Y-18691998D01*
X15513000Y-18891000D02*
X6161000Y-18891000D01*
X5961997Y-18691000D02*
G75*
G03*
X6161000Y-18891000I200003J0D01*
G01*
X6163000Y-2388998D02*
X15513000Y-2389000D01*
X6163000Y-2388998D02*
G75*
G03*
X5963000Y-2588000I0J-200002D01*
G01*
D11*
D12*
X6451500Y-3872605D02*
X6726500Y-4147605D01*
X6726500Y-3872605D02*
X6451500Y-4147605D01*
X6451500Y-9672605D02*
X6726500Y-9947605D01*
X6726500Y-9672605D02*
X6451500Y-9947605D01*
X8751500Y-3872605D02*
X9026500Y-4147605D01*
X9026500Y-3872605D02*
X8751500Y-4147605D01*
X8751500Y-9672605D02*
X9026500Y-9947605D01*
X9026500Y-9672605D02*
X8751500Y-9947605D01*
D13*
X7432250Y-2890000D02*
G75*
G03*
X7432250Y-2890000I-160000J0D01*
G01*
X7432250Y-18390000D02*
G75*
G03*
X7432250Y-18390000I-160000J0D01*
G01*
X7932250Y-10660000D02*
G75*
G03*
X7932250Y-10660000I-160000J0D01*
G01*
X15432250Y-2890000D02*
G75*
G03*
X15432250Y-2890000I-160000J0D01*
G01*
X15432250Y-10660000D02*
G75*
G03*
X15432250Y-10660000I-160000J0D01*
G01*
X15432250Y-18390000D02*
G75*
G03*
X15432250Y-18390000I-160000J0D01*
G01*
D14*
X6725000Y-10656050D02*
X6725000Y-11006050D01*
X6550000Y-10831050D02*
X6900000Y-10831050D01*
X6725000Y-17205950D02*
X6725000Y-17555950D01*
X6550000Y-17380950D02*
X6900000Y-17380950D01*
X9413000Y-10656050D02*
X9413000Y-11006050D01*
X9238000Y-10831050D02*
X9588000Y-10831050D01*
X9413000Y-17205950D02*
X9413000Y-17555950D01*
X9238000Y-17380950D02*
X9588000Y-17380950D01*
D11*
X6214617Y-19206476D02*
X6214617Y-19006476D01*
X6262236Y-19006476D01*
X6290807Y-19016000D01*
X6309855Y-19035048D01*
X6319378Y-19054095D01*
X6328902Y-19092190D01*
X6328902Y-19120762D01*
X6319378Y-19158857D01*
X6309855Y-19177905D01*
X6290807Y-19196952D01*
X6262236Y-19206476D01*
X6214617Y-19206476D01*
X6414617Y-19206476D02*
X6414617Y-19073143D01*
X6414617Y-19111238D02*
X6424140Y-19092190D01*
X6433664Y-19082667D01*
X6452712Y-19073143D01*
X6471759Y-19073143D01*
X6538426Y-19206476D02*
X6538426Y-19073143D01*
X6538426Y-19006476D02*
X6528902Y-19016000D01*
X6538426Y-19025524D01*
X6547950Y-19016000D01*
X6538426Y-19006476D01*
X6538426Y-19025524D01*
X6662236Y-19206476D02*
X6643188Y-19196952D01*
X6633664Y-19177905D01*
X6633664Y-19006476D01*
X6766998Y-19206476D02*
X6747950Y-19196952D01*
X6738426Y-19177905D01*
X6738426Y-19006476D01*
X6995569Y-19206476D02*
X6995569Y-19006476D01*
X7062236Y-19149333D01*
X7128902Y-19006476D01*
X7128902Y-19206476D01*
X7309855Y-19206476D02*
X7309855Y-19101714D01*
X7300331Y-19082667D01*
X7281283Y-19073143D01*
X7243188Y-19073143D01*
X7224140Y-19082667D01*
X7309855Y-19196952D02*
X7290807Y-19206476D01*
X7243188Y-19206476D01*
X7224140Y-19196952D01*
X7214617Y-19177905D01*
X7214617Y-19158857D01*
X7224140Y-19139810D01*
X7243188Y-19130286D01*
X7290807Y-19130286D01*
X7309855Y-19120762D01*
X7405093Y-19073143D02*
X7405093Y-19273143D01*
X7405093Y-19082667D02*
X7424140Y-19073143D01*
X7462236Y-19073143D01*
X7481283Y-19082667D01*
X7490807Y-19092190D01*
X7500331Y-19111238D01*
X7500331Y-19168381D01*
X7490807Y-19187429D01*
X7481283Y-19196952D01*
X7462236Y-19206476D01*
X7424140Y-19206476D01*
X7405093Y-19196952D01*
X7586045Y-19187429D02*
X7595569Y-19196952D01*
X7586045Y-19206476D01*
X7576521Y-19196952D01*
X7586045Y-19187429D01*
X7586045Y-19206476D01*
X7586045Y-19082667D02*
X7595569Y-19092190D01*
X7586045Y-19101714D01*
X7576521Y-19092190D01*
X7586045Y-19082667D01*
X7586045Y-19101714D01*
X5756998Y-19436000D02*
X5956998Y-19636000D01*
X5956998Y-19436000D02*
X5756998Y-19636000D01*
X6205093Y-19445524D02*
X6214617Y-19436000D01*
X6233664Y-19426476D01*
X6281283Y-19426476D01*
X6300331Y-19436000D01*
X6309855Y-19445524D01*
X6319378Y-19464571D01*
X6319378Y-19483619D01*
X6309855Y-19512190D01*
X6195569Y-19626476D01*
X6319378Y-19626476D01*
X6405093Y-19607429D02*
X6414617Y-19616952D01*
X6405093Y-19626476D01*
X6395569Y-19616952D01*
X6405093Y-19607429D01*
X6405093Y-19626476D01*
X6481283Y-19426476D02*
X6614617Y-19426476D01*
X6528902Y-19626476D01*
X6786045Y-19426476D02*
X6690807Y-19426476D01*
X6681283Y-19521714D01*
X6690807Y-19512190D01*
X6709855Y-19502667D01*
X6757474Y-19502667D01*
X6776521Y-19512190D01*
X6786045Y-19521714D01*
X6795569Y-19540762D01*
X6795569Y-19588381D01*
X6786045Y-19607429D01*
X6776521Y-19616952D01*
X6757474Y-19626476D01*
X6709855Y-19626476D01*
X6690807Y-19616952D01*
X6681283Y-19607429D01*
X6919378Y-19426476D02*
X6938426Y-19426476D01*
X6957474Y-19436000D01*
X6966998Y-19445524D01*
X6976521Y-19464571D01*
X6986045Y-19502667D01*
X6986045Y-19550286D01*
X6976521Y-19588381D01*
X6966998Y-19607429D01*
X6957474Y-19616952D01*
X6938426Y-19626476D01*
X6919378Y-19626476D01*
X6900331Y-19616952D01*
X6890807Y-19607429D01*
X6881283Y-19588381D01*
X6871759Y-19550286D01*
X6871759Y-19502667D01*
X6881283Y-19464571D01*
X6890807Y-19445524D01*
X6900331Y-19436000D01*
X6919378Y-19426476D01*
X7071759Y-19626476D02*
X7071759Y-19493143D01*
X7071759Y-19512190D02*
X7081283Y-19502667D01*
X7100331Y-19493143D01*
X7128902Y-19493143D01*
X7147950Y-19502667D01*
X7157474Y-19521714D01*
X7157474Y-19626476D01*
X7157474Y-19521714D02*
X7166998Y-19502667D01*
X7186045Y-19493143D01*
X7214617Y-19493143D01*
X7233664Y-19502667D01*
X7243188Y-19521714D01*
X7243188Y-19626476D01*
X7338426Y-19626476D02*
X7338426Y-19493143D01*
X7338426Y-19512190D02*
X7347950Y-19502667D01*
X7366998Y-19493143D01*
X7395569Y-19493143D01*
X7414617Y-19502667D01*
X7424140Y-19521714D01*
X7424140Y-19626476D01*
X7424140Y-19521714D02*
X7433664Y-19502667D01*
X7452712Y-19493143D01*
X7481283Y-19493143D01*
X7500331Y-19502667D01*
X7509855Y-19521714D01*
X7509855Y-19626476D01*
X7900331Y-19416952D02*
X7728902Y-19674095D01*
X8157474Y-19426476D02*
X8176521Y-19426476D01*
X8195569Y-19436000D01*
X8205093Y-19445524D01*
X8214617Y-19464571D01*
X8224140Y-19502667D01*
X8224140Y-19550286D01*
X8214617Y-19588381D01*
X8205093Y-19607429D01*
X8195569Y-19616952D01*
X8176521Y-19626476D01*
X8157474Y-19626476D01*
X8138426Y-19616952D01*
X8128902Y-19607429D01*
X8119378Y-19588381D01*
X8109855Y-19550286D01*
X8109855Y-19502667D01*
X8119378Y-19464571D01*
X8128902Y-19445524D01*
X8138426Y-19436000D01*
X8157474Y-19426476D01*
X8309855Y-19607429D02*
X8319378Y-19616952D01*
X8309855Y-19626476D01*
X8300331Y-19616952D01*
X8309855Y-19607429D01*
X8309855Y-19626476D01*
X8509855Y-19626476D02*
X8395569Y-19626476D01*
X8452712Y-19626476D02*
X8452712Y-19426476D01*
X8433664Y-19455048D01*
X8414617Y-19474095D01*
X8395569Y-19483619D01*
X8633664Y-19426476D02*
X8652712Y-19426476D01*
X8671760Y-19436000D01*
X8681283Y-19445524D01*
X8690807Y-19464571D01*
X8700331Y-19502667D01*
X8700331Y-19550286D01*
X8690807Y-19588381D01*
X8681283Y-19607429D01*
X8671760Y-19616952D01*
X8652712Y-19626476D01*
X8633664Y-19626476D01*
X8614617Y-19616952D01*
X8605093Y-19607429D01*
X8595569Y-19588381D01*
X8586045Y-19550286D01*
X8586045Y-19502667D01*
X8595569Y-19464571D01*
X8605093Y-19445524D01*
X8614617Y-19436000D01*
X8633664Y-19426476D01*
X8814617Y-19512190D02*
X8795569Y-19502667D01*
X8786045Y-19493143D01*
X8776521Y-19474095D01*
X8776521Y-19464571D01*
X8786045Y-19445524D01*
X8795569Y-19436000D01*
X8814617Y-19426476D01*
X8852712Y-19426476D01*
X8871760Y-19436000D01*
X8881283Y-19445524D01*
X8890807Y-19464571D01*
X8890807Y-19474095D01*
X8881283Y-19493143D01*
X8871760Y-19502667D01*
X8852712Y-19512190D01*
X8814617Y-19512190D01*
X8795569Y-19521714D01*
X8786045Y-19531238D01*
X8776521Y-19550286D01*
X8776521Y-19588381D01*
X8786045Y-19607429D01*
X8795569Y-19616952D01*
X8814617Y-19626476D01*
X8852712Y-19626476D01*
X8871760Y-19616952D01*
X8881283Y-19607429D01*
X8890807Y-19588381D01*
X8890807Y-19550286D01*
X8881283Y-19531238D01*
X8871760Y-19521714D01*
X8852712Y-19512190D01*
X8957474Y-19426476D02*
X9081283Y-19426476D01*
X9014617Y-19502667D01*
X9043188Y-19502667D01*
X9062236Y-19512190D01*
X9071760Y-19521714D01*
X9081283Y-19540762D01*
X9081283Y-19588381D01*
X9071760Y-19607429D01*
X9062236Y-19616952D01*
X9043188Y-19626476D01*
X8986045Y-19626476D01*
X8966998Y-19616952D01*
X8957474Y-19607429D01*
X9157474Y-19426476D02*
X9157474Y-19464571D01*
X9233664Y-19426476D02*
X9233664Y-19464571D01*
X9528902Y-19702667D02*
X9519379Y-19693143D01*
X9500331Y-19664571D01*
X9490807Y-19645524D01*
X9481283Y-19616952D01*
X9471760Y-19569333D01*
X9471760Y-19531238D01*
X9481283Y-19483619D01*
X9490807Y-19455048D01*
X9500331Y-19436000D01*
X9519379Y-19407429D01*
X9528902Y-19397905D01*
X9690807Y-19493143D02*
X9690807Y-19626476D01*
X9643188Y-19416952D02*
X9595569Y-19559810D01*
X9719379Y-19559810D01*
X9947950Y-19626476D02*
X9947950Y-19426476D01*
X10033664Y-19626476D02*
X10033664Y-19521714D01*
X10024140Y-19502667D01*
X10005093Y-19493143D01*
X9976521Y-19493143D01*
X9957474Y-19502667D01*
X9947950Y-19512190D01*
X10157474Y-19626476D02*
X10138426Y-19616952D01*
X10128902Y-19607429D01*
X10119379Y-19588381D01*
X10119379Y-19531238D01*
X10128902Y-19512190D01*
X10138426Y-19502667D01*
X10157474Y-19493143D01*
X10186045Y-19493143D01*
X10205093Y-19502667D01*
X10214617Y-19512190D01*
X10224140Y-19531238D01*
X10224140Y-19588381D01*
X10214617Y-19607429D01*
X10205093Y-19616952D01*
X10186045Y-19626476D01*
X10157474Y-19626476D01*
X10338426Y-19626476D02*
X10319379Y-19616952D01*
X10309855Y-19597905D01*
X10309855Y-19426476D01*
X10490807Y-19616952D02*
X10471760Y-19626476D01*
X10433664Y-19626476D01*
X10414617Y-19616952D01*
X10405093Y-19597905D01*
X10405093Y-19521714D01*
X10414617Y-19502667D01*
X10433664Y-19493143D01*
X10471760Y-19493143D01*
X10490807Y-19502667D01*
X10500331Y-19521714D01*
X10500331Y-19540762D01*
X10405093Y-19559810D01*
X10576521Y-19616952D02*
X10595569Y-19626476D01*
X10633664Y-19626476D01*
X10652712Y-19616952D01*
X10662236Y-19597905D01*
X10662236Y-19588381D01*
X10652712Y-19569333D01*
X10633664Y-19559810D01*
X10605093Y-19559810D01*
X10586045Y-19550286D01*
X10576521Y-19531238D01*
X10576521Y-19521714D01*
X10586045Y-19502667D01*
X10605093Y-19493143D01*
X10633664Y-19493143D01*
X10652712Y-19502667D01*
X10728902Y-19702667D02*
X10738426Y-19693143D01*
X10757474Y-19664571D01*
X10766998Y-19645524D01*
X10776521Y-19616952D01*
X10786045Y-19569333D01*
X10786045Y-19531238D01*
X10776521Y-19483619D01*
X10766998Y-19455048D01*
X10757474Y-19436000D01*
X10738426Y-19407429D01*
X10728902Y-19397905D01*
X11090807Y-19702667D02*
X11081283Y-19693143D01*
X11062236Y-19664571D01*
X11052712Y-19645524D01*
X11043188Y-19616952D01*
X11033664Y-19569333D01*
X11033664Y-19531238D01*
X11043188Y-19483619D01*
X11052712Y-19455048D01*
X11062236Y-19436000D01*
X11081283Y-19407429D01*
X11090807Y-19397905D01*
X11166998Y-19493143D02*
X11166998Y-19626476D01*
X11166998Y-19512190D02*
X11176521Y-19502667D01*
X11195569Y-19493143D01*
X11224140Y-19493143D01*
X11243188Y-19502667D01*
X11252712Y-19521714D01*
X11252712Y-19626476D01*
X11376521Y-19626476D02*
X11357474Y-19616952D01*
X11347950Y-19607429D01*
X11338426Y-19588381D01*
X11338426Y-19531238D01*
X11347950Y-19512190D01*
X11357474Y-19502667D01*
X11376521Y-19493143D01*
X11405093Y-19493143D01*
X11424140Y-19502667D01*
X11433664Y-19512190D01*
X11443188Y-19531238D01*
X11443188Y-19588381D01*
X11433664Y-19607429D01*
X11424140Y-19616952D01*
X11405093Y-19626476D01*
X11376521Y-19626476D01*
X11500331Y-19493143D02*
X11576521Y-19493143D01*
X11528902Y-19426476D02*
X11528902Y-19597905D01*
X11538426Y-19616952D01*
X11557474Y-19626476D01*
X11576521Y-19626476D01*
X11795569Y-19493143D02*
X11795569Y-19693143D01*
X11795569Y-19502667D02*
X11814617Y-19493143D01*
X11852712Y-19493143D01*
X11871759Y-19502667D01*
X11881283Y-19512190D01*
X11890807Y-19531238D01*
X11890807Y-19588381D01*
X11881283Y-19607429D01*
X11871759Y-19616952D01*
X11852712Y-19626476D01*
X11814617Y-19626476D01*
X11795569Y-19616952D01*
X12005093Y-19626476D02*
X11986045Y-19616952D01*
X11976521Y-19597905D01*
X11976521Y-19426476D01*
X12166997Y-19626476D02*
X12166997Y-19521714D01*
X12157474Y-19502667D01*
X12138426Y-19493143D01*
X12100331Y-19493143D01*
X12081283Y-19502667D01*
X12166997Y-19616952D02*
X12147950Y-19626476D01*
X12100331Y-19626476D01*
X12081283Y-19616952D01*
X12071759Y-19597905D01*
X12071759Y-19578857D01*
X12081283Y-19559810D01*
X12100331Y-19550286D01*
X12147950Y-19550286D01*
X12166997Y-19540762D01*
X12233664Y-19493143D02*
X12309855Y-19493143D01*
X12262236Y-19426476D02*
X12262236Y-19597905D01*
X12271759Y-19616952D01*
X12290807Y-19626476D01*
X12309855Y-19626476D01*
X12452712Y-19616952D02*
X12433664Y-19626476D01*
X12395569Y-19626476D01*
X12376521Y-19616952D01*
X12366997Y-19597905D01*
X12366997Y-19521714D01*
X12376521Y-19502667D01*
X12395569Y-19493143D01*
X12433664Y-19493143D01*
X12452712Y-19502667D01*
X12462236Y-19521714D01*
X12462236Y-19540762D01*
X12366997Y-19559810D01*
X12633664Y-19626476D02*
X12633664Y-19426476D01*
X12633664Y-19616952D02*
X12614617Y-19626476D01*
X12576521Y-19626476D01*
X12557474Y-19616952D01*
X12547950Y-19607429D01*
X12538426Y-19588381D01*
X12538426Y-19531238D01*
X12547950Y-19512190D01*
X12557474Y-19502667D01*
X12576521Y-19493143D01*
X12614617Y-19493143D01*
X12633664Y-19502667D01*
X12709855Y-19702667D02*
X12719378Y-19693143D01*
X12738426Y-19664571D01*
X12747950Y-19645524D01*
X12757474Y-19616952D01*
X12766997Y-19569333D01*
X12766997Y-19531238D01*
X12757474Y-19483619D01*
X12747950Y-19455048D01*
X12738426Y-19436000D01*
X12719378Y-19407429D01*
X12709855Y-19397905D01*
X5956998Y-19856000D02*
G75*
G03*
X5956998Y-19856000I-100000J0D01*
G01*
X6195569Y-19746476D02*
X6319378Y-19746476D01*
X6252712Y-19822667D01*
X6281283Y-19822667D01*
X6300331Y-19832190D01*
X6309855Y-19841714D01*
X6319378Y-19860762D01*
X6319378Y-19908381D01*
X6309855Y-19927429D01*
X6300331Y-19936952D01*
X6281283Y-19946476D01*
X6224140Y-19946476D01*
X6205093Y-19936952D01*
X6195569Y-19927429D01*
X6405093Y-19927429D02*
X6414617Y-19936952D01*
X6405093Y-19946476D01*
X6395569Y-19936952D01*
X6405093Y-19927429D01*
X6405093Y-19946476D01*
X6490807Y-19765524D02*
X6500331Y-19756000D01*
X6519378Y-19746476D01*
X6566998Y-19746476D01*
X6586045Y-19756000D01*
X6595569Y-19765524D01*
X6605093Y-19784571D01*
X6605093Y-19803619D01*
X6595569Y-19832190D01*
X6481283Y-19946476D01*
X6605093Y-19946476D01*
X6728902Y-19746476D02*
X6747950Y-19746476D01*
X6766998Y-19756000D01*
X6776521Y-19765524D01*
X6786045Y-19784571D01*
X6795569Y-19822667D01*
X6795569Y-19870286D01*
X6786045Y-19908381D01*
X6776521Y-19927429D01*
X6766998Y-19936952D01*
X6747950Y-19946476D01*
X6728902Y-19946476D01*
X6709855Y-19936952D01*
X6700331Y-19927429D01*
X6690807Y-19908381D01*
X6681283Y-19870286D01*
X6681283Y-19822667D01*
X6690807Y-19784571D01*
X6700331Y-19765524D01*
X6709855Y-19756000D01*
X6728902Y-19746476D01*
X6919378Y-19746476D02*
X6938426Y-19746476D01*
X6957474Y-19756000D01*
X6966998Y-19765524D01*
X6976521Y-19784571D01*
X6986045Y-19822667D01*
X6986045Y-19870286D01*
X6976521Y-19908381D01*
X6966998Y-19927429D01*
X6957474Y-19936952D01*
X6938426Y-19946476D01*
X6919378Y-19946476D01*
X6900331Y-19936952D01*
X6890807Y-19927429D01*
X6881283Y-19908381D01*
X6871759Y-19870286D01*
X6871759Y-19822667D01*
X6881283Y-19784571D01*
X6890807Y-19765524D01*
X6900331Y-19756000D01*
X6919378Y-19746476D01*
X7071759Y-19946476D02*
X7071759Y-19813143D01*
X7071759Y-19832190D02*
X7081283Y-19822667D01*
X7100331Y-19813143D01*
X7128902Y-19813143D01*
X7147950Y-19822667D01*
X7157474Y-19841714D01*
X7157474Y-19946476D01*
X7157474Y-19841714D02*
X7166998Y-19822667D01*
X7186045Y-19813143D01*
X7214617Y-19813143D01*
X7233664Y-19822667D01*
X7243188Y-19841714D01*
X7243188Y-19946476D01*
X7338426Y-19946476D02*
X7338426Y-19813143D01*
X7338426Y-19832190D02*
X7347950Y-19822667D01*
X7366998Y-19813143D01*
X7395569Y-19813143D01*
X7414617Y-19822667D01*
X7424140Y-19841714D01*
X7424140Y-19946476D01*
X7424140Y-19841714D02*
X7433664Y-19822667D01*
X7452712Y-19813143D01*
X7481283Y-19813143D01*
X7500331Y-19822667D01*
X7509855Y-19841714D01*
X7509855Y-19946476D01*
X7900331Y-19736952D02*
X7728902Y-19994095D01*
X8157474Y-19746476D02*
X8176521Y-19746476D01*
X8195569Y-19756000D01*
X8205093Y-19765524D01*
X8214617Y-19784571D01*
X8224140Y-19822667D01*
X8224140Y-19870286D01*
X8214617Y-19908381D01*
X8205093Y-19927429D01*
X8195569Y-19936952D01*
X8176521Y-19946476D01*
X8157474Y-19946476D01*
X8138426Y-19936952D01*
X8128902Y-19927429D01*
X8119378Y-19908381D01*
X8109855Y-19870286D01*
X8109855Y-19822667D01*
X8119378Y-19784571D01*
X8128902Y-19765524D01*
X8138426Y-19756000D01*
X8157474Y-19746476D01*
X8309855Y-19927429D02*
X8319378Y-19936952D01*
X8309855Y-19946476D01*
X8300331Y-19936952D01*
X8309855Y-19927429D01*
X8309855Y-19946476D01*
X8509855Y-19946476D02*
X8395569Y-19946476D01*
X8452712Y-19946476D02*
X8452712Y-19746476D01*
X8433664Y-19775048D01*
X8414617Y-19794095D01*
X8395569Y-19803619D01*
X8586045Y-19765524D02*
X8595569Y-19756000D01*
X8614617Y-19746476D01*
X8662236Y-19746476D01*
X8681283Y-19756000D01*
X8690807Y-19765524D01*
X8700331Y-19784571D01*
X8700331Y-19803619D01*
X8690807Y-19832190D01*
X8576521Y-19946476D01*
X8700331Y-19946476D01*
X8871760Y-19746476D02*
X8833664Y-19746476D01*
X8814617Y-19756000D01*
X8805093Y-19765524D01*
X8786045Y-19794095D01*
X8776521Y-19832190D01*
X8776521Y-19908381D01*
X8786045Y-19927429D01*
X8795569Y-19936952D01*
X8814617Y-19946476D01*
X8852712Y-19946476D01*
X8871760Y-19936952D01*
X8881283Y-19927429D01*
X8890807Y-19908381D01*
X8890807Y-19860762D01*
X8881283Y-19841714D01*
X8871760Y-19832190D01*
X8852712Y-19822667D01*
X8814617Y-19822667D01*
X8795569Y-19832190D01*
X8786045Y-19841714D01*
X8776521Y-19860762D01*
X9014617Y-19746476D02*
X9033664Y-19746476D01*
X9052712Y-19756000D01*
X9062236Y-19765524D01*
X9071760Y-19784571D01*
X9081283Y-19822667D01*
X9081283Y-19870286D01*
X9071760Y-19908381D01*
X9062236Y-19927429D01*
X9052712Y-19936952D01*
X9033664Y-19946476D01*
X9014617Y-19946476D01*
X8995569Y-19936952D01*
X8986045Y-19927429D01*
X8976521Y-19908381D01*
X8966998Y-19870286D01*
X8966998Y-19822667D01*
X8976521Y-19784571D01*
X8986045Y-19765524D01*
X8995569Y-19756000D01*
X9014617Y-19746476D01*
X9157474Y-19746476D02*
X9157474Y-19784571D01*
X9233664Y-19746476D02*
X9233664Y-19784571D01*
X9528902Y-20022667D02*
X9519379Y-20013143D01*
X9500331Y-19984571D01*
X9490807Y-19965524D01*
X9481283Y-19936952D01*
X9471760Y-19889333D01*
X9471760Y-19851238D01*
X9481283Y-19803619D01*
X9490807Y-19775048D01*
X9500331Y-19756000D01*
X9519379Y-19727429D01*
X9528902Y-19717905D01*
X9690807Y-19746476D02*
X9652712Y-19746476D01*
X9633664Y-19756000D01*
X9624140Y-19765524D01*
X9605093Y-19794095D01*
X9595569Y-19832190D01*
X9595569Y-19908381D01*
X9605093Y-19927429D01*
X9614617Y-19936952D01*
X9633664Y-19946476D01*
X9671760Y-19946476D01*
X9690807Y-19936952D01*
X9700331Y-19927429D01*
X9709855Y-19908381D01*
X9709855Y-19860762D01*
X9700331Y-19841714D01*
X9690807Y-19832190D01*
X9671760Y-19822667D01*
X9633664Y-19822667D01*
X9614617Y-19832190D01*
X9605093Y-19841714D01*
X9595569Y-19860762D01*
X9947950Y-19946476D02*
X9947950Y-19746476D01*
X10033664Y-19946476D02*
X10033664Y-19841714D01*
X10024140Y-19822667D01*
X10005093Y-19813143D01*
X9976521Y-19813143D01*
X9957474Y-19822667D01*
X9947950Y-19832190D01*
X10157474Y-19946476D02*
X10138426Y-19936952D01*
X10128902Y-19927429D01*
X10119379Y-19908381D01*
X10119379Y-19851238D01*
X10128902Y-19832190D01*
X10138426Y-19822667D01*
X10157474Y-19813143D01*
X10186045Y-19813143D01*
X10205093Y-19822667D01*
X10214617Y-19832190D01*
X10224140Y-19851238D01*
X10224140Y-19908381D01*
X10214617Y-19927429D01*
X10205093Y-19936952D01*
X10186045Y-19946476D01*
X10157474Y-19946476D01*
X10338426Y-19946476D02*
X10319379Y-19936952D01*
X10309855Y-19917905D01*
X10309855Y-19746476D01*
X10490807Y-19936952D02*
X10471760Y-19946476D01*
X10433664Y-19946476D01*
X10414617Y-19936952D01*
X10405093Y-19917905D01*
X10405093Y-19841714D01*
X10414617Y-19822667D01*
X10433664Y-19813143D01*
X10471760Y-19813143D01*
X10490807Y-19822667D01*
X10500331Y-19841714D01*
X10500331Y-19860762D01*
X10405093Y-19879810D01*
X10576521Y-19936952D02*
X10595569Y-19946476D01*
X10633664Y-19946476D01*
X10652712Y-19936952D01*
X10662236Y-19917905D01*
X10662236Y-19908381D01*
X10652712Y-19889333D01*
X10633664Y-19879810D01*
X10605093Y-19879810D01*
X10586045Y-19870286D01*
X10576521Y-19851238D01*
X10576521Y-19841714D01*
X10586045Y-19822667D01*
X10605093Y-19813143D01*
X10633664Y-19813143D01*
X10652712Y-19822667D01*
X10728902Y-20022667D02*
X10738426Y-20013143D01*
X10757474Y-19984571D01*
X10766998Y-19965524D01*
X10776521Y-19936952D01*
X10786045Y-19889333D01*
X10786045Y-19851238D01*
X10776521Y-19803619D01*
X10766998Y-19775048D01*
X10757474Y-19756000D01*
X10738426Y-19727429D01*
X10728902Y-19717905D01*
X11090807Y-20022667D02*
X11081283Y-20013143D01*
X11062236Y-19984571D01*
X11052712Y-19965524D01*
X11043188Y-19936952D01*
X11033664Y-19889333D01*
X11033664Y-19851238D01*
X11043188Y-19803619D01*
X11052712Y-19775048D01*
X11062236Y-19756000D01*
X11081283Y-19727429D01*
X11090807Y-19717905D01*
X11166998Y-19813143D02*
X11166998Y-19946476D01*
X11166998Y-19832190D02*
X11176521Y-19822667D01*
X11195569Y-19813143D01*
X11224140Y-19813143D01*
X11243188Y-19822667D01*
X11252712Y-19841714D01*
X11252712Y-19946476D01*
X11376521Y-19946476D02*
X11357474Y-19936952D01*
X11347950Y-19927429D01*
X11338426Y-19908381D01*
X11338426Y-19851238D01*
X11347950Y-19832190D01*
X11357474Y-19822667D01*
X11376521Y-19813143D01*
X11405093Y-19813143D01*
X11424140Y-19822667D01*
X11433664Y-19832190D01*
X11443188Y-19851238D01*
X11443188Y-19908381D01*
X11433664Y-19927429D01*
X11424140Y-19936952D01*
X11405093Y-19946476D01*
X11376521Y-19946476D01*
X11500331Y-19813143D02*
X11576521Y-19813143D01*
X11528902Y-19746476D02*
X11528902Y-19917905D01*
X11538426Y-19936952D01*
X11557474Y-19946476D01*
X11576521Y-19946476D01*
X11795569Y-19813143D02*
X11795569Y-20013143D01*
X11795569Y-19822667D02*
X11814617Y-19813143D01*
X11852712Y-19813143D01*
X11871759Y-19822667D01*
X11881283Y-19832190D01*
X11890807Y-19851238D01*
X11890807Y-19908381D01*
X11881283Y-19927429D01*
X11871759Y-19936952D01*
X11852712Y-19946476D01*
X11814617Y-19946476D01*
X11795569Y-19936952D01*
X12005093Y-19946476D02*
X11986045Y-19936952D01*
X11976521Y-19917905D01*
X11976521Y-19746476D01*
X12166997Y-19946476D02*
X12166997Y-19841714D01*
X12157474Y-19822667D01*
X12138426Y-19813143D01*
X12100331Y-19813143D01*
X12081283Y-19822667D01*
X12166997Y-19936952D02*
X12147950Y-19946476D01*
X12100331Y-19946476D01*
X12081283Y-19936952D01*
X12071759Y-19917905D01*
X12071759Y-19898857D01*
X12081283Y-19879810D01*
X12100331Y-19870286D01*
X12147950Y-19870286D01*
X12166997Y-19860762D01*
X12233664Y-19813143D02*
X12309855Y-19813143D01*
X12262236Y-19746476D02*
X12262236Y-19917905D01*
X12271759Y-19936952D01*
X12290807Y-19946476D01*
X12309855Y-19946476D01*
X12452712Y-19936952D02*
X12433664Y-19946476D01*
X12395569Y-19946476D01*
X12376521Y-19936952D01*
X12366997Y-19917905D01*
X12366997Y-19841714D01*
X12376521Y-19822667D01*
X12395569Y-19813143D01*
X12433664Y-19813143D01*
X12452712Y-19822667D01*
X12462236Y-19841714D01*
X12462236Y-19860762D01*
X12366997Y-19879810D01*
X12633664Y-19946476D02*
X12633664Y-19746476D01*
X12633664Y-19936952D02*
X12614617Y-19946476D01*
X12576521Y-19946476D01*
X12557474Y-19936952D01*
X12547950Y-19927429D01*
X12538426Y-19908381D01*
X12538426Y-19851238D01*
X12547950Y-19832190D01*
X12557474Y-19822667D01*
X12576521Y-19813143D01*
X12614617Y-19813143D01*
X12633664Y-19822667D01*
X12709855Y-20022667D02*
X12719378Y-20013143D01*
X12738426Y-19984571D01*
X12747950Y-19965524D01*
X12757474Y-19936952D01*
X12766997Y-19889333D01*
X12766997Y-19851238D01*
X12757474Y-19803619D01*
X12747950Y-19775048D01*
X12738426Y-19756000D01*
X12719378Y-19727429D01*
X12709855Y-19717905D01*
X5856998Y-20076000D02*
X5856998Y-20276000D01*
X5756998Y-20176000D02*
X5956998Y-20176000D01*
X6195569Y-20066476D02*
X6319378Y-20066476D01*
X6252712Y-20142667D01*
X6281283Y-20142667D01*
X6300331Y-20152190D01*
X6309855Y-20161714D01*
X6319378Y-20180762D01*
X6319378Y-20228381D01*
X6309855Y-20247429D01*
X6300331Y-20256952D01*
X6281283Y-20266476D01*
X6224140Y-20266476D01*
X6205093Y-20256952D01*
X6195569Y-20247429D01*
X6405093Y-20247429D02*
X6414617Y-20256952D01*
X6405093Y-20266476D01*
X6395569Y-20256952D01*
X6405093Y-20247429D01*
X6405093Y-20266476D01*
X6595569Y-20066476D02*
X6500331Y-20066476D01*
X6490807Y-20161714D01*
X6500331Y-20152190D01*
X6519378Y-20142667D01*
X6566998Y-20142667D01*
X6586045Y-20152190D01*
X6595569Y-20161714D01*
X6605093Y-20180762D01*
X6605093Y-20228381D01*
X6595569Y-20247429D01*
X6586045Y-20256952D01*
X6566998Y-20266476D01*
X6519378Y-20266476D01*
X6500331Y-20256952D01*
X6490807Y-20247429D01*
X6728902Y-20066476D02*
X6747950Y-20066476D01*
X6766998Y-20076000D01*
X6776521Y-20085524D01*
X6786045Y-20104571D01*
X6795569Y-20142667D01*
X6795569Y-20190286D01*
X6786045Y-20228381D01*
X6776521Y-20247429D01*
X6766998Y-20256952D01*
X6747950Y-20266476D01*
X6728902Y-20266476D01*
X6709855Y-20256952D01*
X6700331Y-20247429D01*
X6690807Y-20228381D01*
X6681283Y-20190286D01*
X6681283Y-20142667D01*
X6690807Y-20104571D01*
X6700331Y-20085524D01*
X6709855Y-20076000D01*
X6728902Y-20066476D01*
X6919378Y-20066476D02*
X6938426Y-20066476D01*
X6957474Y-20076000D01*
X6966998Y-20085524D01*
X6976521Y-20104571D01*
X6986045Y-20142667D01*
X6986045Y-20190286D01*
X6976521Y-20228381D01*
X6966998Y-20247429D01*
X6957474Y-20256952D01*
X6938426Y-20266476D01*
X6919378Y-20266476D01*
X6900331Y-20256952D01*
X6890807Y-20247429D01*
X6881283Y-20228381D01*
X6871759Y-20190286D01*
X6871759Y-20142667D01*
X6881283Y-20104571D01*
X6890807Y-20085524D01*
X6900331Y-20076000D01*
X6919378Y-20066476D01*
X7071759Y-20266476D02*
X7071759Y-20133143D01*
X7071759Y-20152190D02*
X7081283Y-20142667D01*
X7100331Y-20133143D01*
X7128902Y-20133143D01*
X7147950Y-20142667D01*
X7157474Y-20161714D01*
X7157474Y-20266476D01*
X7157474Y-20161714D02*
X7166998Y-20142667D01*
X7186045Y-20133143D01*
X7214617Y-20133143D01*
X7233664Y-20142667D01*
X7243188Y-20161714D01*
X7243188Y-20266476D01*
X7338426Y-20266476D02*
X7338426Y-20133143D01*
X7338426Y-20152190D02*
X7347950Y-20142667D01*
X7366998Y-20133143D01*
X7395569Y-20133143D01*
X7414617Y-20142667D01*
X7424140Y-20161714D01*
X7424140Y-20266476D01*
X7424140Y-20161714D02*
X7433664Y-20142667D01*
X7452712Y-20133143D01*
X7481283Y-20133143D01*
X7500331Y-20142667D01*
X7509855Y-20161714D01*
X7509855Y-20266476D01*
X7900331Y-20056952D02*
X7728902Y-20314095D01*
X8157474Y-20066476D02*
X8176521Y-20066476D01*
X8195569Y-20076000D01*
X8205093Y-20085524D01*
X8214617Y-20104571D01*
X8224140Y-20142667D01*
X8224140Y-20190286D01*
X8214617Y-20228381D01*
X8205093Y-20247429D01*
X8195569Y-20256952D01*
X8176521Y-20266476D01*
X8157474Y-20266476D01*
X8138426Y-20256952D01*
X8128902Y-20247429D01*
X8119378Y-20228381D01*
X8109855Y-20190286D01*
X8109855Y-20142667D01*
X8119378Y-20104571D01*
X8128902Y-20085524D01*
X8138426Y-20076000D01*
X8157474Y-20066476D01*
X8309855Y-20247429D02*
X8319378Y-20256952D01*
X8309855Y-20266476D01*
X8300331Y-20256952D01*
X8309855Y-20247429D01*
X8309855Y-20266476D01*
X8509855Y-20266476D02*
X8395569Y-20266476D01*
X8452712Y-20266476D02*
X8452712Y-20066476D01*
X8433664Y-20095048D01*
X8414617Y-20114095D01*
X8395569Y-20123619D01*
X8576521Y-20066476D02*
X8700331Y-20066476D01*
X8633664Y-20142667D01*
X8662236Y-20142667D01*
X8681283Y-20152190D01*
X8690807Y-20161714D01*
X8700331Y-20180762D01*
X8700331Y-20228381D01*
X8690807Y-20247429D01*
X8681283Y-20256952D01*
X8662236Y-20266476D01*
X8605093Y-20266476D01*
X8586045Y-20256952D01*
X8576521Y-20247429D01*
X8766998Y-20066476D02*
X8900331Y-20066476D01*
X8814617Y-20266476D01*
X9005093Y-20152190D02*
X8986045Y-20142667D01*
X8976521Y-20133143D01*
X8966998Y-20114095D01*
X8966998Y-20104571D01*
X8976521Y-20085524D01*
X8986045Y-20076000D01*
X9005093Y-20066476D01*
X9043188Y-20066476D01*
X9062236Y-20076000D01*
X9071760Y-20085524D01*
X9081283Y-20104571D01*
X9081283Y-20114095D01*
X9071760Y-20133143D01*
X9062236Y-20142667D01*
X9043188Y-20152190D01*
X9005093Y-20152190D01*
X8986045Y-20161714D01*
X8976521Y-20171238D01*
X8966998Y-20190286D01*
X8966998Y-20228381D01*
X8976521Y-20247429D01*
X8986045Y-20256952D01*
X9005093Y-20266476D01*
X9043188Y-20266476D01*
X9062236Y-20256952D01*
X9071760Y-20247429D01*
X9081283Y-20228381D01*
X9081283Y-20190286D01*
X9071760Y-20171238D01*
X9062236Y-20161714D01*
X9043188Y-20152190D01*
X9157474Y-20066476D02*
X9157474Y-20104571D01*
X9233664Y-20066476D02*
X9233664Y-20104571D01*
X9528902Y-20342667D02*
X9519379Y-20333143D01*
X9500331Y-20304571D01*
X9490807Y-20285524D01*
X9481283Y-20256952D01*
X9471760Y-20209333D01*
X9471760Y-20171238D01*
X9481283Y-20123619D01*
X9490807Y-20095048D01*
X9500331Y-20076000D01*
X9519379Y-20047429D01*
X9528902Y-20037905D01*
X9690807Y-20133143D02*
X9690807Y-20266476D01*
X9643188Y-20056952D02*
X9595569Y-20199810D01*
X9719379Y-20199810D01*
X9947950Y-20266476D02*
X9947950Y-20066476D01*
X10033664Y-20266476D02*
X10033664Y-20161714D01*
X10024140Y-20142667D01*
X10005093Y-20133143D01*
X9976521Y-20133143D01*
X9957474Y-20142667D01*
X9947950Y-20152190D01*
X10157474Y-20266476D02*
X10138426Y-20256952D01*
X10128902Y-20247429D01*
X10119379Y-20228381D01*
X10119379Y-20171238D01*
X10128902Y-20152190D01*
X10138426Y-20142667D01*
X10157474Y-20133143D01*
X10186045Y-20133143D01*
X10205093Y-20142667D01*
X10214617Y-20152190D01*
X10224140Y-20171238D01*
X10224140Y-20228381D01*
X10214617Y-20247429D01*
X10205093Y-20256952D01*
X10186045Y-20266476D01*
X10157474Y-20266476D01*
X10338426Y-20266476D02*
X10319379Y-20256952D01*
X10309855Y-20237905D01*
X10309855Y-20066476D01*
X10490807Y-20256952D02*
X10471760Y-20266476D01*
X10433664Y-20266476D01*
X10414617Y-20256952D01*
X10405093Y-20237905D01*
X10405093Y-20161714D01*
X10414617Y-20142667D01*
X10433664Y-20133143D01*
X10471760Y-20133143D01*
X10490807Y-20142667D01*
X10500331Y-20161714D01*
X10500331Y-20180762D01*
X10405093Y-20199810D01*
X10576521Y-20256952D02*
X10595569Y-20266476D01*
X10633664Y-20266476D01*
X10652712Y-20256952D01*
X10662236Y-20237905D01*
X10662236Y-20228381D01*
X10652712Y-20209333D01*
X10633664Y-20199810D01*
X10605093Y-20199810D01*
X10586045Y-20190286D01*
X10576521Y-20171238D01*
X10576521Y-20161714D01*
X10586045Y-20142667D01*
X10605093Y-20133143D01*
X10633664Y-20133143D01*
X10652712Y-20142667D01*
X10728902Y-20342667D02*
X10738426Y-20333143D01*
X10757474Y-20304571D01*
X10766998Y-20285524D01*
X10776521Y-20256952D01*
X10786045Y-20209333D01*
X10786045Y-20171238D01*
X10776521Y-20123619D01*
X10766998Y-20095048D01*
X10757474Y-20076000D01*
X10738426Y-20047429D01*
X10728902Y-20037905D01*
X11090807Y-20342667D02*
X11081283Y-20333143D01*
X11062236Y-20304571D01*
X11052712Y-20285524D01*
X11043188Y-20256952D01*
X11033664Y-20209333D01*
X11033664Y-20171238D01*
X11043188Y-20123619D01*
X11052712Y-20095048D01*
X11062236Y-20076000D01*
X11081283Y-20047429D01*
X11090807Y-20037905D01*
X11166998Y-20133143D02*
X11166998Y-20266476D01*
X11166998Y-20152190D02*
X11176521Y-20142667D01*
X11195569Y-20133143D01*
X11224140Y-20133143D01*
X11243188Y-20142667D01*
X11252712Y-20161714D01*
X11252712Y-20266476D01*
X11376521Y-20266476D02*
X11357474Y-20256952D01*
X11347950Y-20247429D01*
X11338426Y-20228381D01*
X11338426Y-20171238D01*
X11347950Y-20152190D01*
X11357474Y-20142667D01*
X11376521Y-20133143D01*
X11405093Y-20133143D01*
X11424140Y-20142667D01*
X11433664Y-20152190D01*
X11443188Y-20171238D01*
X11443188Y-20228381D01*
X11433664Y-20247429D01*
X11424140Y-20256952D01*
X11405093Y-20266476D01*
X11376521Y-20266476D01*
X11500331Y-20133143D02*
X11576521Y-20133143D01*
X11528902Y-20066476D02*
X11528902Y-20237905D01*
X11538426Y-20256952D01*
X11557474Y-20266476D01*
X11576521Y-20266476D01*
X11795569Y-20133143D02*
X11795569Y-20333143D01*
X11795569Y-20142667D02*
X11814617Y-20133143D01*
X11852712Y-20133143D01*
X11871759Y-20142667D01*
X11881283Y-20152190D01*
X11890807Y-20171238D01*
X11890807Y-20228381D01*
X11881283Y-20247429D01*
X11871759Y-20256952D01*
X11852712Y-20266476D01*
X11814617Y-20266476D01*
X11795569Y-20256952D01*
X12005093Y-20266476D02*
X11986045Y-20256952D01*
X11976521Y-20237905D01*
X11976521Y-20066476D01*
X12166997Y-20266476D02*
X12166997Y-20161714D01*
X12157474Y-20142667D01*
X12138426Y-20133143D01*
X12100331Y-20133143D01*
X12081283Y-20142667D01*
X12166997Y-20256952D02*
X12147950Y-20266476D01*
X12100331Y-20266476D01*
X12081283Y-20256952D01*
X12071759Y-20237905D01*
X12071759Y-20218857D01*
X12081283Y-20199810D01*
X12100331Y-20190286D01*
X12147950Y-20190286D01*
X12166997Y-20180762D01*
X12233664Y-20133143D02*
X12309855Y-20133143D01*
X12262236Y-20066476D02*
X12262236Y-20237905D01*
X12271759Y-20256952D01*
X12290807Y-20266476D01*
X12309855Y-20266476D01*
X12452712Y-20256952D02*
X12433664Y-20266476D01*
X12395569Y-20266476D01*
X12376521Y-20256952D01*
X12366997Y-20237905D01*
X12366997Y-20161714D01*
X12376521Y-20142667D01*
X12395569Y-20133143D01*
X12433664Y-20133143D01*
X12452712Y-20142667D01*
X12462236Y-20161714D01*
X12462236Y-20180762D01*
X12366997Y-20199810D01*
X12633664Y-20266476D02*
X12633664Y-20066476D01*
X12633664Y-20256952D02*
X12614617Y-20266476D01*
X12576521Y-20266476D01*
X12557474Y-20256952D01*
X12547950Y-20247429D01*
X12538426Y-20228381D01*
X12538426Y-20171238D01*
X12547950Y-20152190D01*
X12557474Y-20142667D01*
X12576521Y-20133143D01*
X12614617Y-20133143D01*
X12633664Y-20142667D01*
X12709855Y-20342667D02*
X12719378Y-20333143D01*
X12738426Y-20304571D01*
X12747950Y-20285524D01*
X12757474Y-20256952D01*
X12766997Y-20209333D01*
X12766997Y-20171238D01*
X12757474Y-20123619D01*
X12747950Y-20095048D01*
X12738426Y-20076000D01*
X12719378Y-20047429D01*
X12709855Y-20037905D01*
M02*
