M48
; DRILL file {KiCad (6.0.11)} date Fri Jan 19 00:31:20 2024
; FORMAT={-:-/ absolute / metric / decimal}
; #@! TF.CreationDate,2024-01-19T00:31:20+00:00
; #@! TF.GenerationSoftware,Kicad,Pcbnew,(6.0.11)
; #@! TF.FileFunction,Plated,1,2,PTH
FMAT,2
METRIC
; #@! TA.AperFunction,Plated,PTH,ViaDrill
T1C0.400
; #@! TA.AperFunction,Plated,PTH,ComponentDrill
T2C0.800
; #@! TA.AperFunction,Plated,PTH,ComponentDrill
T3C1.000
%
G90
G05
T1
X92.34Y-168.61
X108.705Y-86.965
X112.559Y-62.751
X112.69Y-92.04
X113.74Y-94.53
X114.48Y-83.136
X114.48Y-88.86
X114.536Y-71.726
X114.641Y-80.531
X116.114Y-62.51
X120.7Y-148.37
X121.65Y-127.56
X122.09Y-68.5
X122.344Y-143.691
X123.17Y-119.35
X123.66Y-159.4
X124.027Y-144.32
X125.325Y-161.83
X128.88Y-183.71
X133.209Y-132.37
X133.81Y-150.41
X134.198Y-132.52
X134.61Y-146.06
X135.2Y-141.38
X135.66Y-132.34
X135.88Y-102.98
X137.081Y-132.953
X137.111Y-143.086
X139.26Y-141.42
X139.48Y-81.456
X139.575Y-127.185
X139.612Y-151.945
X140.37Y-122.54
X140.52Y-82.726
X142.01Y-87.006
X143.375Y-39.915
X145.06Y-86.786
T2
X83.785Y-31.24
X91.405Y-31.24
X95.68Y-44.97
X95.68Y-47.51
X95.68Y-50.05
X95.68Y-52.59
X95.7Y-33.98
X95.7Y-41.6
X100.584Y-147.066
X103.3Y-44.97
X103.3Y-47.51
X103.3Y-50.05
X103.3Y-52.59
X103.32Y-36.756
X103.32Y-41.756
X103.372Y-31.24
X105.17Y-142.2
X105.17Y-163.34
X108.204Y-147.066
X110.992Y-31.24
X112.79Y-142.2
X112.79Y-163.34
X119.11Y-116.74
X119.11Y-119.28
X119.11Y-121.82
X119.11Y-124.36
X119.11Y-126.9
X119.11Y-129.44
X119.11Y-131.98
X119.11Y-147.58
X119.11Y-150.12
X119.11Y-152.66
X119.11Y-155.2
X119.11Y-157.74
X119.11Y-160.28
X119.11Y-162.82
X119.11Y-165.36
X119.36Y-36.501
X119.36Y-39.041
X119.36Y-41.581
X119.36Y-44.121
X119.36Y-46.661
X119.36Y-49.201
X119.36Y-51.741
X119.36Y-54.281
X119.36Y-56.821
X119.36Y-59.361
X119.36Y-77.401
X119.36Y-79.941
X119.36Y-82.481
X119.36Y-85.021
X119.36Y-87.561
X119.36Y-90.101
X119.36Y-92.641
X119.36Y-95.181
X119.36Y-97.721
X119.36Y-100.261
X121.145Y-31.24
X123.47Y-172.775
X123.47Y-174.775
X126.73Y-116.74
X126.73Y-119.28
X126.73Y-121.82
X126.73Y-124.36
X126.73Y-126.9
X126.73Y-129.44
X126.73Y-131.98
X126.73Y-147.58
X126.73Y-150.12
X126.73Y-152.66
X126.73Y-155.2
X126.73Y-157.74
X126.73Y-160.28
X126.73Y-162.82
X126.73Y-165.36
X126.98Y-36.501
X126.98Y-39.041
X126.98Y-41.581
X126.98Y-44.121
X126.98Y-46.661
X126.98Y-49.201
X126.98Y-51.741
X126.98Y-54.281
X126.98Y-56.821
X126.98Y-59.361
X126.98Y-77.401
X126.98Y-79.941
X126.98Y-82.481
X126.98Y-85.021
X126.98Y-87.561
X126.98Y-90.101
X126.98Y-92.641
X126.98Y-95.181
X126.98Y-97.721
X126.98Y-100.261
X128.765Y-31.24
X130.57Y-36.196
X130.57Y-41.196
X130.6Y-145.24
X130.6Y-150.24
X130.62Y-75.596
X130.62Y-80.596
X130.74Y-114.63
X130.74Y-119.63
X138.955Y-35.98
X140.955Y-35.98
T3
X86.32Y-27.33
X87.62Y-44.971
X87.62Y-47.511
X87.62Y-50.051
X87.62Y-52.591
X87.62Y-55.131
X87.62Y-57.671
X87.62Y-60.211
X87.62Y-62.751
X87.62Y-65.291
X87.62Y-67.831
X87.62Y-70.371
X87.62Y-72.911
X87.62Y-75.451
X87.62Y-77.991
X87.62Y-80.531
X87.62Y-83.071
X87.62Y-85.611
X87.62Y-88.151
X87.62Y-90.691
X87.62Y-93.231
X88.86Y-27.33
X90.16Y-44.971
X90.16Y-47.511
X90.16Y-50.051
X90.16Y-52.591
X90.16Y-55.131
X90.16Y-57.671
X90.16Y-60.211
X90.16Y-62.751
X90.16Y-65.291
X90.16Y-67.831
X90.16Y-70.371
X90.16Y-72.911
X90.16Y-75.451
X90.16Y-77.991
X90.16Y-80.531
X90.16Y-83.071
X90.16Y-85.611
X90.16Y-88.151
X90.16Y-90.691
X90.16Y-93.231
X92.86Y-116.93
X92.86Y-119.47
X92.86Y-122.01
X92.86Y-124.55
X92.86Y-127.09
X92.86Y-129.63
X92.86Y-132.17
X92.86Y-134.71
X92.86Y-137.25
X92.86Y-139.79
X92.86Y-142.33
X92.86Y-144.87
X92.86Y-147.41
X92.86Y-149.95
X92.86Y-152.49
X92.86Y-155.03
X92.86Y-157.57
X92.86Y-160.11
X92.86Y-162.65
X92.86Y-165.19
X95.4Y-116.93
X95.4Y-119.47
X95.4Y-122.01
X95.4Y-124.55
X95.4Y-127.09
X95.4Y-129.63
X95.4Y-132.17
X95.4Y-134.71
X95.4Y-137.25
X95.4Y-139.79
X95.4Y-142.33
X95.4Y-144.87
X95.4Y-147.41
X95.4Y-149.95
X95.4Y-152.49
X95.4Y-155.03
X95.4Y-157.57
X95.4Y-160.11
X95.4Y-162.65
X95.4Y-165.19
X99.76Y-183.65
X101.66Y-84.286
X102.3Y-183.65
X104.2Y-84.286
X104.84Y-183.65
X105.907Y-27.33
X106.74Y-84.286
X107.38Y-183.65
X108.447Y-27.33
X120.98Y-183.629
X123.52Y-183.629
X123.68Y-27.33
X126.22Y-27.33
X138.495Y-183.71
X141.035Y-183.71
X141.46Y-27.34
X144.0Y-27.34
X150.685Y-120.74
X150.685Y-123.28
X150.685Y-125.82
X150.685Y-128.36
X150.685Y-130.9
X150.685Y-133.44
X150.685Y-135.98
X150.685Y-138.52
X150.685Y-141.06
X150.685Y-143.6
X150.685Y-146.14
X150.685Y-148.68
X150.685Y-151.22
X150.685Y-153.76
X150.685Y-156.3
X150.685Y-158.84
X150.685Y-161.38
X150.935Y-44.246
X150.935Y-46.786
X150.935Y-49.326
X150.935Y-51.866
X150.935Y-54.406
X150.935Y-56.946
X150.935Y-59.486
X150.935Y-62.026
X150.935Y-64.566
X150.935Y-67.106
X150.935Y-69.646
X150.935Y-72.186
X150.935Y-74.726
X150.935Y-77.266
X150.935Y-79.806
X150.935Y-82.346
X150.935Y-84.886
X150.935Y-87.426
X150.935Y-89.966
X150.935Y-92.506
X153.225Y-120.74
X153.225Y-123.28
X153.225Y-125.82
X153.225Y-128.36
X153.225Y-130.9
X153.225Y-133.44
X153.225Y-135.98
X153.225Y-138.52
X153.225Y-141.06
X153.225Y-143.6
X153.225Y-146.14
X153.225Y-148.68
X153.225Y-151.22
X153.225Y-153.76
X153.225Y-156.3
X153.225Y-158.84
X153.225Y-161.38
X153.475Y-44.246
X153.475Y-46.786
X153.475Y-49.326
X153.475Y-51.866
X153.475Y-54.406
X153.475Y-56.946
X153.475Y-59.486
X153.475Y-62.026
X153.475Y-64.566
X153.475Y-67.106
X153.475Y-69.646
X153.475Y-72.186
X153.475Y-74.726
X153.475Y-77.266
X153.475Y-79.806
X153.475Y-82.346
X153.475Y-84.886
X153.475Y-87.426
X153.475Y-89.966
X153.475Y-92.506
T0
M30
